<?xml version="1.0" encoding="utf-8"?>
<!-- Generator: Adobe Illustrator 16.0.0, SVG Export Plug-In . SVG Version: 6.00 Build 0)  -->
<!DOCTYPE svg PUBLIC "-//W3C//DTD SVG 1.1//EN" "http://www.w3.org/Graphics/SVG/1.1/DTD/svg11.dtd">
<svg version="1.1" id="Layer_2" xmlns="http://www.w3.org/2000/svg" xmlns:xlink="http://www.w3.org/1999/xlink" x="0px" y="0px"
	 width="241.5px" height="192.333px" viewBox="0 0 241.5 192.333" enable-background="new 0 0 241.5 192.333" xml:space="preserve">
<g>
	<g>
		<g>
			<path fill="#F9676C" d="M49.761,2.5c-25.62,0-46.388,20.77-46.388,46.385c0,25.622,20.768,46.39,46.388,46.39
				c25.618,0,46.388-20.768,46.388-46.39C96.148,23.27,75.378,2.5,49.761,2.5z M49.761,88.552
				c-21.906,0-39.667-17.756-39.667-39.667c0-21.903,17.761-39.664,39.667-39.664s39.664,17.761,39.664,39.664
				C89.425,70.795,71.667,88.552,49.761,88.552z"/>
			<polygon fill="#F9676C" points="137.126,95.216 168.049,14.091 199.974,95.247 201.386,95.247 237.307,2.793 229.435,2.793 
				200.794,78.217 170.729,2.85 165.138,2.85 136.04,78.329 106.26,2.793 98.788,2.793 135.471,95.216 			"/>
		</g>
	</g>
	<g>
		<path fill="#F9676C" d="M54.285,102.898l1.285-6.599c-4.086-0.521-8.124-0.501-12.044,0.029l1.376,6.583
			C47.964,102.535,51.109,102.528,54.285,102.898z"/>
		<path fill="#F9676C" d="M80.824,117.647l5.574-3.76c-2.447-3.163-5.303-6.001-8.509-8.455l-3.684,5.631
			C76.674,113,78.891,115.209,80.824,117.647z"/>
		<path fill="#F9676C" d="M38.592,104.227l-1.377-6.581c-3.725,1.05-7.281,2.552-10.602,4.469l3.756,5.574
			C32.963,106.236,35.719,105.076,38.592,104.227z"/>
		<path fill="#F9676C" d="M87.812,131.155l6.585-1.381c-1.04-3.696-2.521-7.231-4.413-10.536l-5.574,3.76
			C85.842,125.57,86.978,128.306,87.812,131.155z"/>
		<path fill="#F9676C" d="M25.025,111.287l-3.755-5.572c-3.176,2.469-6.012,5.351-8.468,8.588l5.631,3.686
			C20.372,115.491,22.58,113.239,25.025,111.287z"/>
		<path fill="#F9676C" d="M89.134,146.754l6.601,1.284c0.512-4.051,0.495-8.059-0.03-11.95l-6.582,1.379
			C89.493,140.496,89.495,143.608,89.134,146.754z"/>
		<path fill="#F9676C" d="M68.839,107.494l3.677-5.627c-3.287-1.849-6.846-3.303-10.628-4.322l-1.285,6.599
			C63.516,104.966,66.271,106.089,68.839,107.494z"/>
		<path fill="#F9676C" d="M18.903,167.162l-5.579,3.756c2.471,3.141,5.351,5.955,8.575,8.385l3.684-5.634
			C23.099,171.754,20.849,169.581,18.903,167.162z"/>
		<path fill="#F9676C" d="M61.098,180.261l1.379,6.579c3.683-1.053,7.196-2.552,10.481-4.451l-3.758-5.572
			C66.644,178.254,63.932,179.414,61.098,180.261z"/>
		<path fill="#F9676C" d="M10.357,137.978l-6.599-1.283c-0.499,4.086-0.449,8.12,0.101,12.04l6.583-1.377
			C10.046,144.298,10.004,141.157,10.357,137.978z"/>
		<path fill="#F9676C" d="M45.51,181.68l-1.282,6.596c4.053,0.493,8.056,0.442,11.947-0.101l-1.379-6.581
			C51.766,181.983,48.658,182.019,45.51,181.68z"/>
		<path fill="#F9676C" d="M87.895,153.072c-0.814,2.885-1.913,5.622-3.298,8.163l5.627,3.679c1.828-3.268,3.261-6.804,4.27-10.56
			L87.895,153.072z"/>
		<path fill="#F9676C" d="M30.969,177.21l-3.677,5.627c3.281,1.814,6.841,3.227,10.608,4.222l1.285-6.596
			C36.288,179.659,33.53,178.587,30.969,177.21z"/>
		<path fill="#F9676C" d="M14.883,123.366l-5.627-3.677c-1.84,3.303-3.272,6.885-4.278,10.683l6.599,1.282
			C12.388,128.73,13.484,125.944,14.883,123.366z"/>
		<path fill="#F9676C" d="M11.782,153.661l-6.581,1.378c1.068,3.706,2.584,7.24,4.513,10.545l5.57-3.758
			C13.824,159.25,12.64,156.519,11.782,153.661z"/>
		<path fill="#F9676C" d="M74.54,173.212l3.758,5.574c3.132-2.445,5.942-5.299,8.374-8.494l-5.633-3.682
			C79.123,169.066,76.948,171.285,74.54,173.212z"/>
	</g>
	<g>
		<polygon fill="#F9676C" points="152.089,135.195 149.38,128.085 141.923,128.085 144.663,135.195 		"/>
		<polygon fill="#F9676C" points="124.738,141.492 117.391,141.492 114.565,148.607 121.932,148.607 		"/>
		<polygon fill="#F9676C" points="119.512,154.751 112.127,154.751 109.289,161.903 116.69,161.903 		"/>
		<polygon fill="#F9676C" points="114.268,168.051 106.848,168.051 103.966,175.314 111.403,175.314 		"/>
		<polygon fill="#F9676C" points="157.328,168.051 160.13,175.314 167.381,175.314 164.612,168.051 		"/>
		<polygon fill="#F9676C" points="171.594,168.051 168.735,175.314 175.912,175.314 178.81,168.051 		"/>
		<polygon fill="#F9676C" points="206.572,128.154 209.275,135.195 216.65,135.195 213.887,128.085 206.546,128.085 		"/>
		<polygon fill="#F9676C" points="159.544,154.751 152.203,154.751 154.961,161.903 162.271,161.903 		"/>
		<polygon fill="#F9676C" points="224.479,175.314 232.238,175.314 229.415,168.051 221.722,168.051 		"/>
		<polygon fill="#F9676C" points="154.49,141.492 147.09,141.492 149.835,148.607 157.202,148.607 		"/>
		<polygon fill="#F9676C" points="179.243,148.607 186.564,148.607 189.402,141.492 182.042,141.492 		"/>
		<polygon fill="#F9676C" points="191.915,135.195 194.752,128.085 187.317,128.085 184.518,135.195 		"/>
		<polygon fill="#F9676C" points="174.013,161.903 181.261,161.903 184.115,154.751 176.825,154.751 		"/>
		<polygon fill="#F9676C" points="204.211,121.937 211.499,121.937 208.72,114.785 201.495,114.785 		"/>
		<polygon fill="#F9676C" points="211.637,141.492 214.34,148.607 221.862,148.607 219.096,141.492 		"/>
		<polygon fill="#F9676C" points="219.389,161.903 227.027,161.903 224.247,154.751 216.673,154.751 		"/>
		<polygon fill="#F9676C" points="165.138,188.305 170.729,188.305 173.461,181.458 162.498,181.458 		"/>
		<polygon fill="#F9676C" points="229.435,188.361 237.307,188.361 234.626,181.458 226.813,181.458 		"/>
		<polygon fill="#F9676C" points="206.332,108.641 201.386,95.908 199.974,95.908 197.05,103.342 199.083,108.641 		"/>
		<polygon fill="#F9676C" points="132.545,121.691 128.958,112.346 125.151,121.937 132.448,121.937 		"/>
		<polygon fill="#F9676C" points="141.967,108.641 137.126,95.938 135.471,95.938 132.468,103.506 134.438,108.641 		"/>
		<polygon fill="#F9676C" points="98.788,188.361 106.26,188.361 108.982,181.458 101.528,181.458 		"/>
		<polygon fill="#F9676C" points="137.058,115.463 139.553,121.937 147.035,121.937 144.309,114.785 136.797,114.785 		"/>
		<polygon fill="#F9676C" points="197.244,121.836 193.555,112.224 189.733,121.937 197.205,121.937 		"/>
		<polygon fill="#F9676C" points="130.023,128.085 122.711,128.085 119.89,135.195 127.22,135.195 		"/>
	</g>
</g>
</svg>
