<?xml version="1.0" encoding="utf-8"?>
<!-- Generator: Adobe Illustrator 16.0.0, SVG Export Plug-In . SVG Version: 6.00 Build 0)  -->
<!DOCTYPE svg PUBLIC "-//W3C//DTD SVG 1.1//EN" "http://www.w3.org/Graphics/SVG/1.1/DTD/svg11.dtd">
<svg version="1.1" id="Layer_2" xmlns="http://www.w3.org/2000/svg" xmlns:xlink="http://www.w3.org/1999/xlink" x="0px" y="0px"
	 width="241.5px" height="192.333px" viewBox="0 0 241.5 192.333" enable-background="new 0 0 241.5 192.333" xml:space="preserve">
<g>
	<g>
		<path fill="#F9676C" d="M50.037,3.741c-25.634,0-46.414,20.782-46.414,46.411c0,25.637,20.779,46.416,46.414,46.416
			c25.631,0,46.413-20.779,46.413-46.416C96.45,24.522,75.668,3.741,50.037,3.741z M50.037,89.841
			c-21.918,0-39.689-17.766-39.689-39.689c0-21.916,17.771-39.687,39.689-39.687c21.918,0,39.686,17.771,39.686,39.687
			C89.723,72.075,71.955,89.841,50.037,89.841z"/>
		<polygon fill="#F9676C" points="137.449,96.509 168.39,15.338 200.333,96.54 201.745,96.54 237.688,4.035 229.811,4.035 
			201.154,79.5 171.072,4.091 165.478,4.091 136.363,79.612 106.567,4.035 99.091,4.035 135.794,96.509 		"/>
	</g>
</g>
<g>
	<g>
		<path fill="#F9676C" d="M12.11,163.373l-3.046,1.317c4.448,8.36,11.456,15.386,20.464,19.814l1.232-3.117
			C22.854,177.426,16.313,171.136,12.11,163.373z"/>
		<path fill="#F9676C" d="M87.916,122.423l3.044-1.318c-4.443-8.36-11.451-15.386-20.459-19.813l-1.233,3.116
			C77.177,108.372,83.713,114.658,87.916,122.423z"/>
		<path fill="#F9676C" d="M62.33,101.633l1.224-3.09c-9.596-2.939-19.511-2.613-28.474,0.44l1.327,3.067
			c4.281-1.425,8.847-2.226,13.607-2.226C54.298,99.824,58.425,100.471,62.33,101.633z"/>
		<path fill="#F9676C" d="M70.494,180.799l1.316,3.044c8.361-4.444,15.386-11.452,19.812-20.459l-3.116-1.232
			C84.543,170.058,78.254,176.597,70.494,180.799z"/>
		<path fill="#F9676C" d="M91.28,155.211l3.092,1.225c2.934-9.598,2.608-19.513-0.445-28.477l-3.068,1.328
			c1.426,4.282,2.23,8.85,2.23,13.61C93.088,147.18,92.442,151.307,91.28,155.211z"/>
		<path fill="#F9676C" d="M37.699,184.164l-1.224,3.088c9.599,2.939,19.516,2.611,28.479-0.441l-1.329-3.068
			c-4.284,1.426-8.849,2.229-13.61,2.229C45.731,185.971,41.604,185.326,37.699,184.164z"/>
		<path fill="#F9676C" d="M29.537,104.997l-1.315-3.046c-8.361,4.445-15.384,11.453-19.812,20.459l3.114,1.232
			C15.487,115.736,21.777,109.199,29.537,104.997z"/>
		<path fill="#F9676C" d="M8.749,130.583l-3.089-1.224c-2.939,9.594-2.613,19.512,0.439,28.475l3.07-1.328
			c-1.428-4.281-2.229-8.848-2.229-13.608C6.94,138.614,7.586,134.487,8.749,130.583z"/>
	</g>
	<g>
		<polygon fill="#F9676C" points="237.688,189.333 233.005,177.283 229.011,177.283 233.657,189.333 		"/>
		<polygon fill="#F9676C" points="177.223,155.577 171.624,169.809 175.132,169.809 180.743,155.577 		"/>
		<polygon fill="#F9676C" points="103.873,177.283 99.091,189.333 102.967,189.333 107.716,177.283 		"/>
		<polygon fill="#F9676C" points="185.762,133.869 180.162,148.104 183.689,148.104 189.3,133.869 		"/>
		<polygon fill="#F9676C" points="204.8,104.689 201.745,96.828 200.333,96.828 197.241,104.689 		"/>
		<polygon fill="#F9676C" points="165.256,169.809 159.831,155.577 156.175,155.577 161.664,169.809 		"/>
		<polygon fill="#F9676C" points="213.233,126.396 207.704,112.163 203.908,112.163 209.394,126.396 		"/>
		<polygon fill="#F9676C" points="194.299,112.163 188.702,126.396 192.249,126.396 197.858,112.163 		"/>
		<polygon fill="#F9676C" points="140.434,104.689 137.449,96.859 135.794,96.859 132.687,104.689 		"/>
		<polygon fill="#F9676C" points="230.101,169.809 224.573,155.577 220.644,155.577 226.131,169.809 		"/>
		<polygon fill="#F9676C" points="172.185,177.283 164.543,177.283 168.322,187.081 		"/>
		<polygon fill="#F9676C" points="156.983,148.104 151.557,133.869 147.808,133.869 153.296,148.104 		"/>
		<polygon fill="#F9676C" points="112.488,155.577 106.84,169.809 110.663,169.809 116.274,155.577 		"/>
		<polygon fill="#F9676C" points="221.668,148.104 216.137,133.869 212.276,133.869 217.763,148.104 		"/>
		<polygon fill="#F9676C" points="121.105,133.869 115.456,148.104 119.222,148.104 124.832,133.869 		"/>
		<polygon fill="#F9676C" points="129.719,112.163 124.072,126.396 127.779,126.396 133.39,112.163 		"/>
		<polygon fill="#F9676C" points="148.707,126.396 143.284,112.163 139.44,112.163 144.926,126.396 		"/>
	</g>
</g>
</svg>
