<?xml version="1.0" encoding="utf-8"?>
<!-- Generator: Adobe Illustrator 16.0.0, SVG Export Plug-In . SVG Version: 6.00 Build 0)  -->
<!DOCTYPE svg PUBLIC "-//W3C//DTD SVG 1.1//EN" "http://www.w3.org/Graphics/SVG/1.1/DTD/svg11.dtd">
<svg version="1.1" id="Layer_2" xmlns="http://www.w3.org/2000/svg" xmlns:xlink="http://www.w3.org/1999/xlink" x="0px" y="0px"
	 width="241.5px" height="192.333px" viewBox="0 0 241.5 192.333" enable-background="new 0 0 241.5 192.333" xml:space="preserve">
<g>
	<g>
		<polygon fill="#F9676C" points="137.836,95.508 169.358,12.814 201.899,95.539 203.338,95.539 239.955,1.298 98.758,1.298 
			136.15,95.508 		"/>
		<path fill="#F9676C" d="M48.784,1C22.669,1,1.5,22.172,1.5,48.282c0,26.117,21.169,47.286,47.284,47.286
			c26.115,0,47.284-21.169,47.284-47.286C96.068,22.172,74.899,1,48.784,1z"/>
	</g>
	<g>
		<polygon fill="#F9676C" points="106.314,171.67 103.723,178.201 169.028,178.201 166.541,171.67 		"/>
		<polygon fill="#F9676C" points="169.748,178.201 235.145,178.201 232.608,171.67 172.315,171.67 		"/>
		<polygon fill="#F9676C" points="179.772,152.714 225.242,152.714 222.705,146.185 182.342,146.185 		"/>
		<polygon fill="#F9676C" points="174.761,165.455 230.192,165.455 227.655,158.929 177.327,158.929 		"/>
		<polygon fill="#F9676C" points="184.785,139.97 220.289,139.97 217.752,133.438 187.354,133.438 		"/>
		<polygon fill="#F9676C" points="137.862,96.436 136.174,96.436 134.07,101.74 139.884,101.74 		"/>
		<polygon fill="#F9676C" points="203.364,96.404 201.925,96.404 199.824,101.74 205.437,101.74 		"/>
		<polygon fill="#F9676C" points="98.783,190.645 239.979,190.645 237.558,184.414 101.257,184.414 		"/>
		<polygon fill="#F9676C" points="156.824,146.185 116.429,146.185 113.837,152.714 159.315,152.714 		"/>
		<polygon fill="#F9676C" points="147.111,120.699 126.544,120.699 123.955,127.227 149.599,127.227 		"/>
		<polygon fill="#F9676C" points="144.741,114.483 142.252,107.954 131.604,107.954 129.012,114.483 		"/>
		<polygon fill="#F9676C" points="151.968,133.438 121.487,133.438 118.896,139.97 154.455,139.97 		"/>
		<polygon fill="#F9676C" points="161.681,158.929 111.372,158.929 108.78,165.455 164.171,165.455 		"/>
		<polygon fill="#F9676C" points="194.812,114.483 210.389,114.483 207.85,107.954 197.38,107.954 		"/>
		<polygon fill="#F9676C" points="189.799,127.227 215.339,127.227 212.804,120.699 192.367,120.699 		"/>
		<path fill="#F9676C" d="M79.72,107.954H17.846c-2.276,1.975-4.359,4.158-6.222,6.529h74.32
			C84.079,112.112,81.998,109.929,79.72,107.954z"/>
		<path fill="#F9676C" d="M48.784,96.375c-7.879,0-15.295,1.955-21.83,5.365h43.659C64.079,98.331,56.664,96.375,48.784,96.375z"/>
		<path fill="#F9676C" d="M95.941,146.185H1.627c0.118,2.219,0.348,4.404,0.761,6.529H95.18
			C95.592,150.589,95.822,148.403,95.941,146.185z"/>
		<path fill="#F9676C" d="M94.93,133.438H2.64c-0.47,2.127-0.781,4.307-0.955,6.531H95.88
			C95.708,137.745,95.398,135.565,94.93,133.438z"/>
		<path fill="#F9676C" d="M90.104,120.699H7.463c-1.158,2.08-2.13,4.271-2.97,6.527h88.581
			C92.235,124.97,91.263,122.779,90.104,120.699z"/>
		<path fill="#F9676C" d="M86.815,171.67H10.752c1.738,2.354,3.681,4.539,5.813,6.531h64.437
			C83.135,176.209,85.079,174.023,86.815,171.67z"/>
		<path fill="#F9676C" d="M93.5,158.929H4.068c0.771,2.254,1.693,4.438,2.782,6.526h83.868
			C91.807,163.367,92.73,161.183,93.5,158.929z"/>
		<path fill="#F9676C" d="M48.784,190.944c8.728,0,16.874-2.407,23.893-6.53H24.891C31.909,188.537,40.056,190.944,48.784,190.944z"
			/>
	</g>
</g>
<g display="none">
	<g display="inline">
		<path fill="#F9676C" d="M48.342,0.81C22.64,0.81,1.804,21.646,1.804,47.344c0,25.705,20.835,46.54,46.538,46.54
			c25.701,0,46.537-20.835,46.537-46.54C94.879,21.646,74.042,0.81,48.342,0.81z M48.342,87.139
			c-21.978,0-39.794-17.813-39.794-39.795c0-21.974,17.816-39.792,39.794-39.792c21.977,0,39.792,17.818,39.792,39.792
			C88.134,69.326,70.318,87.139,48.342,87.139z"/>
		<polygon fill="#F9676C" points="135.989,93.825 167.012,12.438 199.039,93.855 200.455,93.855 236.493,1.104 228.596,1.104 
			199.862,76.771 169.7,1.161 164.091,1.161 134.899,76.882 105.023,1.104 97.527,1.104 134.328,93.825 		"/>
	</g>
	<g display="inline">
		<path fill="#F9676C" d="M240.351,186.01l-3.824-0.159l-8.651-22.262l0.009-0.004l-26.699-71.989l-0.323,0.121l19.165,51.671
			l-19.329-49.747l-0.064-0.165h-1.77l-13.998,35.587l-0.041-0.019l-18.18,44.42l-14.651-38.434l-14.143-41.79l-0.393,0.011
			l11.218,33.07l-12.51-32.818h-2.011l-0.595,1.491l0.756-1.968l-0.32-0.123l-10.984,28.607l-13.883,31.915l0.318,0.137
			l9.949-22.883l-21.829,55.001l-2.814-0.292l-0.033,0.341l2.724,0.263l-0.158,0.396l-0.139,0.35l-0.006,0.009l0.513,0.142h0.029
			l-0.169,0.429l-3.021,0.11l0.014,0.343l2.872-0.104l-1.786,4.542l0.319,0.124l1.839-4.679l5.931-0.21l-0.188,0.47l0.316,0.129
			l0.249-0.612l0.61-0.023l-1.162,2.807l0.318,0.136l1.221-2.957l5.087-0.183l0.009-0.342l-4.692-0.45l21.941-53.015l-0.318-0.129
			l-2.192,5.303l0.592-1.438l-7.897,18.218l16.759-42.508l0.573-1.414l28.944,75.084l0.011,0.029h-2.802v0.342h3.496l0.063,0.159
			l-0.725,0.176l0.081,0.333l0.771-0.187l1.498,3.854l0.318-0.125l-1.48-3.81l1.636-0.4h3.282l-0.543,1.369l0.317,0.128l0.593-1.497
			h4.277v-0.342h-4.14l0.255-0.642l1.974-0.479l-0.083-0.333l-1.734,0.422l18.116-45.56l-7.939,23.076l0.325,0.111l10.309-29.96
			l7.979-20.068l25.577,66.502l-0.233-0.581l2.37,6.427l-1.792-0.074l-0.016,0.341l2.055,0.086l0.84,2.188l0.322-0.123l-0.788-2.047
			l0.034,0.003l0.281,0.739l0.062,0.165h0.057l0.224,0.12l7.523,0.059l1.087,2.804l0.318-0.126l-1.106-2.856h0.352l-0.212-0.543
			l3.679,0.155L240.351,186.01z M229.054,186.227l-0.134-0.354l6.616,0.281l0.03,0.073H229.054z M176.865,149.397l-9.849,25.04
			l-0.194-0.502L176.865,149.397z M134.504,94.018h0.939l20.509,53.138l-0.038,0.011l7.671,22.466l0.326-0.113l-5.149-15.079
			l6.414,16.622l1.182,3.1l-1.225,2.99l0.319,0.133l1.085-2.652l0.234,0.61l0.235,0.621l0.014-0.029l0.688,1.79l0.318-0.125
			l-0.822-2.137l32.01-81.374h0.938l7.659,19.74l27.59,72.073l-6.61-0.279l-23.831-63.212l-0.322,0.125l12.296,32.61l-16.562-43.611
			l1.253-3.152l-0.317-0.127l-1.115,2.803l-0.323-0.853l-0.488,1.219l-0.073-0.191l1.221-3.208l-0.32-0.122l-1.091,2.828
			l-0.767-1.994l-0.321,0.125l0.905,2.347l-15.546,40.307l-13.723,34.401l-1.435,0.35h-3.586l-12.685-32.627l-16.533-43.395
			l1.35-3.321l-0.319-0.13l-1.209,2.98l-0.014-0.032h-0.334l-1.052-2.703l-0.318,0.126l1.106,2.846l-12.578,32.229l0.479-1.153
			l-18.362,45.236h-0.733l-4.942-0.474l28.432-72.289l7.295-16.878l-0.315-0.138l-4.273,9.823L134.504,94.018z M199.196,111.794
			l-3.022,7.578l2.952-7.758L199.196,111.794z M98.315,186.225l0.055-0.143l1.489,0.143H98.315z M104.848,186.225h-0.299
			l0.185-0.458l2.237-4.928l1.125-2.847L104.848,186.225z M103.824,187.095l-5.937,0.211l0.165-0.416l5.851,0.009L103.824,187.095z
			 M104.812,187.06l-0.613,0.021l0.075-0.18h0.604L104.812,187.06z M106.913,186.903l0.604,0.06l-2.327,0.083l0.062-0.145
			L106.913,186.903z M116.857,157.956l-6.532,15.786l2.582-6.556L116.857,157.956z M111.838,168.498l-1.385,3.179l4.597-11.324
			L111.838,168.498z M164.956,186.966l-0.028-0.076h0.339L164.956,186.966z M170.136,186.548h-0.06l0.206-0.526l0.068-0.016
			L170.136,186.548z M191.4,133.063l-20.895,52.554l-0.069,0.013l12.856-32.586l8.967-22.47L191.4,133.063z M194.097,126.29
			l0.801-2.334l4.57-11.453l0.055,0.142L194.097,126.29z M199.653,112.033l0.204-0.507l0.052,0.141l-0.2,0.506L199.653,112.033z
			 M199.892,112.645l0.2-0.501l17.978,47.343l1.3,3.8L199.892,112.645z M227.906,185.485l-3.36-8.735l-0.034-0.303l3.431,9.04
			L227.906,185.485z"/>
		
			<rect x="187.371" y="90.571" transform="matrix(0.9268 0.3755 -0.3755 0.9268 58.788 -61.6475)" fill="#F9676C" width="0.345" height="58.838"/>
	</g>
	<g display="inline">
		<path fill="#F9676C" d="M95.88,135.393c-0.259-0.902-0.687-2.061-0.687-2.061s-0.1-1.086-0.057-1.846
			c0.042-0.759-0.215-3.548-0.286-3.777c-0.07-0.229-0.171-0.314-0.299-0.258c-0.131,0.058,0.085,1.129,0.171,2.104
			c0.086,0.974,0.114,2.634,0.114,2.634s-0.572-2.748-1.144-4.753c-0.575-2.002-1.847-5.55-2.662-7.195
			c-0.817-1.646-2.333-4.548-3.665-6.395c-1.33-1.847-3.06-4.181-4.937-6.054c-1.733-1.735-3.38-3.223-5.724-5.076
			c0.169,0.045,0.326,0.092,0.401,0.109c0.217,0.059,0.301-0.143-0.056-0.313c-0.301-0.143-1.055-0.439-1.289-0.53
			c-2.604-1.949-5.822-3.513-8.27-4.606c-2.56-1.144-7.657-2.991-11.347-3.292c-0.026-0.002-0.045-0.002-0.064-0.002
			c-1.453-0.242-2.919-0.416-4.4-0.518v-0.461c-0.417-0.048-0.688-0.079-0.688-0.079l-3.905,0.439
			c-5.198,0.136-10.263,1.113-15.092,2.918c1.013-0.453,2.026-0.874,2.8-1.14c2.36-0.799,6.968-1.743,8.114-1.816
			c1.145-0.073,0.53-0.437,0.53-0.437s-1.16-0.336-8.157,1.673c-8.335,2.396-14.316,7.6-14.316,7.6l0.129-0.073
			c-1.184,0.851-2.329,1.757-3.435,2.719c-0.095,0.071-0.215,0.167-0.365,0.295c-2.29,1.96-3.763,3.62-4.849,4.634
			c-1.088,1.019-4.623,5.024-4.751,5.268c-0.128,0.242-0.242,0.917,0.331,0.142c0.543-0.735,3.91-4.45,4.226-4.795
			c-2.895,3.493-5.25,7.374-7.025,11.573c-0.941,2.227-1.704,4.504-2.284,6.822l0.002-0.105c0,0-2.92,8.414-1.603,17.857
			c0.948,6.807,3.191,11.1,4.369,12.967c0.455,1.002,0.941,1.983,1.461,2.945c-0.073,0.053-0.217,0.183-0.049,0.3
			c0.099,0.069,0.259,0.208,0.4,0.337c2.089,3.72,4.676,7.13,7.729,10.184c2.917,2.917,6.16,5.408,9.686,7.445l-0.002-0.002
			c0,0,0.586,0.418,1.495,1.047c-0.522-0.11-1.18-0.322-1.438-0.322c-0.356,0-0.271,0.283,0.703,0.485
			c0.358,0.072,0.916,0.206,1.474,0.345c1.442,0.981,3.367,2.258,5.121,3.302c3.363,2.008,4.623,2.521,4.81,2.594
			c0.186,0.07,0.385-0.103,0.042-0.33c-0.345-0.23-3.705-1.932-6.209-3.506c-1.2-0.756-2.105-1.368-2.727-1.801
			c0.16,0.043,0.306,0.076,0.431,0.109c0.493,0.229,0.988,0.45,1.488,0.661c5.771,2.441,11.899,3.676,18.217,3.676
			c6.317,0,12.445-1.234,18.213-3.676c0.369-0.156,0.732-0.315,1.094-0.479c0.538-0.207,2.661-1.02,4.335-1.785
			c1.531-0.695,4.22-2.23,6.536-4.012c2.489-1.298,5.763-3.059,6.336-3.37c0.857-0.466,3.812-1.931,3.984-2.104
			c0.172-0.171,0-0.278-0.208-0.178c-0.206,0.1-5.216,2.72-6.13,3.175c-0.383,0.19-1.484,0.777-2.68,1.412
			c0.138-0.118,0.272-0.242,0.405-0.364c2.542-2.35,4.324-4.379,5.225-5.729c0.904-1.354,1.643-2.159,2.994-4.671
			c1.354-2.509,2.243-4.422,2.695-5.418c0.45-0.997,1.975-4.914,2.371-6.224c0.397-1.308,1.149-4.424,1.277-5.494
			c0.13-1.075,0.612-5.519,0.634-6.664c0.013-0.82-0.084-2.896-0.17-4.312c0.086-0.553-0.016-2.192-0.029-2.466
			c-0.016-0.285,0.169,0.059,0.285,0.485c0.112,0.431,0.298,0.875,0.358,1.318c0.057,0.442,0.228,0.342,0.301,0.271
			C96.238,136.681,96.137,136.294,95.88,135.393z M91.186,122.747c-0.523-1.116-1.401-2.959-1.795-3.617
			c-0.579-0.966-2.296-4.229-3.797-6.18c-1.023-1.327-2.092-2.695-2.674-3.433C86.375,113.401,89.186,117.865,91.186,122.747z
			 M82.343,108.077l0.086,0.108c-0.062-0.069-0.126-0.137-0.191-0.205L82.343,108.077z M2.286,149.801
			c-0.373-2.03-1.432-7.185-0.832-12.277c0.123-1.025,0.25-1.856,0.382-2.53c-0.194,1.733-0.29,3.483-0.29,5.246
			c0,4.698,0.684,9.29,2.037,13.71C3.093,152.652,2.494,150.937,2.286,149.801z M27.785,181.251
			c-7.227-3.422-13.688-10.279-16.445-14.056c0.138,0.094,0.273,0.187,0.396,0.272c0.837,0.58,9.295,9.355,19.103,14.164
			c1.862,0.916,3.591,1.646,5.172,2.239c-2.202-0.387-3.721-0.716-3.721-0.716l0.069,0.037
			C30.888,182.645,29.359,182.001,27.785,181.251z M34.435,183.929c0.784,0.136,1.87,0.325,2.921,0.5
			c0.138,0.021,0.292,0.048,0.459,0.075c3.083,1.021,5.472,1.458,7.008,1.647C42.063,185.913,38.514,185.276,34.435,183.929z
			 M51.95,186.01c-2.838,0.079-7.101,0.142-12.136-1.219c2.502,0.327,6.081,0.696,9.433,0.728c3.881,0.032,7.463-0.313,8.633-0.441
			C55.9,185.499,53.878,185.811,51.95,186.01z M75.957,178.498c-1.173,0.736-3.229,1.922-4.821,2.622
			c0.899-0.501,1.782-1.034,2.646-1.596c0.732-0.427,1.513-0.854,2.038-1.082c0.175-0.078,0.458-0.212,0.815-0.392
			C76.399,178.211,76.173,178.362,75.957,178.498z M87.18,166.875c-0.688,1.14-2.189,3.307-2.897,4.101
			c-0.707,0.795-2.092,2.425-3.466,3.713c-0.72,0.675-1.605,1.428-2.502,2.126c-0.771,0.408-1.468,0.771-1.902,0.99
			c0.732-0.507,2.513-1.784,3.8-3.061c1.66-1.646,3.52-3.521,4.751-5.009c0.762-0.924,1.723-2.219,2.343-3.071
			C87.263,166.739,87.22,166.809,87.18,166.875z M73.319,179.184c-0.708,0.457-0.918,0.525-0.918,0.525s-6.384,3.117-11.049,4.494
			c-0.193,0.055-0.39,0.111-0.584,0.167c-3.135,0.685-8.784,0.766-13.996,0.704c-2.828-0.034-6.244-0.472-9.05-0.92
			c-6.161-2.099-13.887-6.95-18.001-10.163c-3.781-2.953-8.622-7.675-9.56-8.599c-1.915-3.197-5.335-8.583-6.988-17.907
			c-1.718-9.703,0.373-18.461,3.204-25.443c2.835-6.981,8.099-13.019,11.392-16.024c1.999-1.828,7.125-6.039,14.409-8.955
			c2.316-0.831,5.76-1.933,8.879-2.422c2.009-0.316,3.935-0.509,5.554-0.621c0.698-0.018,1.405-0.016,2.121,0.006
			c1.126,0.033,2.103,0.057,2.949,0.074V94.08c2.502,0.18,4.95,0.562,7.33,1.124c1.262,0.41,4.774,1.59,7.93,3.023
			c2.752,1.247,4.819,2.231,5.81,2.709c1.59,0.993,3.115,2.075,4.568,3.248c0.997,0.94,3.817,3.634,4.905,4.967
			c1.33,1.63,3.434,4.227,4.572,6.183c1.137,1.952,2.682,4.568,3.497,6.267c0.725,1.503,2.193,5.025,2.516,5.794
			c1.178,4.079,1.814,8.389,1.814,12.845C94.622,156.565,86.124,170.943,73.319,179.184z"/>
		<path fill="#F9676C" d="M87.501,128.23c-0.187-0.508-0.374-0.942-0.544-1.296c-0.18-0.57-0.377-1.143-0.593-1.714
			c-0.588-1.567-1.241-2.876-1.881-3.947c-0.207-0.466-0.67-1.342-1.696-2.98c-2.004-3.206-2.661-5.037-8.672-10.704
			c-6.007-5.664-13.763-7.781-16.741-8.269c-2.976-0.488-6.782-0.859-11.132-0.173c-3.977,0.627-6.54,1.495-6.952,1.64
			c-3.212,0.627-8.77,2.283-12.995,4.685c-4.378,2.493-6.323,4.436-7.957,6.156c-1.63,1.714-4.979,5.952-6.667,10.758
			c-1.262,3.592-1.501,5.222-1.54,5.815c-1.223,3.875-1.842,7.91-1.842,12.038c0,4.373,0.694,8.643,2.063,12.723
			c-0.04,0.291-0.081,0.776,0.059,0.817c0.085,0.026,0.165,0.024,0.229,0.014c0.246,0.683,0.512,1.364,0.797,2.036
			c2.016,4.771,4.903,9.055,8.583,12.729c3.678,3.68,7.959,6.567,12.73,8.583c3.355,1.421,6.85,2.363,10.44,2.823
			c1.446,0.251,6.375,0.892,13.782-0.373c2.62-0.445,5.047-1.192,7.284-2.134c1.357-0.338,4.223-1.083,5.837-1.706
			c2.168-0.837,3.241-1.223,3.605-1.59c0.367-0.364,0.216-0.384-0.214-0.19c-0.428,0.19-3.562,1.543-5.709,2.145
			c-0.571,0.157-1.067,0.296-1.489,0.406c4.43-2.198,8.038-5.099,10.833-7.72c4.55-4.263,7.469-9.988,8.701-12.733
			c0.565-1.267,1.26-3.247,1.847-5.54c0.33-0.776,0.869-2.034,1.101-2.507c0.343-0.708,0.75-1.891,0.536-2
			c-0.213-0.106-0.236,0.218-0.536,0.949c-0.182,0.438-0.435,1.022-0.605,1.411c0.437-2.123,0.736-4.392,0.747-6.536
			c0.019-3.422-0.15-6.925-0.835-10.502c0.333,1.073,0.898,3.029,1.229,5.023c0.495,2.96,0.536,2.487,0.688,2.275
			c0.15-0.217-0.365-2.578-0.752-4.402C88.855,132.418,88.167,130.033,87.501,128.23z M55.857,99.404
			c4.207,0.49,8.986,2.321,11.676,3.865c2.69,1.548,6.554,4.292,9.502,7.615c2.135,2.402,3.774,4.808,4.516,5.946
			c-1.245-1.771-3.696-4.79-5.66-6.979c-2.033-2.262-7.384-5.468-10.073-6.583c-2.691-1.116-5.61-2.231-9.274-2.745
			c-3.662-0.518-6.61-0.629-6.61-0.629l0.339,0.059c-1.24-0.039-2.765-0.046-4.305,0.013C47.405,99.729,52.306,98.996,55.857,99.404
			z M77.549,112.16c-1.579-1.685-3.463-3.523-6.323-5.457c-2.789-1.881-5.447-3.104-8.047-4.113c1.036,0.34,2.842,0.989,4.384,1.825
			c2.317,1.258,5.781,3.348,8.213,5.837C76.54,111.035,77.117,111.663,77.549,112.16z M14.133,118.008
			c1.373-2.316,3.406-5.61,6.983-8.556c3.577-2.948,6.24-4.093,8.729-5.294c1.162-0.564,2.639-1.069,3.881-1.447
			c-1.849,0.788-4.327,1.988-6.236,3.05c-2.897,1.607-5.108,3.133-5.365,3.283c-0.257,0.151-0.351,0.579,0.48,0.065
			c0.653-0.408,2.251-1.383,2.896-1.775c-1.948,1.352-3.779,2.887-5.479,4.587c-3.68,3.679-6.567,7.962-8.583,12.729
			c-0.075,0.174-0.146,0.35-0.216,0.523C11.693,123.422,13,119.918,14.133,118.008z M48.342,179.775
			c-0.305,0-0.606-0.003-0.909-0.012c-1.372-0.181-5.573-0.75-7.287-1.201c-2.059-0.546-6.094-1.832-8.041-2.633
			c-1.944-0.802-2.832-1.144-3.892-1.774c-1.059-0.628-4.292-2.832-6.209-4.691c-1.919-1.863-4.923-5.098-6.525-7.729
			c-1.603-2.633-3.864-6.809-4.666-9.985c-0.679-2.696-1.152-4.958-1.315-7.331c0.379,1.411,1.415,5.212,1.946,6.644
			c0.66,1.773,2.174,5.896,3.978,8.873c1.803,2.975,3.576,5.463,4.835,6.81c1.261,1.345,3.465,3.777,7.357,6.354
			c3.891,2.575,7.927,4.093,11.56,4.919c3.634,0.833,7.985,1.262,11.162,1.262c2.311,0,5.062-0.257,6.387-0.397
			C54.022,179.467,51.216,179.775,48.342,179.775z M87.195,141.761c-0.028,3.215-0.3,6.872-0.636,8.616
			c-0.628,2.364-1.469,4.645-2.503,6.813c-0.509,0.969-1.389,2.545-2.606,4.332c-2.018,2.963-3.5,4.872-3.5,4.872l0.059-0.048
			c-4.826,5.479-11.141,9.612-18.309,11.767c-4.056,0.64-8.792,1.009-14.515,0.507c-6.24-0.542-10.16-2.146-11.878-2.861
			c-1.716-0.715-6.467-2.92-10.332-6.781c-3.861-3.862-6.352-7.554-8.297-11.19c-1.948-3.633-3.491-8.7-3.92-10.103
			c-0.336-1.093-1.035-3.87-1.328-5.044c-0.058-2.807-0.141-6.442,0.183-9.064c0.343-2.776,2.259-9.241,4.463-12.733
			c2.204-3.493,3.464-5.438,5.552-7.698c0.261-0.283,0.48-0.524,0.662-0.737c7.169-7.224,17.098-11.703,28.052-11.703
			c16.621,0,30.88,10.315,36.718,24.879c0.229,0.937,0.831,3.417,1.305,5.59C86.965,133.92,87.222,138.298,87.195,141.761z
			 M87.394,146.422c0-0.247,0-0.474,0-0.656c0-1.258,0.432-5.494,0.058-8.899c-0.319-2.929-0.45-4.42-0.751-6.216
			c0.767,3.071,1.175,6.284,1.175,9.589C87.875,142.344,87.711,144.407,87.394,146.422z"/>
	</g>
</g>
</svg>
