<svg xmlns="http://www.w3.org/2000/svg" width="614" height="406.399"><g fill="none"><path clip-rule="evenodd" stroke="#000" stroke-miterlimit="10" d="M152.747 80.099v5.01l63.509-.81v2.79l103.591-.78v24.84h35.459v-4.41h-31.26v-58.89h-4.199v20.82h-10.83v9.63h-41.071v-26.46h-3.989v25.05h-99.991v-50.7h17.64v-6.21h82.351v4.02h60.089v-3.6h167.491l1.649 64.71h14.82v.78h6.571v-76.8h-23.04v6.9H163.966v-6.9h-8.009v59.49l-18.42.24v11.49z"/><path d="M152.747 80.099v5.01l63.509-.81v2.79l103.591-.78v24.84h35.459v-4.41h-31.26v-58.89h-4.199v20.82h-10.83v9.63h-41.071v-26.46h-3.989v25.05h-99.991v-50.7h17.64v-6.21h82.351v4.02h60.089v-3.6h167.491l1.649 64.71h14.82v.78h6.571v-76.8h-23.04v6.9H163.966v-6.9h-8.009v59.49l-18.42.24v11.49z"/><path clip-rule="evenodd" stroke="#000" stroke-miterlimit="10" d="M118.307 166.229v-8.82h-17.85v-88.08l-15.811.21v10.77h7.8v77.1h-7.8v16.44h77.13v192.12h-22.44v22.83h61.29v-8.01h-.779v-14.82h-28.051v-192.12h33.241v-4.41h-24.841v-12.03h-13.619v8.82z"/><path d="M118.307 166.229v-8.82h-17.85v-88.08l-15.811.21v10.77h7.8v77.1h-7.8v16.44h77.13v192.12h-22.44v22.83h61.29v-8.01h-.779v-14.82h-28.051v-192.12h33.241v-4.41h-24.841v-12.03h-13.619v8.82z"/><path clip-rule="evenodd" stroke="#000" stroke-miterlimit="10" d="M295.396 380.789h-.81v8.01h70.321v-8.01h-.811v-14.82h-38.46v-177.51h31.651v-11.82h-32.85v-19.41h-14.011v12.21h-36.059v4.41h19.829v6.6h27.841v185.52h-26.641z"/><path d="M295.396 380.789h-.81v8.01h70.321v-8.01h-.811v-14.82h-38.46v-177.51h31.651v-11.82h-32.85v-19.41h-14.011v12.21h-36.059v4.41h19.829v6.6h27.841v185.52h-26.641z"/><path clip-rule="evenodd" stroke="#000" stroke-miterlimit="10" d="M458.476 388.799h56.101v-213.54h-6.571v.78H392.747v-69.3h-2.58v81.72h4.799v-6.6l63.901.39v6.21h32.849v177.51h-32.46v14.82h-.78z"/><path d="M458.476 388.799h56.101v-213.54h-6.571v.78H392.747v-69.3h-2.58v81.72h4.799v-6.6l63.901.39v6.21h32.849v177.51h-32.46v14.82h-.78zM236.296 173.849h6.81M243.106 169.439h-6.81"/><path clip-rule="evenodd" stroke="#000" stroke-miterlimit="10" d="M236.296 173.849h6.81v-4.41h-6.81"/><path stroke="#000" stroke-width="1.71" stroke-linecap="round" stroke-linejoin="round" stroke-miterlimit="10" d="M324.046 20.399h167.491l1.649 64.71M508.006 176.039H392.747v-69.3M324.046 20.399v3.6M324.046 106.739h31.26M324.046 23.999h-60.089M324.046 47.849h-4.199v20.82M324.046 47.849v58.89M355.306 106.739v4.41M319.847 111.149h35.459M390.167 106.739h2.58M309.017 78.299h-41.071M267.946 51.839v26.46M263.957 51.839v25.05M267.946 51.839h-3.989M309.017 68.669v9.63M319.847 68.669h-10.83M163.966 26.189v50.7M263.957 19.979h-82.351M263.957 23.999v-4.02M263.957 76.889h-99.991M181.606 26.189h-17.64M181.606 19.979v6.21"/><path stroke="#000" stroke-width=".27" stroke-linecap="round" stroke-linejoin="round" stroke-miterlimit="10" d="M163.966 68.669h2.401M168.376 68.669h4.02M174.376 68.669h4.02M180.407 68.669h3.989M186.407 68.669h4.019M192.407 68.669h4.019M198.437 68.669h3.989M204.437 68.669h4.02M210.466 68.669h3.991M216.466 68.669h3.991M222.466 68.669h4.02M228.497 68.669h3.989M234.497 68.669h3.989M240.497 68.669h4.02M246.526 68.669h3.991M252.526 68.669h3.991M258.526 68.669h4.02M264.557 68.669h3.989M270.557 68.669h3.989M276.557 68.669h4.02M282.586 68.669h3.991M288.586 68.669h3.991M294.586 68.669h4.02M300.617 68.669h3.989M306.617 68.669h2.4"/><path stroke="#000" stroke-width="1.71" stroke-linecap="round" stroke-linejoin="round" stroke-miterlimit="10" d="M171.796 173.849v192.12h28.051M322.037 365.969v-185.52M171.796 173.849h33.241M205.037 169.439v4.41M236.296 169.439v4.41M243.106 169.439v4.41M274.367 169.439v4.41"/><path stroke="#000" stroke-width=".36" stroke-linecap="round" stroke-linejoin="round" stroke-miterlimit="10" d="M204.646 168.629h2.011v6.03h-2.611v-.81h1.801v-4.41h-1.201z"/><path stroke="#000" stroke-width=".36" stroke-linecap="round" stroke-linejoin="round" stroke-miterlimit="10" d="M205.847 173.849h-.81v-4.41h.81l-.81 4.41h.81l-.81-4.41M235.486 173.849h.81v-4.41h-.81l.81 4.41h-.81l.81-4.41"/><path stroke="#000" stroke-width=".36" stroke-linecap="round" stroke-linejoin="round" stroke-miterlimit="10" d="M236.687 168.629h-1.98v6.03h2.58v-.81h-1.801v-4.41h1.201zM233.086 174.659h1.62v28.05h-1.62zM206.657 174.659l.059.69.451 2.85.089.33M208.247 182.009l.089.33.63 1.59.151.3M210.736 187.469l1.08 1.74.21.27M214.216 192.329l.48.51.211.27.719.72.241.27M218.597 196.469l1.65 1.2.299.18M223.667 199.679l1.229.6.96.39M229.247 201.869l1.379.36.36.06.33.09 1.77.33M274.756 168.629h-2.009v6.03h2.609v-.81h-1.799v-4.41h1.199z"/><path stroke="#000" stroke-width=".36" stroke-linecap="round" stroke-linejoin="round" stroke-miterlimit="10" d="M273.557 173.849h.81v-4.41h-.81l.81 4.41h-.81l.81-4.41M243.917 173.849h-.811v-4.41h.811l-.811 4.41h.811l-.811-4.41"/><path stroke="#000" stroke-width=".36" stroke-linecap="round" stroke-linejoin="round" stroke-miterlimit="10" d="M242.716 168.629h1.98v6.03h-2.579v-.81h1.8v-4.41h-1.201z"/><path stroke="#000" stroke-width=".36" stroke-linecap="round" stroke-linejoin="round" stroke-miterlimit="10" d="M244.696 173.039h28.05v1.62h-28.05z"/><path stroke="#000" stroke-width="1.71" stroke-linecap="round" stroke-linejoin="round" stroke-miterlimit="10" d="M274.367 169.439h36.059M274.367 173.849h19.829v6.6h27.841M236.296 169.439h6.81M236.296 173.849h6.81"/><path stroke="#000" stroke-width=".27" stroke-linecap="round" stroke-linejoin="round" stroke-miterlimit="10" d="M236.296 169.439h-2.609M231.676 169.439h-3.989M225.676 169.439h-4.019M219.676 169.439h-4.019M213.646 169.439h-3.989M207.646 169.439h-2.609M205.037 173.849h2.609M209.657 173.849h3.989M215.657 173.849h4.019M221.657 173.849h4.019M227.687 173.849h3.989M233.687 173.849h2.609M243.106 169.439h2.61M247.727 169.439h3.989M253.727 169.439h3.989M259.727 169.439h4.02M265.756 169.439h3.991M271.756 169.439h2.611M274.367 173.849h-2.611M269.747 173.849h-3.991M263.747 173.849h-4.02M257.716 173.849h-3.989M251.716 173.849h-3.989M245.716 173.849h-2.61"/><path stroke="#000" stroke-width="1.71" stroke-linecap="round" stroke-linejoin="round" stroke-miterlimit="10" d="M199.847 365.969v14.82M139.336 388.799h61.29M199.847 380.789h.779v8.01M295.396 365.969v14.82h-.81v8.01M295.396 365.969h26.641M294.586 388.799h70.321"/><path stroke="#000" stroke-width=".51" stroke-linecap="round" stroke-linejoin="round" stroke-miterlimit="10" d="M199.037 365.969v-2.79h97.17v2.79"/><path stroke="#000" stroke-width=".27" stroke-linecap="round" stroke-linejoin="round" stroke-miterlimit="10" d="M199.847 365.969h4.71M206.537 365.969h4.02M212.566 365.969h3.991M218.566 365.969h4.02M224.566 365.969h4.02M230.597 365.969h3.989M236.597 365.969h4.02M242.597 365.969h4.02M248.626 365.969h3.991M254.626 365.969h4.02M260.626 365.969h4.02M266.657 365.969h3.989M272.657 365.969h4.019M278.657 365.969h4.019M284.687 365.969h3.989M290.687 365.969h4.709M200.626 388.799h3.931M206.537 388.799h4.02M212.566 388.799h3.991M218.566 388.799h4.02M224.566 388.799h4.02M230.597 388.799h3.989M236.597 388.799h4.02M242.597 388.799h4.02M248.626 388.799h3.991M254.626 388.799h4.02M260.626 388.799h4.02M266.657 388.799h3.989M272.657 388.799h4.019M278.657 388.799h4.019M284.687 388.799h3.989M290.687 388.799h3.899"/><path stroke="#000" stroke-width="1.71" stroke-linecap="round" stroke-linejoin="round" stroke-miterlimit="10" d="M325.636 365.969h38.46M325.636 365.969v-177.51h31.651M491.716 188.459v177.51M100.457 157.409h17.85M100.457 69.329v88.08M118.307 157.409v8.82h48.27M166.577 157.409v8.82M166.577 157.409h13.619v12.03h24.841M310.426 169.439v-12.21h14.011M324.437 176.639v-19.41M324.437 176.639h32.85M152.747 85.109l63.509-.81"/><path stroke="#000" stroke-width=".27" stroke-linecap="round" stroke-linejoin="round" stroke-miterlimit="10" d="M100.457 85.709l4.109-.06M106.577 85.619l4.02-.09M112.577 85.499l4.02-.06M118.606 85.409l3.991-.06M124.606 85.319l4.02-.06M130.606 85.229l4.02-.06M136.637 85.139l3.989-.06M142.637 85.049l4.02-.06M148.637 84.959l4.11-.06"/><path stroke="#000" stroke-width="1.71" stroke-linecap="round" stroke-linejoin="round" stroke-miterlimit="10" d="M357.287 176.639v11.82M390.167 106.739v81.72h4.799M390.167 184.079v4.38"/><path stroke="#000" stroke-width=".36" stroke-linecap="round" stroke-linejoin="round" stroke-miterlimit="10" d="M390.167 183.269h-1.201v6h3.991v-.81h-3.21v-4.38h.42z"/><path stroke="#000" stroke-width=".36" stroke-linecap="round" stroke-linejoin="round" stroke-miterlimit="10" d="M389.747 188.459h.42v-4.38h-.42l.42 4.38h-.42l.42-4.38M360.107 188.459h-2.221v-4.38h2.221l-2.221 4.38h2.221l-2.221-4.38"/><path stroke="#000" stroke-width=".36" stroke-linecap="round" stroke-linejoin="round" stroke-miterlimit="10" d="M357.497 183.269h3.42v6h-4.02v-.81h3.21v-4.38h-2.61zM360.917 189.269h1.59v28.05h-1.59z"/><path stroke="#000" stroke-width=".36" stroke-linecap="round" stroke-linejoin="round" stroke-miterlimit="10" d="M362.506 217.319l2.55-.6 1.08-.33M369.497 215.129l1.86-.9.3-.18M374.747 212.189l.839-.57 1.081-.84M379.367 208.379l.509-.48.93-.99.21-.27M383.266 203.819l1.29-2.04M386.237 198.599l.149-.3.12-.33.151-.3.51-1.29M388.247 192.929l.179-.72.54-2.94"/><path stroke="#000" stroke-width=".27" stroke-linecap="round" stroke-linejoin="round" stroke-miterlimit="10" d="M390.167 188.459h-3.121M385.037 188.459h-3.991M379.037 188.459h-4.021M373.037 188.459h-4.021M367.006 188.459h-3.99M361.006 188.459h-3.12"/><path stroke="#000" stroke-width="1.71" stroke-linecap="round" stroke-linejoin="round" stroke-miterlimit="10" d="M458.867 182.249v6.21M394.966 181.859l63.901.39M394.966 181.859v6.6M458.867 188.459h32.849"/><path stroke="#000" stroke-width=".27" stroke-linecap="round" stroke-linejoin="round" stroke-miterlimit="10" d="M458.867 188.459h-3.901M452.957 188.459h-3.991M446.957 188.459h-4.021M440.926 188.459h-3.99M434.926 188.459h-3.99M428.926 188.459h-4.019M422.897 188.459h-3.99M416.897 188.459h-3.99M410.897 188.459h-4.021M404.867 188.459h-3.991M398.867 188.459h-3.901M310.426 169.439v4.11M310.426 175.559v3.99M310.426 181.559v4.02M310.426 187.559v4.02M310.426 193.589v3.99M310.426 199.589v4.02M310.426 205.589v4.02M310.426 211.619v3.99M310.426 217.619v4.02M310.426 223.619v4.02M310.426 229.649v3.99M310.426 235.649v4.019M310.426 241.649v4.019M310.426 247.679v3.989M310.426 253.679v4.02M310.426 259.679v4.02M310.426 265.708v3.991M310.426 271.708v4.021M310.426 277.708v4.021M310.426 283.739v3.99M310.426 289.739v4.02M310.426 295.739v4.02M310.426 301.769v3.99M310.426 307.769v4.02M310.426 313.769v4.02M310.426 319.799v3.99M310.426 325.799v4.02M310.426 331.799v4.02M310.426 337.829v3.99M310.426 343.829v4.02M310.426 349.829v4.02M310.426 355.859v3.99M310.426 361.859v4.11M357.287 176.639h3.42M362.716 176.639h3.991M368.716 176.639h4.021M374.716 176.639h4.021M380.747 176.639h3.99M386.747 176.639h3.42"/><path stroke="#000" stroke-width="1.71" stroke-linecap="round" stroke-linejoin="round" stroke-miterlimit="10" d="M319.847 86.309v24.84"/><path stroke="#000" stroke-width=".27" stroke-linecap="round" stroke-linejoin="round" stroke-miterlimit="10" d="M324.437 157.229v-4.02M324.437 151.199v-3.99M324.437 145.199v-4.02M324.437 139.199v-4.02M324.437 133.169v-3.99M324.437 127.169v-4.02M324.437 121.169v-4.02M324.437 115.139v-3.99M319.847 111.149v3.99M319.847 117.149v4.02M319.847 123.149v4.02M319.847 129.179v3.99M319.847 135.179v4.02M319.847 141.179v4.02M319.847 147.209v3.99M319.847 153.209v4.02M310.426 157.229h-4.019M304.396 157.229h-3.989M298.396 157.229h-3.989M292.396 157.259h-4.02M286.367 157.259h-3.991M280.367 157.259h-3.991M274.367 157.289h-4.02M268.336 157.289h-3.989M262.336 157.289h-3.989M256.336 157.289l-4.02.03M250.307 157.319h-3.991M244.307 157.319h-3.991M238.307 157.319l-4.02.03M232.276 157.349h-3.989M226.276 157.349h-3.989M220.276 157.349h-4.02M214.247 157.379h-3.991M208.247 157.379h-4.02M202.247 157.379h-4.02M196.216 157.409h-3.989M190.216 157.409h-4.02M184.216 157.409h-4.02M166.577 157.409h-2.1M162.466 157.409h-3.989M156.466 157.409h-4.02M150.437 157.409h-3.991M144.437 157.409h-3.991M138.437 157.409h-4.02M132.407 157.409h-3.99M126.407 157.409h-3.99M120.407 157.409h-2.1"/><path stroke="#000" stroke-width="1.71" stroke-linecap="round" stroke-linejoin="round" stroke-miterlimit="10" d="M216.256 87.089l103.591-.78M152.747 80.099v5.01M216.256 87.089v-2.79M137.537 80.309l15.21-.21M137.537 68.819v11.49"/><path stroke="#000" stroke-width=".27" stroke-linecap="round" stroke-linejoin="round" stroke-miterlimit="10" d="M310.426 157.229l-.059-2.43M310.336 152.819l-.06-4.02M310.247 146.789l-.09-3.99M310.126 140.789l-.06-4.02M310.006 134.789l-.06-4.02M309.917 128.759l-.061-3.99M309.796 122.759l-.06-3.99M309.707 116.759l-.09-4.02M309.586 110.729l-.06-3.99M309.497 104.729l-.09-3.99M309.376 98.729l-.06-4.02M309.287 92.729l-.091-4.02M309.167 86.699l-.061-3.99M309.046 80.699l-.029-2.4"/><path stroke="#000" stroke-width="1.71" stroke-linecap="round" stroke-linejoin="round" stroke-miterlimit="10" d="M84.646 69.539l15.811-.21M137.537 68.819l18.42-.24M364.096 365.969v14.82h.811v8.01M459.256 365.969v14.82h-.78v8.01"/><path stroke="#000" stroke-width=".51" stroke-linecap="round" stroke-linejoin="round" stroke-miterlimit="10" d="M363.317 365.969v-2.79h96.75v2.79"/><path stroke="#000" stroke-width=".27" stroke-linecap="round" stroke-linejoin="round" stroke-miterlimit="10" d="M364.096 365.969h4.53M370.607 365.969h4.019M376.636 365.969h3.99M382.636 365.969h4.021M388.636 365.969h4.021M394.667 365.969h3.99M400.667 365.969h4.019M406.697 365.969h3.989M412.697 365.969h3.989M418.697 365.969h4.019M424.726 365.969h3.99M430.726 365.969h3.99M436.726 365.969h4.021M442.756 365.969h3.991M448.756 365.969h3.991M454.756 365.969h4.5M364.907 388.799h3.719M370.607 388.799h4.019M376.636 388.799h3.99M382.636 388.799h4.021M388.636 388.799h4.021M394.667 388.799h3.99M400.667 388.799h4.019M406.697 388.799h3.989M412.697 388.799h3.989M418.697 388.799h4.019M424.726 388.799h3.99M430.726 388.799h3.99M436.726 388.799h4.021M442.756 388.799h3.991M448.756 388.799h3.991M454.756 388.799h3.72"/><path stroke="#000" stroke-width="1.71" stroke-linecap="round" stroke-linejoin="round" stroke-miterlimit="10" d="M459.256 365.969h32.46M458.476 388.799h56.101"/><path stroke="#000" stroke-width=".27" stroke-linecap="round" stroke-linejoin="round" stroke-miterlimit="10" d="M459.256 371.969h-1.979M455.266 371.969h-4.019M449.266 371.969h-4.019M443.237 371.969h-3.99M437.237 371.969h-4.021M431.237 371.969h-4.021M425.207 371.969h-3.991M419.207 371.969h-4.021M413.207 371.969h-4.021M407.176 371.969h-3.99M401.176 371.969h-2.009v4.41M399.167 378.389v4.02M399.167 384.389v4.41"/><path stroke="#000" stroke-width="1.71" stroke-linecap="round" stroke-linejoin="round" stroke-miterlimit="10" d="M514.577 9.089v76.8M163.966 15.989h327.571v-6.9"/><path stroke="#000" stroke-width=".15" stroke-linecap="round" stroke-linejoin="round" stroke-miterlimit="10" d="M521.897 9.089h-4.44M513.436 9.089h-8.01M501.436 9.089h-8.039M489.407 9.089h-8.01M477.376 9.089h-8.009M465.376 9.089h-8.04M453.346 9.089h-8.01M441.317 9.089h-8.011M429.317 9.089h-8.04M417.287 9.089h-8.01M405.256 9.089h-8.009M393.226 9.089h-8.01M381.226 9.089h-8.01M369.197 9.089h-8.011M357.167 9.089h-8.01M345.167 9.089h-8.01M333.136 9.089h-8.01M321.106 9.089h-8.009M309.106 9.089h-8.009M297.077 9.089h-8.011M285.046 9.089h-8.009M273.046 9.089h-8.009M261.017 9.089h-8.011M248.986 9.089h-8.009M236.986 9.089h-8.009M224.957 9.089h-8.011M212.926 9.089h-8.009M200.926 9.089h-8.009M188.896 9.089h-8.01M176.867 9.089h-8.011M164.867 9.089h-8.011M152.836 9.089h-4.44"/><path stroke="#000" stroke-width="1.71" stroke-linecap="round" stroke-linejoin="round" stroke-miterlimit="10" d="M155.957 9.089v59.49M163.966 15.989v-6.9M161.776 173.849v192.12M161.776 173.849h-77.13M92.446 80.309v77.1h-7.8"/><path stroke="#000" stroke-width=".15" stroke-linecap="round" stroke-linejoin="round" stroke-miterlimit="10" d="M84.646 179.849v-7.92M84.646 167.939v-8.01M84.646 155.909v-8.01M84.646 143.879v-8.01M84.646 131.879v-8.01M84.646 119.849v-8.01M84.646 107.819v-8.01M84.646 95.819v-8.01M84.646 83.789v-8.01M84.646 71.759v-8.01M84.646 59.759v-7.92"/><path stroke="#000" stroke-width="1.71" stroke-linecap="round" stroke-linejoin="round" stroke-miterlimit="10" d="M92.446 80.309h-7.8M161.776 365.969h-22.44"/><path stroke="#000" stroke-width=".15" stroke-linecap="round" stroke-linejoin="round" stroke-miterlimit="10" d="M139.336 404.309v-4.05M139.336 396.269v-8.01M139.336 384.239v-8.01M139.336 372.208v-8.009M139.336 360.208v-8.009M139.336 348.179v-4.05"/><path stroke="#000" stroke-width="1.71" stroke-linecap="round" stroke-linejoin="round" stroke-miterlimit="10" d="M319.847 86.309v20.43M508.006 85.109h-14.82M508.006 176.039v-.78h6.571M508.006 85.109v.78h6.571M514.577 175.259v213.54"/><path stroke="#000" stroke-width=".27" stroke-linecap="round" stroke-linejoin="round" stroke-miterlimit="10" d="M514.577 175.259v-4.62M514.577 168.629v-3.99M514.577 162.629v-4.02M514.577 156.629v-4.02M514.577 150.599v-3.99M514.577 144.599v-4.02M514.577 138.599v-4.02M514.577 132.569v-3.99M514.577 126.569v-4.02M514.577 120.569v-4.02M514.577 114.539v-3.99M514.577 108.539v-4.02M514.577 102.539v-4.02M514.577 96.509v-3.99M514.577 90.509v-4.62M493.186 85.109l.03 2.4M493.216 89.519l.031 3.99M493.277 95.519l.029 3.99M493.336 101.519l.031 4.02M493.367 107.549l.03 3.99M493.426 113.549l.031 3.99M493.457 119.549l.059 4.02M493.516 125.579l.03 3.99M493.577 131.579l.029 3.99M493.606 137.579l.03 4.02M493.667 143.609l.03 3.99M493.726 149.609l.03 3.99M493.756 155.609l.031 4.02M493.817 161.639l.029 3.99M493.846 167.639l.061 3.99M493.907 173.639l.029 2.4M199.847 371.969h4.71M206.537 371.969h4.02M212.566 371.969h3.991M218.566 371.969h4.02M224.566 371.969h4.02M230.597 371.969h3.989M236.597 371.969h4.02M242.597 371.969h4.02M248.626 371.969h3.991M254.626 371.969h4.02M260.626 371.969h4.02M266.657 371.969h3.989M272.657 371.969h4.019M278.657 371.969h4.019M284.687 371.969h3.989M290.687 371.969h4.709M498.796 85.109l.031 2.4M498.827 89.519l.029 3.99M498.886 95.519l.031 3.99M498.947 101.519l.029 4.02M498.976 107.549l.03 3.99M499.037 113.549l.03 3.99M499.067 119.549l.059 4.02M499.126 125.579l.031 3.99M499.186 131.579l.03 3.99M499.216 137.579l.031 4.02M499.277 143.609l.029 3.99M499.336 149.609l.031 3.99M499.367 155.609l.03 4.02M499.426 161.639l.031 3.99M499.457 167.639l.059 3.99M499.516 173.639l.03 2.4"/><path stroke="#000" stroke-width=".51" stroke-linecap="round" stroke-linejoin="round" stroke-miterlimit="10" d="M493.157 84.299h-2.79l.75 91.83"/><path stroke="#000" stroke-width=".36" stroke-linecap="round" stroke-linejoin="round" stroke-miterlimit="10" d="M263.716 380.069v.72h-1.59M262.907 377.249h2.82v2.82h-2.82zM292.577 380.069v.72h2.819v-2.79h-2.01"/><path stroke="#000" stroke-width=".36" stroke-linecap="round" stroke-linejoin="round" stroke-miterlimit="10" d="M290.597 377.249h2.79v2.82h-2.79z"/><path stroke="#000" stroke-width=".27" stroke-linecap="round" stroke-linejoin="round" stroke-miterlimit="10" d="M265.727 380.069h24.87M290.597 377.249h-24.87M265.727 378.659h24.87"/><path stroke="#000" stroke-width=".36" stroke-linecap="round" stroke-linejoin="round" stroke-miterlimit="10" d="M234.707 380.069v.72h-1.59M233.926 377.249h2.79v2.82h-2.79zM260.506 380.069v.72h1.62M258.497 377.249h2.82v2.82h-2.82z"/><path stroke="#000" stroke-width=".27" stroke-linecap="round" stroke-linejoin="round" stroke-miterlimit="10" d="M236.716 380.069h21.781M258.497 377.249h-21.781M236.716 378.659h21.781"/><path stroke="#000" stroke-width=".36" stroke-linecap="round" stroke-linejoin="round" stroke-miterlimit="10" d="M202.636 380.069v.72h-2.789v-2.79h1.98"/><path stroke="#000" stroke-width=".36" stroke-linecap="round" stroke-linejoin="round" stroke-miterlimit="10" d="M201.827 377.249h2.82v2.82h-2.82zM231.526 380.069v.72h1.591M229.517 377.249h2.79v2.82h-2.79z"/><path stroke="#000" stroke-width=".27" stroke-linecap="round" stroke-linejoin="round" stroke-miterlimit="10" d="M204.646 380.069h24.871M229.517 377.249h-24.871M204.646 378.659h24.871"/><path stroke="#000" stroke-width=".36" stroke-linecap="round" stroke-linejoin="round" stroke-miterlimit="10" d="M430.817 380.069v.72h-1.591M430.006 377.249h2.82v2.82h-2.82zM457.667 380.069v.72h1.589v-2.79h-.78"/><path stroke="#000" stroke-width=".36" stroke-linecap="round" stroke-linejoin="round" stroke-miterlimit="10" d="M455.657 377.249h2.819v2.82h-2.819z"/><path stroke="#000" stroke-width=".27" stroke-linecap="round" stroke-linejoin="round" stroke-miterlimit="10" d="M432.827 380.069h22.83M455.657 377.249h-22.83M432.827 378.659h22.83"/><path stroke="#000" stroke-width=".36" stroke-linecap="round" stroke-linejoin="round" stroke-miterlimit="10" d="M400.787 380.069v.72h-1.62v-2.79h.809"/><path stroke="#000" stroke-width=".36" stroke-linecap="round" stroke-linejoin="round" stroke-miterlimit="10" d="M399.976 377.249h2.79v2.82h-2.79zM427.606 380.069v.72h1.62M425.626 377.249h2.79v2.82h-2.79z"/><path stroke="#000" stroke-width=".27" stroke-linecap="round" stroke-linejoin="round" stroke-miterlimit="10" d="M402.766 380.069h22.86M425.626 377.249h-22.86M402.766 378.659h22.86"/><path stroke="#000" stroke-width=".36" stroke-linecap="round" stroke-linejoin="round" stroke-miterlimit="10" d="M366.917 380.069v.72h-2.821v-2.79h2.011"/><path stroke="#000" stroke-width=".36" stroke-linecap="round" stroke-linejoin="round" stroke-miterlimit="10" d="M366.107 377.249h2.819v2.82h-2.819zM396.376 380.069v.72h2.791v-2.79h-2.01"/><path stroke="#000" stroke-width=".36" stroke-linecap="round" stroke-linejoin="round" stroke-miterlimit="10" d="M394.367 377.249h2.79v2.82h-2.79z"/><path stroke="#000" stroke-width=".27" stroke-linecap="round" stroke-linejoin="round" stroke-miterlimit="10" d="M368.926 380.069h25.441M394.367 377.249h-25.441M368.926 378.659h25.441"/><path stroke="#000" stroke-width=".57" stroke-linecap="round" stroke-linejoin="round" stroke-miterlimit="10" d="M366.107 380.069v-2.52M366.107 375.569v-4.02M366.107 369.539v-3.99M366.107 363.539v-4.02M366.107 357.539v-4.02M366.107 351.509v-2.49M397.157 380.069v-1.02l-.09-1.35M396.857 375.719l-.33-1.98-.24-.96-.241-.99M395.447 369.899l-.571-1.56-.99-2.131M392.957 364.439l-1.441-2.25-.809-1.08M389.447 359.579l-1.861-1.95-.99-.9M385.067 355.469l-.54-.42-1.08-.75-1.71-1.08M379.966 352.289l-.899-.45-1.83-.78-.96-.33M374.386 350.129l-.66-.18-2.939-.6-.33-.03M368.476 349.109l-.689-.06-1.68-.03"/><path stroke="#000" stroke-width=".36" stroke-linecap="round" stroke-linejoin="round" stroke-miterlimit="10" d="M507.287 114.779h.719v1.59"/><path stroke="#000" stroke-width=".36" stroke-linecap="round" stroke-linejoin="round" stroke-miterlimit="10" d="M504.497 112.769h2.79v2.82h-2.79zM507.287 87.899h.719v-2.79h-2.79v1.98"/><path stroke="#000" stroke-width=".36" stroke-linecap="round" stroke-linejoin="round" stroke-miterlimit="10" d="M504.497 87.089h2.79v2.82h-2.79z"/><path stroke="#000" stroke-width=".27" stroke-linecap="round" stroke-linejoin="round" stroke-miterlimit="10" d="M507.287 112.769v-22.86M504.497 89.909v22.86M505.876 112.769v-22.86"/><path stroke="#000" stroke-width=".36" stroke-linecap="round" stroke-linejoin="round" stroke-miterlimit="10" d="M507.287 143.159h.719v1.62"/><path stroke="#000" stroke-width=".36" stroke-linecap="round" stroke-linejoin="round" stroke-miterlimit="10" d="M504.497 141.179h2.79v2.79h-2.79zM507.287 117.989h.719v-1.62"/><path stroke="#000" stroke-width=".36" stroke-linecap="round" stroke-linejoin="round" stroke-miterlimit="10" d="M504.497 117.179h2.79v2.79h-2.79z"/><path stroke="#000" stroke-width=".27" stroke-linecap="round" stroke-linejoin="round" stroke-miterlimit="10" d="M507.287 141.179v-21.21M504.497 119.969v21.21M505.876 141.179v-21.21"/><path stroke="#000" stroke-width=".36" stroke-linecap="round" stroke-linejoin="round" stroke-miterlimit="10" d="M507.287 173.249h.719v2.79h-2.79v-1.98"/><path stroke="#000" stroke-width=".36" stroke-linecap="round" stroke-linejoin="round" stroke-miterlimit="10" d="M504.497 171.239h2.79v2.82h-2.79zM507.287 146.369h.719v-1.59"/><path stroke="#000" stroke-width=".36" stroke-linecap="round" stroke-linejoin="round" stroke-miterlimit="10" d="M504.497 145.559h2.79v2.82h-2.79z"/><path stroke="#000" stroke-width=".27" stroke-linecap="round" stroke-linejoin="round" stroke-miterlimit="10" d="M507.287 171.239v-22.86M504.497 148.379v22.86M505.876 171.239v-22.86"/><path stroke="#000" stroke-width=".36" stroke-linecap="round" stroke-linejoin="round" stroke-miterlimit="10" d="M505.216 116.369v.81M505.216 116.369v-.78M505.216 144.779v-.81M505.216 144.779v.78M429.226 377.999h.78M429.226 377.999h-.809M262.126 377.999h-.81M262.126 377.999h.781M233.117 377.999h-.81M233.117 377.999h.809"/><path stroke="#000" stroke-width=".27" stroke-linecap="round" stroke-linejoin="round" stroke-miterlimit="10" d="M355.306 106.739h4.41M361.697 106.739h4.019M367.726 106.739h3.99M373.726 106.739h4.021M379.726 106.739h4.021M385.756 106.739h4.411M355.306 111.149h4.41M361.697 111.149h4.019M367.726 111.149h3.99M373.726 111.149h4.021M379.726 111.149h4.021M385.756 111.149h4.411"/><path stroke="#000" stroke-width=".36" stroke-linecap="round" stroke-linejoin="round" stroke-miterlimit="10" d="M102.167 80.309h-1.71v-4.8h1.71l-1.71 4.8h1.71l-1.71-4.8"/><path stroke="#000" stroke-width=".36" stroke-linecap="round" stroke-linejoin="round" stroke-miterlimit="10" d="M100.457 74.699h2.52v6.42h-2.52v-.81h1.71v-4.8h-1.71zM102.977 81.119h1.59v32.07h-1.59z"/><path stroke="#000" stroke-width=".36" stroke-linecap="round" stroke-linejoin="round" stroke-miterlimit="10" d="M104.566 113.189l1.38-.09h.33M109.847 112.589l1.02-.21 1.32-.36M115.577 110.849l.96-.39 1.23-.6M120.887 108.059l.3-.18.27-.21.299-.18 1.111-.84M125.566 104.309l.511-.48 1.17-1.26M129.466 99.719l1.29-2.04M132.376 94.469l.15-.3.12-.33.15-.3.48-1.29M134.267 88.769l.449-2.34M135.017 82.829l.029-1.02-.029-.33v-.36M135.827 80.309h1.71v-4.8h-1.71l1.71 4.8h-1.71l1.71-4.8"/><path stroke="#000" stroke-width=".36" stroke-linecap="round" stroke-linejoin="round" stroke-miterlimit="10" d="M137.537 74.699h-2.52v6.42h2.52v-.81h-1.71v-4.8h1.71z"/><path stroke="#000" stroke-width=".27" stroke-linecap="round" stroke-linejoin="round" stroke-miterlimit="10" d="M263.957 51.839v-3.9M263.957 45.929v-3.99M263.957 39.929v-4.02M263.957 33.899v-3.99M263.957 27.899v-3.9M267.946 51.839v-3.9M267.946 45.929v-3.99M267.946 39.929v-4.02M267.946 33.899v-3.99M267.946 27.899v-3.9"/><path stroke="#000" stroke-width="1.71" stroke-linecap="round" stroke-linejoin="round" stroke-miterlimit="10" d="M491.537 9.089h23.04M155.957 9.089h8.009M84.646 69.539v10.77M84.646 157.409v16.44M139.336 365.969v22.83"/><path stroke="#000" stroke-width=".57" stroke-linecap="round" stroke-linejoin="round" stroke-miterlimit="10" d="M120.287 150.209h44.28v16.02h-44.28zM120.287 150.209l44.279 16.02M120.287 166.229l44.279-16.02M217.066 97.919h102.781M217.066 96.719h102.781"/><path stroke="#000" stroke-width=".27" stroke-linecap="round" stroke-linejoin="round" stroke-miterlimit="10" d="M273.227 105.929l1.319-8.01M276.347 105.929l.96-8.01M281.356 88.709v8.01M284.867 88.709l.599 8.01M294.586 88.709l-1.739 8.01M300.077 88.709v8.01M296.896 88.709l.69 8.01M304.126 88.709l1.59 8.01M309.437 105.929v-8.01M288.287 105.929v-8.01M311.776 105.929l1.591-8.01M316.907 88.709v8.01M271.667 88.709v8.01M274.727 96.719l1.319-8.01M309.437 96.719v-8.01M292.577 97.919l-1.741 8.01M281.356 97.919v8.01M277.426 96.719l.96-8.01M285.557 97.919l.6 8.01M288.287 96.719v-8.01M300.077 97.919v8.01M305.957 97.919l1.56 8.01M271.667 97.919v8.01M313.606 96.719l1.59-8.01M297.676 97.919l.691 8.01M316.907 97.919v8.01"/><path stroke="#000" stroke-width=".57" stroke-linecap="round" stroke-linejoin="round" stroke-miterlimit="10" d="M216.256 87.089v24.06h103.591"/><path stroke="#000" stroke-width=".27" stroke-linecap="round" stroke-linejoin="round" stroke-miterlimit="10" d="M248.296 105.929l-1.319-8.01M245.146 105.929l-.93-8.01M240.167 88.709v8.01M236.657 88.709l-.6 8.01M226.937 88.709l1.739 8.01M221.417 88.709v8.01M224.626 88.709l-.689 8.01M233.236 105.929v-8.01M246.796 96.719l-1.319-8.01M228.946 97.919l1.741 8.01M240.167 97.919v8.01M244.066 96.719l-.93-8.01M235.966 97.919l-.599 8.01M233.236 96.719v-8.01M221.417 97.919v8.01M223.816 97.919l-.69 8.01M253.577 105.929l1.29-8.01M256.696 105.929l.961-8.01M261.707 88.709v8.01M265.216 88.709l.6 8.01M255.077 96.719l1.319-8.01M261.707 97.919v8.01M257.776 96.719l.96-8.01M265.907 97.919l.57 8.01M249.106 105.929l1.32-8.01M252.256 105.929l.931-8.01M250.606 96.719l1.32-8.01M253.336 96.719l.931-8.01"/><path stroke="#000" stroke-width=".57" stroke-linecap="round" stroke-linejoin="round" stroke-miterlimit="10" d="M217.066 87.089v23.25h102.781M160.126 85.019h56.1v18.03h-56.1zM238.097 192.089h83.13M238.097 190.889h83.13"/><path stroke="#000" stroke-width=".27" stroke-linecap="round" stroke-linejoin="round" stroke-miterlimit="10" d="M284.716 200.099l-1.32-8.01M281.566 200.099l-.93-8.01M276.586 182.849v8.04M273.077 182.849l-.6 8.04M263.327 182.849l1.77 8.04M257.836 182.849v8.04M261.046 182.849l-.69 8.04M253.816 182.849l-1.589 8.04M269.657 200.099v-8.01M246.136 200.099l-1.59-8.01M241.037 182.849v8.04M286.247 182.849v8.04M283.187 190.889l-1.291-8.04M265.367 192.089l1.739 8.01M276.586 192.089v8.01M280.486 190.889l-.929-8.04M272.386 192.089l-.599 8.01M269.657 190.889v-8.04M257.836 192.089v8.01M251.986 192.089l-1.59 8.01M286.247 192.089v8.01M244.336 190.889l-1.589-8.04M260.236 192.089l-.69 8.01M241.037 192.089v8.01M309.646 200.099l1.32-8.01M312.767 200.099l.96-8.01M317.776 182.849v8.04M311.146 190.889l1.32-8.04M317.776 192.089v8.01M313.847 190.889l.96-8.04M304.367 200.099l-1.321-8.01M301.216 200.099l-.929-8.01M296.236 182.849v8.04M292.727 182.849l-.601 8.04M302.867 190.889l-1.321-8.04M296.236 192.089v8.01M300.136 190.889l-.929-8.04M292.037 192.089l-.6 8.01M308.807 200.099l-1.29-8.01M305.687 200.099l-.931-8.01M307.307 190.889l-1.29-8.04M304.606 190.889l-.93-8.04"/><path stroke="#000" stroke-width=".57" stroke-linecap="round" stroke-linejoin="round" stroke-miterlimit="10" d="M237.287 180.449h84.75v24.06h-84.75z"/><path stroke="#000" stroke-width=".57" stroke-linecap="round" stroke-linejoin="round" stroke-miterlimit="10" d="M238.097 181.259h83.13v22.44h-83.13zM320.026 264.179v61.11h2.011v-80.13h-2.011v4.2M234.557 325.049l.329.119M234.287 324.869l.27.18M234.077 324.599l.21.27M240.557 245.249h-5.31l-.361.06-.329.12-.27.18-.21.24-.151.3-.03.3M234.886 325.168l.361.031h5.339M233.896 323.999l.03.33.151.27"/><path stroke="#000" stroke-width=".27" stroke-linecap="round" stroke-linejoin="round" stroke-miterlimit="10" d="M303.256 319.529l-.81.09M307.187 296.429l.149 1.529M307.486 321.059h-.029M307.157 296.339h0M297.796 317.819l.15.03M303.586 319.199l-2.58-1.65M297.196 321.449v.03M307.126 296.189l-.089-.12M299.626 318.869l-1.469-.87M297.196 321.479h.12M307.847 321.179h-.091M303.256 319.529l.181-.06M302.417 319.619l-1.621.48M307.966 321.149l-.119.03M307.876 320.759v-.66M297.946 317.849l.211.15M307.157 296.309v.03M297.287 317.429l.509.39M297.316 321.479l1.71-.54M300.136 319.139l-.51-.27M308.026 320.939l-.06.21M304.066 319.529l-.029.03M299.176 320.849l-.15.09M308.356 320.129l-.089.329M308.716 317.729l-.36 2.4M304.097 319.559h.029M307.457 321.059l-1.471-.72M301.517 319.319l-1.381-.18M301.006 317.549l-1.38-1.62M305.986 320.339l-1.5-.57M294.557 268.918l1.259 1.801M307.577 260.219l.059 1.32M294.557 268.918l-.091-6.659M306.736 255.269l.301 3.06M307.577 260.219l-.54-1.89M304.727 255.599l1.469-.96M306.736 255.149h0M306.707 254.969l-.09-.12M306.466 254.668l-.119-.029h-.151M296.057 254.759h0M297.557 255.599l-1.5-.84M306.617 254.849l-.151-.181M301.276 257.069h-.75M296.057 254.759h-.031M295.097 275.879l.719-5.16M306.736 255.119v.03M295.097 275.909v-.03M295.937 254.729l-.511.479M297.557 255.599l2.85 1.53M295.336 255.389l.09-.181M295.276 255.989l.06-.6M294.707 257.579l.569-1.59M304.457 255.779l.27-.18M294.376 259.439l.09 2.82M294.707 257.579l-.331 1.86M304.907 275.369l-.06-.3M304.907 275.369l-.06 1.11M305.236 303.418l-.15-.089M302.716 275.699l1.62-.96M294.767 299.639l.119.029M304.847 275.069l-.091-.12M304.577 274.769l-.12-.03M305.506 303.479h-.089M304.457 274.739h-.121M305.626 303.449l.031-.12M294.676 275.699l-.239-.15M305.626 303.449l-.12.03M304.756 274.949l-.179-.18M298.847 277.168h-.87M294.886 299.668l.211.151M305.657 303.329l.269-.661M305.896 302.309l.03.359M294.437 278.099l2.009-.66M305.986 300.839l-.09 1.47M305.086 303.329l-1.62-.81M302.417 275.879l.299-.18M296.506 278.189l-2.069 2.25M296.506 278.189l1.29-.75M298.486 299.339l-1.319-1.83M303.466 302.519l-1.44-.63M302.417 275.879l-1.59.57M298.997 277.139l-.15.029M293.506 308.789l-.12.03M293.626 308.759l-.12.03M293.747 308.699l-.121.06M293.867 308.639l-.12.06M293.986 308.549l-.119.09M294.106 308.458l-.12.091M294.196 308.369l-.09.089M294.287 308.249l-.091.12M294.347 308.129l-.06.12M294.407 307.979l-.06.15M294.466 307.859l-.059.12M293.386 308.819h0M287.176 308.789l.12.03M287.057 308.759l.119.03M286.816 308.639l.121.06M286.696 308.549l.12.09M286.606 308.458l.09.091M286.486 308.369l.12.089M286.426 308.249l.06.12M286.336 308.129l.09.12M286.276 307.979l.06.15M286.216 307.859l.06.12M287.296 308.819h.031M290.356 308.819h0M293.356 266.729h-.029M293.836 266.909l-.12-.06M294.046 267.089l-.089-.09M293.716 266.849l-.36-.12M294.167 267.179l-.121-.09M294.316 267.418l-.06-.119M294.437 267.689l-.121-.271M294.256 267.299l-.089-.12M287.267 266.729h0M293.957 266.999l-.121-.09M290.327 266.729h0M290.296 266.729h.031M290.296 266.729h0"/><path stroke="#000" stroke-width=".57" stroke-linecap="round" stroke-linejoin="round" stroke-miterlimit="10" d="M258.136 326.309l.45-.15.09-.06M259.006 325.829l-.33.27M259.126 325.499l-.12.33M259.126 325.499l.031-.15M241.276 325.859h.031M241.276 325.859h-.06M240.977 325.889l.239-.03M240.827 325.859l.15.03M240.676 325.739l-.059-.21M240.827 325.859l-.151-.12M241.126 244.229l.15.03M240.707 244.319l-.031.09M240.856 244.229l-.149.09M242.296 244.379l-.779-.09"/><path stroke="#000" stroke-width=".27" stroke-linecap="round" stroke-linejoin="round" stroke-miterlimit="10" d="M240.526 245.729l.031-.39"/><path stroke="#000" stroke-width=".57" stroke-linecap="round" stroke-linejoin="round" stroke-miterlimit="10" d="M241.126 244.229l-.12-.03M240.856 244.229l.15-.03M241.276 244.259h.091"/><path stroke="#000" stroke-width=".27" stroke-linecap="round" stroke-linejoin="round" stroke-miterlimit="10" d="M259.006 322.589l.031.39M242.296 325.079l.06.33M242.026 322.469l.031.449M241.997 322.049l.029.42M258.977 321.809l.029.39M242.086 323.309l.031.39M240.557 322.349l.029.359"/><path stroke="#000" stroke-width=".57" stroke-linecap="round" stroke-linejoin="round" stroke-miterlimit="10" d="M240.676 244.409l-.059.12"/><path stroke="#000" stroke-width=".27" stroke-linecap="round" stroke-linejoin="round" stroke-miterlimit="10" d="M240.497 247.649l.029-.36M242.026 246.659l.031-.36M258.917 248.129l.029-.39M241.937 247.918l.06-.839M242.207 244.889l.06-.33M240.376 249.629l.09-1.26M258.946 247.349l.031-.36"/><path stroke="#000" stroke-width=".57" stroke-linecap="round" stroke-linejoin="round" stroke-miterlimit="10" d="M259.066 244.949l.031-.33"/><path stroke="#000" stroke-width=".27" stroke-linecap="round" stroke-linejoin="round" stroke-miterlimit="10" d="M241.727 253.559l.029-1.44M241.787 250.679l.06-1.41M240.287 257.279l-.031-.93M240.287 260.129v-2.85M240.256 265.829l.031-5.7M240.256 256.349v-1.38M240.287 252.239l.029-1.321M240.256 254.969v-1.38M241.727 256.469v-2.91M241.756 252.119l.031-1.44M258.827 254.969v-1.41M258.827 256.379v-1.41M241.756 260.129l-.029-3.66M258.856 257.279l-.029-.9M258.856 260.099v-2.82M258.856 262.918v-2.819M259.006 245.909l.031-.33M259.006 246.269v-.36M258.977 246.629l.029-.36M242.086 245.909l.06-.33"/><path stroke="#000" stroke-width=".57" stroke-linecap="round" stroke-linejoin="round" stroke-miterlimit="10" d="M259.066 245.249v-.3"/><path stroke="#000" stroke-width=".27" stroke-linecap="round" stroke-linejoin="round" stroke-miterlimit="10" d="M242.176 245.219l.031-.33M242.146 245.579l.03-.36M240.256 267.359v-1.53M240.227 272.009l.029-4.65M240.196 281.309l.031-9.3M241.636 281.309v-4.68l.24-4.68M258.796 276.629l.031-4.68M240.437 320.369l.089 1.23"/><path stroke="#000" stroke-width=".57" stroke-linecap="round" stroke-linejoin="round" stroke-miterlimit="10" d="M240.586 244.619l.031-.09"/><path stroke="#000" stroke-width=".27" stroke-linecap="round" stroke-linejoin="round" stroke-miterlimit="10" d="M258.827 293.339v4.65M241.876 293.369l.031.51M241.847 288.689l.029 4.68M240.196 293.339l.031 4.65M240.196 288.689v4.65M241.787 302.189l-.06.51M240.227 297.989l.06 4.62M241.727 302.699l.029 1.56M240.287 302.609v1.53M240.376 319.049l.061 1.32M240.316 316.409l.031 1.32M258.886 316.409v1.38M241.907 320.699l.09 1.35M258.886 317.789l.031 1.379M240.526 321.599v.39M258.946 320.519l.031 1.29M258.917 319.168l.029 1.351M240.526 321.989l.031.36M240.586 322.708v.781M240.586 323.909v.81M242.057 322.918l.029.391M242.117 323.699l.029.36M241.787 316.439v1.44M241.847 319.319l.06 1.38M241.787 307.049v2.82M241.756 304.259l.031 2.79M240.316 312.719v.9M240.347 309.869l-.031 2.85M240.287 304.139l.06 5.73M240.316 313.619v1.41M240.347 317.729l.029 1.32M240.316 315.029v1.38M241.756 313.529l.031 2.91M241.787 317.879l.06 1.44M258.886 314.969v1.44M258.886 313.559v1.41M241.787 309.869v2.79l-.031.87M258.886 312.659v.9M258.886 309.839v2.82M258.886 307.019v2.82M259.097 324.359l.029.33M259.097 324.029v.33M259.066 323.699l.031.33M259.037 323.339l.029.36M259.037 322.979v.36M259.006 322.199v.39M242.146 324.059l.061.359M240.586 324.719v.42M240.586 323.489v.42M242.267 324.749l.029.33M242.207 324.418l.06.331"/><path stroke="#000" stroke-width=".57" stroke-linecap="round" stroke-linejoin="round" stroke-miterlimit="10" d="M242.417 325.679l-.871.12M259.066 244.439l.031.18M259.066 244.439l-.149-.3M242.327 244.199l.059-.21M242.446 243.839l-.06.15M242.657 243.689l-.211.15M242.776 243.629l-.119.06M257.566 243.569l.511.06M258.917 244.139l-.331-.27M258.497 243.809l.089.06M258.077 243.629l.42.18M243.046 243.599h-.029"/><path stroke="#000" stroke-width=".27" stroke-linecap="round" stroke-linejoin="round" stroke-miterlimit="10" d="M240.196 288.689v-7.38M241.847 288.689l-.211-7.38"/><path stroke="#000" stroke-width=".57" stroke-linecap="round" stroke-linejoin="round" stroke-miterlimit="10" d="M240.557 245.009l.029-.39"/><path stroke="#000" stroke-width=".27" stroke-linecap="round" stroke-linejoin="round" stroke-miterlimit="10" d="M240.497 248.009v-.36M240.497 246.119l.029-.39M240.497 246.539v-.42M240.316 250.918l.06-1.289M240.256 253.589l.031-1.35M258.827 253.559l.029-1.41M241.847 249.269l.09-1.351M258.856 252.149v-1.38M240.466 248.369l.031-.36M258.886 249.449l.031-1.32M258.856 250.769l.03-1.32M241.997 247.079l.029-.42M242.057 246.299l.029-.39"/><path stroke="#000" stroke-width=".57" stroke-linecap="round" stroke-linejoin="round" stroke-miterlimit="10" d="M243.017 243.599l-.241.03M242.776 326.729l-.15-.09M243.227 326.819h-.031M257.626 326.369h-.81M242.626 326.639l-.089-.15M257.626 326.369l.51-.06M242.957 326.819l-.181-.09M248.356 326.579l-1.41.06M243.196 326.819h-.239M246.946 326.639l-1.289.09M251.057 326.489l-.9.03M245.657 326.729l-2.43.09M250.157 326.519l-1.801.06M256.816 326.369l-1.589.03M252.046 326.458l-.989.031M253.636 326.399l-1.59.059M255.227 326.399h-1.591M242.446 326.309l.091.18M242.417 325.769l.029.54"/><path stroke="#000" stroke-width=".27" stroke-linecap="round" stroke-linejoin="round" stroke-miterlimit="10" d="M242.146 265.708l.03 1.561M241.997 270.539l-.121 1.41M242.117 263.639l.029 2.069M241.756 260.129l.241 2.76M282.617 255.418l-.06.75M287.626 255.389v.75M282.557 257.519v1.29M287.776 258.809l-.15-2.67M282.886 261.899l-.329-3.09M288.106 261.899l-.33-3.09M283.606 264.569l.09.72M288.106 261.899l.48 3.39M283.696 265.289l.241 3.57 1.02 4.68M286.037 278.159l-1.08-4.62M286.037 278.159l.15.87M287.626 254.699v.54M282.676 254.699l-.059.719M287.597 254.009v.449M282.736 254.009l-.06.69M287.566 253.289l.031.72M282.736 253.289v.72M287.506 252.809l.06.48M288.017 246.149v.059M282.707 252.809l.029.48M287.477 252.299l.029.51M282.707 252.329v.48M287.446 251.819l.031.48M287.446 251.279v.45M282.886 251.849l-.059-.54M287.506 250.829l-.06.45M283.037 250.829l-.21.48M286.966 309.059v-.33M286.546 312.179l.42-3.12M287.926 312.179l.75-3.12M286.126 314.879l.42-2.7M286.847 314.849l1.079-2.67M287.597 250.349l-.091.48M283.216 250.679l-.179.15M287.716 249.869l-.119.48M287.807 249.389l-.091.48M283.727 249.359l-.181.48M287.926 248.489l-.119.9M287.986 247.619l-.06.87M287.986 247.619l.031-.9M288.017 246.208v.511M286.126 316.079l.21-.39.511-.84M286.126 314.999v-.12M291.347 249.479l-.031-.75M291.287 249.899l.06-.42M291.167 250.289l.12-.39M291.316 248.729l-.029-.18M283.426 250.229l.151-.271M290.986 251.159l.091-.451M290.926 252.089v-.48M290.926 252.599v-.51M290.926 253.109v-.51M290.926 253.859v-.75M290.926 254.549v-.69M291.077 250.708l.09-.419M290.926 251.609l.06-.45M290.896 255.239l.03-.69M290.926 255.958l-.03-.719M291.077 258.539l-.151-2.581M291.407 261.599l-.33-3.06M291.827 264.418l-.42-2.819M295.756 311.549l-.12-2.07M296.057 314.189l-.06-.45M295.787 311.909l-.031-.36M285.256 316.409l-.33.84M284.867 318.119l.179.75.63 1.5M296.506 320.458v-.569M285.676 320.369l.241.72M296.207 315.059l-.15-.87M285.736 315.599l-.48.81M284.926 317.249l-.059.87M296.597 321.269l-.06-.39M285.917 321.089l.029.42M285.946 321.899l-.09.57M285.767 323.458v.331l.029.39"/><path stroke="#000" stroke-width=".57" stroke-linecap="round" stroke-linejoin="round" stroke-miterlimit="10" d="M306.526 245.249h-47.46M259.157 325.199h38.639"/><path stroke="#000" stroke-width=".27" stroke-linecap="round" stroke-linejoin="round" stroke-miterlimit="10" d="M295.247 308.999l.389.48M307.187 296.429l-.03-.09M295.696 312.479l.091-.57M308.026 320.939l.241-.481M303.437 319.469l.6.09M307.727 321.239l-1.44-1.08M304.066 319.529l.031.03M302.446 319.619l-.929-.3M307.727 321.239l.149-.48M308.626 315.749l.09 1.98M297.196 300.749l-1.139 1.02M306.736 255.269v-.12M296.057 254.759h0M300.526 257.069l-.119.06M304.457 255.779l-3.181 1.29M302.026 301.889l-3.54-2.55M295.787 300.299l-.69-.48M297.977 277.168l-.27.151-.3.12M294.466 299.369l.301.27M294.676 275.699l3.031 1.62M305.386 303.569l-.15-.151M305.386 303.569l.031-.09M296.446 277.439h1.35M293.386 308.819h-.15M287.327 308.819h.119M286.937 308.699l.12.06M294.466 307.859v-8.49M293.327 266.729h-.12M287.267 266.729h.15M294.437 276.749v-9.06"/><path stroke="#000" stroke-width=".57" stroke-linecap="round" stroke-linejoin="round" stroke-miterlimit="10" d="M241.216 325.859h.091l.239-.06M241.247 244.229l.27.06"/><path stroke="#000" stroke-width=".27" stroke-linecap="round" stroke-linejoin="round" stroke-miterlimit="10" d="M259.157 325.019v.18"/><path stroke="#000" stroke-width=".57" stroke-linecap="round" stroke-linejoin="round" stroke-miterlimit="10" d="M259.157 325.199v.15"/><path stroke="#000" stroke-width=".27" stroke-linecap="round" stroke-linejoin="round" stroke-miterlimit="10" d="M242.356 325.409l.061.27"/><path stroke="#000" stroke-width=".57" stroke-linecap="round" stroke-linejoin="round" stroke-miterlimit="10" d="M242.417 325.679v.09"/><path stroke="#000" stroke-width=".27" stroke-linecap="round" stroke-linejoin="round" stroke-miterlimit="10" d="M242.267 244.559l.029-.18"/><path stroke="#000" stroke-width=".57" stroke-linecap="round" stroke-linejoin="round" stroke-miterlimit="10" d="M242.296 244.379l.031-.18"/><path stroke="#000" stroke-width=".27" stroke-linecap="round" stroke-linejoin="round" stroke-miterlimit="10" d="M259.037 245.579l.029-.33"/><path stroke="#000" stroke-width=".57" stroke-linecap="round" stroke-linejoin="round" stroke-miterlimit="10" d="M259.066 245.249h0"/><path stroke="#000" stroke-width=".27" stroke-linecap="round" stroke-linejoin="round" stroke-miterlimit="10" d="M258.977 246.989v-.36M258.946 247.739v-.39"/><path stroke="#000" stroke-width=".57" stroke-linecap="round" stroke-linejoin="round" stroke-miterlimit="10" d="M240.617 244.529h0"/><path stroke="#000" stroke-width=".27" stroke-linecap="round" stroke-linejoin="round" stroke-miterlimit="10" d="M241.997 270.539l.179-3.27M241.907 293.879l-.18 4.17.06 4.14"/><path stroke="#000" stroke-width=".57" stroke-linecap="round" stroke-linejoin="round" stroke-miterlimit="10" d="M240.586 325.139l.031.39"/><path stroke="#000" stroke-width=".27" stroke-linecap="round" stroke-linejoin="round" stroke-miterlimit="10" d="M259.126 324.689v.3l.031.03M240.497 246.929v-.39M240.526 247.289l-.029-.36"/><path stroke="#000" stroke-width=".57" stroke-linecap="round" stroke-linejoin="round" stroke-miterlimit="10" d="M240.557 245.009v.33"/><path stroke="#000" stroke-width=".27" stroke-linecap="round" stroke-linejoin="round" stroke-miterlimit="10" d="M241.997 262.889l.12.75M282.557 256.168v1.351l.029 1.29M282.886 261.899l.93 3.42M288.586 265.289l.21 1.44M287.597 254.668l.029.721M287.597 254.009v.449l.029.241M283.966 249.029l-.239.33M282.917 252.089h-.031l-.179.24M287.446 251.309v.51M288.676 309.059l.031-.24M283.546 249.839l.031.119M284.417 248.009l-.061.39-.12.18M283.216 250.679l.21-.45M291.917 264.989l-.09-.571M292.216 266.729l-.299-1.74M286.126 314.999l-.39.6M285.767 323.339v.119M296.537 320.879l-.031-.421M285.946 321.509v.39M307.157 296.339l-.031-.15M304.486 319.769l-.36-.21-.54-.36M297.407 300.539l-.211.21M306.736 255.149l-.029-.18M295.937 254.729l.12.03M282.886 251.849l.031.24M284.236 248.579l-.36.57M296.236 315.179l-.029-.12"/><path stroke="#000" stroke-width=".57" stroke-linecap="round" stroke-linejoin="round" stroke-miterlimit="10" d="M233.896 323.999v-77.55"/><path stroke="#000" stroke-width=".27" stroke-linecap="round" stroke-linejoin="round" stroke-miterlimit="10" d="M288.707 308.819h-1.261M290.356 308.819h-1.649M293.236 308.819h-2.88M288.796 266.729h-1.379M290.296 266.729h-1.5M290.327 266.729h2.88M286.216 307.859l-.029-28.83M258.827 293.339l-.031-16.71M258.886 307.019l-.059-9.03"/><path stroke="#000" stroke-width=".57" stroke-linecap="round" stroke-linejoin="round" stroke-miterlimit="10" d="M243.046 243.599l14.52-.03"/><path stroke="#000" stroke-width=".27" stroke-linecap="round" stroke-linejoin="round" stroke-miterlimit="10" d="M258.856 262.918l-.029 9.031M287.267 266.729h0M286.787 266.909l.12-.06M286.577 267.089l.09-.09M286.907 266.849l.36-.12M286.457 267.179l.12-.09M286.307 267.418l.06-.119M286.187 267.689l.12-.271M286.367 267.299l.09-.12M286.667 266.999l.12-.09M287.267 266.729h.15M286.187 267.689l-.09 10.92M294.437 276.749l.029 22.62M285.856 322.469l-.089.93M297.196 321.449l-.599-.18M296.506 319.889l-.27-4.71M300.796 320.099l-1.62.75M295.997 313.739l-.301-1.26M296.057 301.769l-.27-1.47M297.407 300.539l2.219-.24 2.4 1.59M307.336 297.958l-1.35 2.881M307.037 296.069l-2.19-19.59M308.626 315.749l-2.7-13.081M295.247 308.999l-.781-1.14M300.827 276.449l-1.83.69M307.636 261.539l-1.71 13.68-.96 2.28M313.336 251.939l-1.2-.12M319.216 286.589l.241-2.28M319.696 249.629l-.06.03M319.187 286.708v.031M305.146 254.519l.21-.061M313.816 252.449l-3.87 2.46M304.247 249.029h.029M319.126 286.979l-.089.15M307.876 252.929l-2.189 1.32M304.276 249.029l.12-.03M320.207 249.449l-.121.03M313.336 251.939l.27.09M312.106 251.819l-2.43-.75M320.386 249.509l-.179-.06M305.356 254.458l.331-.209M319.187 286.739h0M304.396 255.089l.75-.57M304.396 248.999l2.581.81M308.626 252.509l-.75.42M320.506 249.809l-.12-.3M314.537 251.909h-.031M307.216 249.958l-.239-.149M320.986 251.009l-.119-.48M321.526 254.668l-.54-3.659M314.566 251.909h.091M319.636 249.659l-2.19 1.049M310.696 252.239l-2.07.27M309.946 254.909l-2.07 2.43M317.446 250.708l-2.279.841M315.796 318.179l-.089.45M315.796 318.179l-.06-1.65M316.307 276.089l-.241.15M312.497 317.699l2.429 1.41M315.707 318.629l-.121.18M315.316 319.049l-.18.09M316.727 275.999h-.15M315.136 319.139l-.21-.03M316.876 276.059l.061.21M316.876 276.059l-.149-.06M315.586 318.809l-.27.24M316.937 276.269l.39.93M317.296 277.769l.031-.57M317.417 279.958l-.121-2.189M316.066 276.239l-2.399 1.2M312.046 317.429l.451.27M313.667 277.439l-2.19.96M312.046 317.429l-2.339-.87M303.227 250.529l-.031.87M303.316 249.329l-.029.57M319.216 286.589l-.029.119M320.506 249.809l.361.72M313.606 252.029l.9-.12M320.026 249.359l-.33.27M314.537 251.909h.029M312.136 251.819l-1.44.42M320.026 249.359l.06.12M321.407 257.579l.119-2.911M311.477 278.399l-5.31 3.809M316.546 275.879l-.239.21M316.546 275.879l.031.12M303.287 249.899l-.031.03-.029.6M319.187 286.708l-.061.271M315.167 251.549l-.51.36-.841.54M304.247 249.029l-.931.3M309.676 251.069l-2.46-1.111M319.457 284.309l-2.04-4.351M319.037 287.129l-3.301 29.4M321.407 257.579l-4.08 19.62M303.196 251.399l-.329 5.04"/><path stroke="#000" stroke-width=".57" stroke-linecap="round" stroke-linejoin="round" stroke-miterlimit="10" d="M297.796 325.199h22.23M306.526 245.249h13.5"/><path stroke="#000" stroke-width=".27" stroke-linecap="round" stroke-linejoin="round" stroke-miterlimit="10" d="M291.287 248.549l-.661-3.3M284.417 248.009v-2.76M296.597 321.269l-1.951 3.93M285.796 324.119v1.08M163.966 27.209h1.201M166.187 27.209h1.98M169.187 27.209h1.199v1.98M170.386 30.209v2.01M170.386 33.209v2.01M170.386 36.209v2.01M170.386 39.209v2.01M170.386 42.239v1.98M170.386 45.239v2.01h-1.199M168.167 47.249h-1.98M165.167 47.249h-1.201v-2.01M163.966 44.219v-1.98M163.966 41.219v-2.01M163.966 38.219v-2.01M163.966 35.219v-2.01M163.966 32.219v-2.01M163.966 29.189v-1.98M176.299 41.61a.311.311 0 10.623 0 .311.311 0 00-.623 0M176.299 32.795a.311.311 0 10.623 0 .311.311 0 00-.623 0"/><path stroke="#000" stroke-width=".27" stroke-linecap="round" stroke-linejoin="round" stroke-miterlimit="10" d="M187.006 44.219h-14.909l-.091-.09-.029-.09v-13.65l.029-.03v-.06l.031-.03h.029v-.03l.031-.03h15.27l.15.03h.179l.18.03h.15l.181.03.179.03.151.06.179.03.18.03.15.06.181.06.149.06.15.06.181.06.149.06.15.06.151.09.15.06.15.09.149.09.15.09.151.09.15.12.119.09.151.09.119.12.151.12.119.09.12.12.121.12.12.12.119.15.12.12.121.12.089.15.12.12.09.15.12.15.09.15.091.12.089.15.061.15.089.18.06.15.09.15.06.15.06.15.06.18.061.15.06.18.029.15.06.18.031.15.029.18.031.18.03.15.029.18.031.18v.15l.029.18v.69l-.029.18v.18l-.031.15-.029.18-.03.18-.031.15-.029.18-.031.15-.06.18-.029.15-.06.18-.061.15-.06.18-.06.15-.06.15-.09.18-.06.15-.089.15-.061.15-.089.15-.091.15-.09.12-.12.15-.09.15-.12.12-.089.15-.121.12-.12.15-.119.12-.12.12-.121.12-.12.12-.119.12-.151.09-.119.12-.151.09-.119.12-.15.09-.151.09-.15.09-.149.09-.15.09-.15.06-.151.09-.15.06-.149.09-.181.06-.15.06-.149.06-.181.03-.15.06-.18.03-.179.06-.151.03-.179.03-.181.03-.15.03h-.18l-.179.03H187.187z"/><path stroke="#000" stroke-width=".27" stroke-linecap="round" stroke-linejoin="round" stroke-miterlimit="10" d="M191.926 37.229v-.36l-.15-.87-.299-.84-.331-.63-.12-.12-.089-.15-.121-.15-.12-.12-.119-.15-.12-.12-.121-.12-.12-.12-.15-.12-.149-.09-.15-.12-.121-.09-.149-.09-.181-.09-.149-.06-.15-.09-.181-.06-.149-.06-.181-.06-.15-.06-.18-.03-.15-.06-.179-.03-.18-.03h-.181l-.15-.03H183.497M183.497 42.119h3.899l.99-.18.901-.36.599-.36.12-.12.151-.12.119-.09.15-.12.12-.15.121-.12.12-.12.089-.15.121-.15.089-.12.121-.15.089-.15.06-.18.09-.15.06-.15.091-.15.06-.18.03-.15.06-.15.029-.18.06-.15.031-.18v-.15l.029-.18.03-.15V37.229"/><path stroke="#000" stroke-width=".27" stroke-linecap="round" stroke-linejoin="round" stroke-miterlimit="10" d="M183.497 42.119h-.42l-.841-.15-.54-.18-.509-.24-.121-.09-.149-.06-.121-.09-.089-.06-.121-.09-.12-.09-.119-.09-.091-.09-.12-.09-.09-.12-.12-.09-.09-.12-.089-.09-.09-.12-.091-.12-.089-.09-.06-.12-.09-.12-.06-.15-.091-.12-.059-.12-.06-.12-.06-.15-.06-.12-.03-.12-.06-.15-.031-.12-.06-.15-.029-.15-.031-.12-.029-.15-.031-.15v-.12l-.03-.15v-.87l.03-.12v-.15l.031-.15.029-.12.031-.15.029-.15.06-.12.031-.15.06-.12.03-.15.06-.12.06-.15.06-.12.059-.12.091-.12.06-.12.09-.12.06-.12.089-.12.091-.12.09-.12.089-.09.09-.12.12-.09.09-.09.12-.12.091-.09.119-.09.12-.09.121-.09.089-.06.121-.09.149-.06.121-.09.12-.06.119-.06.151-.06.119-.06.12-.03.15-.06.12-.03.15-.06.15-.03.12-.03.151-.03h.15l.119-.03.151-.03h.42"/><path stroke="#000" stroke-width=".27" stroke-linecap="round" stroke-linejoin="round" stroke-miterlimit="10" d="M179.506 37.229l.06-.48.15-.51.42-.57.24-.18.09-.03.091-.06.089-.03.09-.03.12-.03.09-.03.12-.03h.21l.12-.03h.24M184.551 37.202v-.004c0-1.1-1.295-1.991-2.892-1.991M181.659 39.198c1.597 0 2.892-.891 2.892-1.991v-.005M179.506 37.229l.21.96.12.21.3.36.33.24.091.03.089.03.09.03.12.03.09.03.12.03h.091l.119.03h.36"/><path stroke="#000" stroke-width=".15" stroke-linecap="round" stroke-linejoin="round" stroke-miterlimit="10" d="M177.646 46.649h0"/><path stroke="#000" stroke-width=".27" stroke-linecap="round" stroke-linejoin="round" stroke-miterlimit="10" d="M171.856 63.269v4.23h9.42v-9.87h-9.42v4.44"/><path stroke="#000" stroke-width=".27" stroke-linecap="round" stroke-linejoin="round" stroke-miterlimit="10" d="M163.966 62.069h12.15v1.2h-12.15zM163.966 48.839h36.06v28.05"/><path stroke="#000" stroke-width=".27" stroke-linecap="round" stroke-linejoin="round" stroke-miterlimit="10" d="M163.966 48.449h36.48v28.44M239.019 69.256a1.603 1.603 0 103.206 0 1.603 1.603 0 00-3.206 0"/><path stroke="#000" stroke-width=".27" stroke-linecap="round" stroke-linejoin="round" stroke-miterlimit="10" d="M238.618 69.256a2.003 2.003 0 104.007 0 2.003 2.003 0 00-4.007 0"/><path stroke="#000" stroke-width=".27" stroke-linecap="round" stroke-linejoin="round" stroke-miterlimit="10" d="M245.207 61.649l.719.03 1.051.18.359.09.84.3.151.09.179.06.151.09.15.06.15.09.179.09.151.09.15.12.149.09.121.09.149.12.15.12.12.12.15.09.12.12.15.15.121.12.12.12.12.12.119.15.12.15.09.12.12.15.09.15.12.15.091.15.09.15.089.15.09.15.091.15.06.18.09.15.06.18.06.15.06.18.06.15.059.18.06.18.06.15.031.18.029.18.061.18.029.18.031.15v.18l.029.18v.18l.031.18v.72l-.031.18v.18l-.029.18v.18l-.031.18-.029.15-.061.18-.029.18-.031.18-.06.18-.06.15-.059.18-.06.15-.06.18-.06.18-.06.15-.09.15-.06.18-.091.15-.09.15-.089.15-.09.15-.091.15-.12.15-.09.15-.12.15-.09.15-.12.12-.119.15-.12.12-.12.12-.121.15-.15.12-.12.12-.15.12-.12.09-.15.12-.149.12-.121.09-.149.09-.15.12-.151.09-.179.09-.15.09-.15.06-.151.09-.179.09-.151.06-.179.06-.15.06-.18.06-.181.06-.15.06-.179.03-.18.06-.181.03-.15.03-.18.03-.179.03-.181.03-.18.03h-.179l-.181.03h-9.93l-.179-.03h-.181l-.179-.03-.18-.03-.15-.03-.181-.03-.179-.03-.18-.03-.181-.06-.15-.03-.18-.06-.179-.06-.151-.06-.179-.06-.15-.06-.181-.06-.149-.09-.181-.09-.15-.06-.149-.09-.15-.09-.151-.09-.15-.12-.15-.09-.149-.09-.15-.12-.12-.12-.15-.09-.151-.12-.119-.12-.12-.12-.121-.15-.149-.12-.121-.12-.089-.15-.121-.12-.12-.15-.119-.15-.091-.15-.089-.15-.121-.15-.089-.15-.09-.15-.091-.15-.06-.15-.09-.18-.06-.15-.089-.15-.06-.18-.061-.18-.06-.15-.06-.18-.06-.15-.03-.18-.06-.18-.029-.18-.031-.18-.029-.15-.031-.18-.029-.18-.03-.18v-.36l-.031-.18v-.36l.031-.18v-.36l.03-.18.029-.18.031-.15.029-.18.031-.18.029-.18.06-.18.03-.15.06-.18.06-.18.06-.15.061-.18.06-.15.089-.18.06-.15.09-.18.06-.15.091-.15.09-.15.089-.15.121-.15.089-.15.091-.15.119-.15.12-.12.121-.15.089-.15.121-.12.149-.12.121-.12.12-.15.119-.12.151-.09.15-.12.12-.12.15-.12.149-.09.15-.09.15-.12.151-.09.15-.09.149-.09.15-.06.181-.09.149-.06.181-.09.15-.06.179-.06.151-.06.179-.06.18-.06.15-.03.181-.06.18-.03.179-.03.181-.03.15-.03.18-.03.179-.03h.36l.18-.03h.181z"/><path stroke="#000" stroke-width=".27" stroke-linecap="round" stroke-linejoin="round" stroke-miterlimit="10" d="M245.207 75.869h-9.721l-.15-.03h-.179l-.81-.15-.151-.06-.15-.06-.179-.03-.151-.06-.15-.06-.149-.06-.15-.06-.15-.09-.151-.06-.15-.09-.149-.09-.15-.06-.121-.09-.149-.09-.121-.12-.149-.09-.121-.09-.149-.12-.121-.12-.12-.09-.119-.12-.12-.12-.091-.12-.119-.12-.121-.12-.089-.15-.12-.12-.09-.15-.091-.12-.089-.15-.09-.15-.091-.12-.06-.15-.09-.15-.06-.15-.089-.15-.061-.15-.06-.15-.06-.18-.06-.15-.029-.15-.061-.15-.029-.18-.031-.15-.029-.18-.031-.15-.029-.18-.031-.15v-.18l-.03-.15V68.849l.03-.15v-.18l.031-.15.029-.18.031-.15.029-.18.031-.15.029-.15.061-.18.029-.15.06-.15.06-.15.06-.18.061-.15.089-.15.06-.15.09-.15.06-.15.091-.12.09-.15.089-.15.091-.12.09-.15.12-.12.089-.12.121-.15.119-.12.091-.12.12-.12.119-.12.12-.09.121-.12.149-.09.121-.12.149-.09.121-.09.149-.09.121-.09.15-.09.149-.09.15-.09.151-.06.15-.06.15-.09.149-.06.15-.06.151-.06.179-.03.15-.06.151-.03.179-.06.15-.03.151-.03.179-.03.151-.03h.179l.15-.03h10.23l.151.03h.179l.15.03.18.03.15.03.181.03.149.06.15.03.181.06.149.03.15.06.15.06.151.06.179.09.151.06.15.06.119.09.151.09.15.09.149.09.121.09.149.09.121.09.149.12.121.09.12.12.119.09.12.12.121.12.12.12.09.12.12.15.119.12.091.12.089.15.09.12.091.15.089.15.09.12.091.15.06.15.09.15.06.15.06.15.059.18.06.15.06.15.031.15.06.18.029.15.061.15.029.18.031.15.029.18v.15l.031.18V69.029l.029.15v.18l-.029.15V69.839l-.031.18v.15l-.029.18-.031.15-.029.18-.061.15-.029.18-.06.15-.031.15-.06.15-.06.18-.059.15-.06.15-.06.15-.09.15-.06.15-.091.15-.09.12-.089.15-.091.15-.09.12-.089.15-.091.12-.119.15-.12.12-.09.12-.12.12-.121.12-.12.12-.119.09-.12.12-.121.12-.149.09-.121.09-.149.12-.121.09-.149.09-.15.06-.151.09-.119.09-.15.06-.151.09-.179.06-.151.06-.15.06-.15.06-.149.03-.181.06-.15.06-.149.03-.181.03-.15.03-.18.03-.15.03h-.179l-.151.03H245.386zM229.577 19.979h22.05v2.4h-22.05zM279.466 61.259h18.03v16.02h-18.03z"/><path stroke="#000" stroke-width=".27" stroke-linecap="round" stroke-linejoin="round" stroke-miterlimit="10" d="M287.496 69.256a1.002 1.002 0 102.003-.001 1.002 1.002 0 00-2.003.001"/><path stroke="#000" stroke-width=".27" stroke-linecap="round" stroke-linejoin="round" stroke-miterlimit="10" d="M287.096 69.256a1.402 1.402 0 102.805 0 1.402 1.402 0 00-2.805 0"/><path stroke="#000" stroke-width=".27" stroke-linecap="round" stroke-linejoin="round" stroke-miterlimit="10" d="M278.477 60.269h20.01v18.03h-20.01z"/><path stroke="#000" stroke-width=".57" stroke-linecap="round" stroke-linejoin="round" stroke-miterlimit="10" d="M267.946 54.239h51.901M324.046 54.239h24.031M348.077 106.739v-52.5"/><path stroke="#000" stroke-width=".27" stroke-linecap="round" stroke-linejoin="round" stroke-miterlimit="10" d="M326.666 86.682a3.205 3.205 0 106.41.001 3.205 3.205 0 00-6.41-.001M336.155 85.36a4.808 4.808 0 109.616 0 4.808 4.808 0 00-9.616 0M348.077 68.459v24.06M324.046 92.519v-24.06M348.077 92.519h-24.031M326.957 89.579l1.799-1.8M326.957 83.789l1.799 1.83M332.747 89.579l-1.801-1.8M332.747 83.789l-1.801 1.83M339.376 77.189l1.8-1.8M339.376 71.399l1.8 1.8M345.167 77.189l-1.8-1.8M327.167 71.579l2.1 2.1M327.167 79.619l2.1-2.1M335.207 71.579l-2.1 2.1M335.207 79.619l-2.1-2.1M336.917 81.359l2.099 2.1M336.917 89.399l2.099-2.1M344.957 81.359l-2.1 2.1M345.167 71.399l-1.8 1.8M326.384 75.59a4.808 4.808 0 109.617-.001 4.808 4.808 0 00-9.617.001M339.08 74.268a3.206 3.206 0 106.411-.001 3.206 3.206 0 00-6.411.001M344.957 89.399l-2.1-2.1M324.046 68.459h24.031"/><text transform="translate(454.29 44.43)" stroke="#000" stroke-miterlimit="10" font-family="'ArialMT'" font-size="6.714">L</text><path stroke="#000" stroke-width=".27" stroke-linecap="round" stroke-linejoin="round" stroke-miterlimit="10" d="M489.527 23.189h-36.87M452.657 20.399h36.87v2.79h-36.87z"/><path stroke="#000" stroke-width=".27" stroke-linecap="round" stroke-linejoin="round" stroke-miterlimit="10" d="M453.856 21.179h34.471v1.2h-34.471z"/><path stroke="#000" stroke-width=".27" stroke-linecap="round" stroke-linejoin="round" stroke-miterlimit="10" d="M452.657 20.399h36.87v28.05h-36.87zM452.657 46.439h36.87M477.497 46.439v2.01"/><path stroke="#000" stroke-width=".57" stroke-linecap="round" stroke-linejoin="round" stroke-miterlimit="10" d="M450.647 20.399h-72.12v24.03h72.12v-24.03h-.99M448.667 20.399h-2.01M445.636 20.399h-1.979M442.636 20.399h-2.01M439.636 20.399h-2.01M436.636 20.399h-2.01M433.636 20.399h-2.01M430.636 20.399h-2.01M427.606 20.399h-1.98M424.606 20.399h-2.01M421.607 20.399h-2.011M418.607 20.399h-2.011M415.607 20.399h-2.011M412.607 20.399h-2.011M409.577 20.399h-1.981M406.577 20.399h-2.01M403.577 20.399h-2.01M400.577 20.399h-2.01M397.577 20.399h-2.01M394.546 20.399h-1.979M391.546 20.399h-1.979M388.546 20.399h-2.009M385.546 20.399h-2.009M382.546 20.399h-2.009"/><path stroke="#000" stroke-width=".57" stroke-linecap="round" stroke-linejoin="round" stroke-miterlimit="10" d="M379.546 20.399h-1.019v1.5M378.527 22.889v2.01M378.527 25.889v2.01M378.527 28.889v2.01M378.527 31.919v1.98M378.527 34.919v1.5h1.019M380.537 36.419h2.009M383.537 36.419h2.009M386.537 36.419h2.009M389.567 36.419h1.979M392.567 36.419h1.979M395.567 36.419h2.01M398.567 36.419h2.01M401.567 36.419h2.01M404.567 36.419h2.01M407.596 36.419h1.981M410.596 36.419h2.011M413.596 36.419h2.011M416.596 36.419h2.011M419.596 36.419h2.011M422.596 36.419h2.01M425.626 36.419h1.98M428.626 36.419h2.01M431.626 36.419h2.01M434.626 36.419h2.01M437.626 36.419h2.01M440.626 36.419h2.01M443.657 36.419h1.979M446.657 36.419h2.01M449.657 36.419h.99v-1.5M450.647 33.899v-1.98M450.647 30.899v-2.01M450.647 27.899v-2.01M450.647 24.899v-2.01M450.647 21.899v-1.5M378.527 20.399l1.83.39M381.346 21.029l1.95.42M384.287 21.659l1.95.45M387.226 22.319l1.95.42M390.136 22.979l1.981.42M393.077 23.609l1.95.45M396.016 24.269l1.95.45M398.957 24.929l1.95.42M401.897 25.589l1.949.42M404.806 26.219l1.981.45M407.747 26.879l1.95.45M410.686 27.539l1.95.42M413.626 28.199l1.951.42M416.537 28.829l1.979.45M419.476 29.489l1.95.42M422.417 30.149l1.95.42M425.356 30.779l1.95.45M428.296 31.439l1.951.45M431.207 32.099l1.979.42M434.147 32.759l1.949.42M437.086 33.389l1.951.45M440.027 34.049l1.949.45M442.966 34.709l1.951.42M445.876 35.369l1.951.42M448.817 35.999l1.83.42M378.527 36.419l1.83-.42M381.346 35.789l1.95-.42M384.287 35.129l1.95-.42M387.226 34.499l1.95-.45M390.136 33.839l1.981-.45M393.077 33.179l1.95-.42M396.016 32.519l1.95-.42M398.957 31.889l1.95-.45M401.897 31.229l1.949-.45M404.806 30.569l1.981-.42M407.747 29.909l1.95-.42M410.686 29.279l1.95-.45M413.626 28.619l1.951-.42M416.537 27.959l1.979-.42M419.476 27.329l1.95-.45M422.417 26.669l1.95-.45M425.356 26.009l1.95-.42M428.296 25.349l1.951-.42M431.207 24.719l1.979-.45M434.147 24.059l1.949-.45M437.086 23.399l1.951-.42M440.027 22.739l1.949-.42M442.966 22.109l1.951-.45M445.876 21.449l1.951-.42M448.817 20.789l1.83-.39M417.916 136.491c0 13.277 10.764 24.041 24.041 24.041 13.276 0 24.04-10.763 24.04-24.041 0-13.277-10.764-24.041-24.04-24.041-13.278.001-24.041 10.764-24.041 24.041"/><path stroke="#000" stroke-width=".57" stroke-linecap="round" stroke-linejoin="round" stroke-miterlimit="10" d="M414.197 156.089l-.09.78.029.78.181.75.3.72.45.63 1.71 1.92 1.92 1.71.63.45.719.3.75.18.781.03.78-.09 1.199-.27 1.32-.33 1.441-.45 1.71-.72.72-.42 1.979-1.38 1.801-1.59h.029l.271-.33M469.667 156.089h.03l.09.78-.061.78-.149.75-.33.72-.42.63-1.71 1.92-1.92 1.71-.66.45-.691.3-.779.18-.75.03-.78-.09-1.201-.27-1.32-.33-1.439-.45-1.71-.72-.72-.42h-.03l-1.981-1.38-1.769-1.59h-.031l-.299-.33M422.357 108.779l-.78-.12-.781.06-.75.18-.719.3-.63.42-1.92 1.71-1.71 1.92-.45.66-.3.69-.181.78-.029.75.09.78.269 1.2.33 1.32.481 1.44.72 1.71.389.72v.03l1.38 1.98 1.591 1.8.329.3M461.537 108.779l.78-.12.75.06.779.18.691.3.66.42 1.92 1.71 1.71 1.92.42.66.33.69.149.78.061.75-.12.78-.241 1.2-.33 1.32-.479 1.44-.72 1.71-.421.72v.03l-1.35 1.98-1.589 1.8h-.031l-.33.3M419.686 145.619l-.329.3-1.591 1.8-1.349 1.98h-.031l-.389.75-.72 1.68-.481 1.44-.33 1.32-.269 1.2M432.827 114.269l-.3-.36-1.801-1.59-1.979-1.35-.72-.42-1.71-.72-1.441-.48-1.32-.33-1.199-.24M451.037 114.269l.33-.36 1.769-1.59 1.981-1.35.75-.42 1.71-.72 1.439-.48 1.32-.33 1.201-.24M464.176 145.619l.361.3 1.589 1.8 1.35 1.98.421.75.72 1.68.479 1.44.33 1.32.241 1.2M476.296 345.989h6.81M483.707 281.879v56.1M475.096 265.859h-24.63M483.106 266.458v7.411M442.457 266.458v6.811"/><path stroke="#000" stroke-width=".27" stroke-linecap="round" stroke-linejoin="round" stroke-miterlimit="10" d="M475.907 288.449c.119-.058.19-.086.221-.095M476.117 288.359c.049-.017.082-.015.11.002M476.207 288.389c.049-.011.086.013.133.043M476.327 288.449c.059.014.11.045.167.079M476.476 288.539c.074.023.134.059.198.094M476.657 288.659c.081.008.145.054.208.11M476.836 288.779a.79.79 0 01.183.128M477.016 288.929c.043.014.082.104.119.25M477.106 289.199c.067.127.091.307.101.521M477.197 289.739c.02.195.009.615-.023 1.242M477.167 290.999a69.304 69.304 0 00-.053 2.154M477.106 293.159c.001.814-.015 1.485-.038 2.007M477.046 295.168c-.003.518-.015.843-.017.973M477.016 296.159c.013.111.009.244.001.381M477.016 296.549a8.599 8.599 0 00-.011.461M476.987 297.029c.019.158.034.406.066.726M477.046 297.779c.039.294.056.551.058.745M477.077 298.529c.028.189.028.406.026.645M477.077 299.189c.024.224.021.487.02.775M477.077 299.969c.017.284.015.476.014.57M477.077 300.569c.014.065.006.424-.008 1.045M477.046 301.619c.009.617.02 1.36.057 2.223M477.077 303.869c.063.836.087 1.345.1 1.498M477.167 305.369c.022.151.033.335.041.549M477.197 305.939c.019.192.028.378.039.535M477.226 306.479c.021.152.032.546.045 1.176M477.256 307.679c.026.605.029 1.246.023 1.896M477.256 309.599c.018.627.028 1.136.054 1.504M477.287 311.129c.05.341.061.743.057 1.178M477.317 312.329c.022.414.04.94.081 1.558M477.376 313.889c.062.613.089 1.082.103 1.402M477.466 315.299c.026.312.031.642.028.979M477.466 316.289c.025.329.022.694.019 1.088M477.466 317.399c.016.37.013.633.012.765M477.466 318.179c.011.116-.019.206-.075.254M477.376 318.449c-.042.032-.156.206-.327.508M477.046 318.958c-.167.299-.317.503-.447.612M476.596 319.589c-.127.09-.212.153-.252.172M476.327 319.769c-.022.011-.107.013-.238-.003M476.086 319.769a.662.662 0 01-.257-.072M476.386 319.019c-.026-.499-.064-.891-.084-1.204M476.296 317.819a19.37 19.37 0 01-.021-.936M476.266 316.889a7.128 7.128 0 00-.044-1.072M476.207 315.839a21.552 21.552 0 01-.021-1.185M476.176 314.668c.013-.615.01-1.093-.002-1.447M476.147 313.229c.017-.332.013-.665.015-1.005M476.147 312.239c.017-.378.015-.759.009-1.157M476.147 311.099c.002-.398 0-.737.002-1.032M476.147 310.079c.004-.282.006-.554.007-.824M476.147 309.269a6.428 6.428 0 00-.015-.731M476.117 308.549c.004-.155-.002-.3-.001-.443M476.086 308.129c.03-.185.038-.406.052-.688M476.117 307.469c.037-.343.046-.638.048-.913M476.147 306.569a7.86 7.86 0 00-.004-.907M476.117 305.668c.013-.279.008-.647.011-1.109M476.117 304.589c.015-.543.001-1.007-.029-1.421M476.086 303.179c-.002-.057-.006-.102-.009-.146M476.086 296.219c.013-.185.014-.352.015-.52M476.086 295.708c.017-.34.023-.604.035-.803M476.117 294.929c.02-.261.027-.527.029-.822M476.117 294.119c.033-.658.037-1.304.042-1.95M476.147 292.168c.013-.212.017-.357.023-.435M476.147 291.749c.034-.125.049-.309.069-.563M476.207 291.208c.03-.278.046-.492.058-.662M476.237 290.549c.037-.154.089-.649.181-1.489M467.716 319.739a.418.418 0 00-.27-.03M467.447 319.708a.337.337 0 01-.189.003M467.237 319.739c-.043-.044-.16-.064-.329-.09M466.907 319.649a2.328 2.328 0 00-.43-.03M466.457 319.619a2.054 2.054 0 01-.398-.028M466.037 319.619c-.14-.054-.409-.112-.789-.206M476.207 289.139c.099-.215.152-.35.167-.424M476.356 288.719c.033-.078-.011-.145-.114-.203M476.237 288.539c-.068-.064-.172-.094-.305-.109M476.207 319.079a25.445 25.445 0 01-.12-1.243M476.086 317.849a14.457 14.457 0 01-.028-1.016M476.056 316.859a7.065 7.065 0 00-.046-.946M475.997 315.929a17.394 17.394 0 01-.031-1.306M475.936 314.639c.033-.598.029-1.058.019-1.395M475.936 313.259c.007-.351.003-.695.005-1.047M475.936 312.239c.007-.378.005-.747-.001-1.134M475.907 311.129c.021-.411.02-.756.021-1.057M475.907 310.079c.023-.308.025-.576.026-.813M475.907 309.269c.028-.238.021-.443.008-.618M475.907 308.668c-.007-.191-.014-.366-.013-.541M475.876 308.129c.019-.178.027-.413.042-.709M475.907 307.439c.026-.314.035-.592.037-.85M475.936 306.599a9.396 9.396 0 00-.013-.833M475.907 305.789c.002-.314-.004-.7-.001-1.18M475.876 304.619a8.848 8.848 0 00-.009-1.302M475.846 303.329c.02-.038.018-.064.016-.09M475.907 294.239c.02-.274.022-.602.024-.982M475.907 293.279c.027-.407.029-.72.031-.96M475.936 292.319a7.32 7.32 0 01.019-.521M475.936 291.809c.028-.118.044-.297.064-.546M475.997 291.269c.024-.256.04-.463.052-.627M476.027 290.668c.032-.191.086-.697.182-1.545M474.766 286.109c.121-.05.192-.065.223-.07M474.976 286.049a.165.165 0 01.112-.007M475.067 286.049c.05.003.087.016.133.033M475.186 286.109c.061-.01.111.009.168.027M475.336 286.139c.074.017.135.036.198.056M475.516 286.199a.81.81 0 01.21.072M475.697 286.289c.093.015.144.04.184.061M475.876 286.349c.044.02.082.07.12.152M475.966 286.529c.067.055.092.155.102.275M476.056 286.829c.021.096.01.331-.022.683M476.027 287.519c-.025.343-.045.749-.052 1.209M475.966 288.749c.001.439-.015.816-.038 1.108M475.907 289.859c-.002.29-.015.472-.016.544M475.876 290.429a.61.61 0 01.002.198M475.876 290.639c-.006.064-.01.152-.01.251M475.846 290.909c.02.081.036.22.068.398M475.907 291.329c.039.158.057.302.058.41M475.936 291.749c.03.1.03.221.027.354M475.936 292.109c.025.128.023.276.021.438M475.936 292.559c.019.149.017.257.016.31M475.936 292.889c.015.032.008.233-.006.582M475.907 293.489c.009.331.021.747.057 1.23M475.936 294.749c.064.455.089.74.102.825M476.027 295.589c.023.07.033.174.042.294M476.056 295.889c.021.114.03.218.041.306M476.086 296.219c.021.064.033.284.045.638M476.117 296.879c.027.33.03.689.024 1.054M476.117 297.958c.019.34.028.625.055.831M476.147 298.799c.05.196.061.422.057.666M476.176 299.489c.023.22.042.515.082.86M476.237 300.359c.063.336.089.599.103.778M476.327 301.139c.026.178.032.362.029.552M476.327 301.708c.026.172.022.377.02.598M476.327 302.309c.016.217.014.364.013.438M476.327 302.759c.012.062-.018.112-.074.139M476.237 302.909c-.042.017-.155.114-.326.283M475.907 303.208a1.964 1.964 0 01-.446.327M475.457 303.539a1.849 1.849 0 01-.251.104M475.186 303.659c-.021-.006-.105-.005-.236-.013M474.947 303.659c-.125-.021-.212-.034-.257-.052M463.907 303.599a.853.853 0 00-.365-.021M463.516 303.599c-.056-.003-.139-.002-.223-.019M463.277 303.599c-.067-.035-.22-.056-.441-.081M462.827 303.539a2.265 2.265 0 00-.555-.051M462.256 303.509c-.139-.016-.321-.025-.532-.05M461.716 303.479c-.203-.045-.533-.104-.984-.199M463.876 286.619c-.146.002-.271.009-.353-.005M463.516 286.619a.474.474 0 00-.239.004M463.277 286.649c-.083-.006-.235.021-.454.058M462.796 286.708a3.584 3.584 0 01-.536.054M462.256 286.769a2.918 2.918 0 00-.542.048M461.686 286.829c-.181.022-.511.101-.96.222M474.976 302.939c-.062-.272-.113-.493-.142-.672M474.827 302.279a4.555 4.555 0 01-.028-.555M474.796 301.739a1.647 1.647 0 00-.06-.513M474.737 301.229c-.043-.153-.063-.386-.058-.7M474.676 300.539a7.76 7.76 0 00-.011-.756M474.647 299.789c.004-.188-.002-.375.001-.565M474.647 299.249a9.968 9.968 0 00-.007-.625M474.617 298.649c.015-.234.013-.421.015-.584M474.617 298.079c.018-.177.02-.322.021-.449M474.617 297.629a.877.877 0 00-.003-.333M474.586 297.299c.009-.098 0-.192.002-.287M474.586 297.029a4.45 4.45 0 01.033-.399M474.617 296.639c.021-.17.032-.319.034-.459M474.647 296.189a2.715 2.715 0 00-.021-.455M474.617 295.739a8.104 8.104 0 01-.014-.631M474.586 295.109c.021-.26.005-.493-.031-.7M474.527 294.418a2.452 2.452 0 00-.088-.545M474.436 293.879c-.038-.155-.071-.289-.096-.408M474.317 293.489c-.002-.137-.013-.276-.01-.437M474.287 293.069a4.79 4.79 0 00.028-.519M474.287 292.559c.031-.184.05-.334.085-.46M474.346 292.109c.061-.137.091-.273.114-.419M474.436 291.719c.049-.176.071-.345.093-.535M474.527 291.208c.022-.215.034-.354.035-.442M474.556 290.789c.008-.11.01-.248.013-.437M474.556 290.369c.016-.205.025-.357.043-.475M474.586 289.918c.029-.142.039-.274.041-.422M474.617 289.499c.013-.149.016-.327.02-.535M474.617 288.989c.022-.233.025-.402.027-.533M474.617 288.479c.029-.153.036-.248.049-.306M474.647 288.179c.031-.063.051-.159.077-.295M474.707 287.909c.044-.159.064-.271.079-.36M474.766 287.549c.034-.09.103-.364.225-.822"/><path stroke="#000" stroke-width=".57" stroke-linecap="round" stroke-linejoin="round" stroke-miterlimit="10" d="M475.096 353.999h-24.63M472.037 343.889l-1.08-.3-1.111-.24-.3-.03-.269-.06-.301-.03-.269-.061-.3-.029-.271-.03-.269-.03-.3-.03h-.271M474.167 345.089l-.241-.21-.689-.45-.151-.06-.269-.18-.15-.06-.151-.06-.149-.06-.151-.06-.179-.06M474.167 345.089l.36.3.51.3.899.269h.24l.12.031M483.106 353.399v-6.81M442.457 353.399v-6.81M467.296 343.049l-8.82-.091"/><path stroke="#000" stroke-width=".27" stroke-linecap="round" stroke-linejoin="round" stroke-miterlimit="10" d="M464.027 304.439v-.12M464.056 306.749v-.12M464.027 304.799v-.12M464.027 305.789v-.121M464.086 307.229l-.03-.12M464.027 305.549v-.15M464.027 305.159v-.12M464.056 306.509v-.12M464.027 304.559v-.12M464.056 306.989v-.12M464.027 305.279v-.12M464.056 307.109v-.12M464.086 307.349v-.12M464.027 305.399v-.12M464.027 305.668v-.119M464.027 305.039v-.24M464.027 305.909v-.12M464.027 304.679v-.12M464.056 306.869v-.12M464.056 306.389v-.36M464.027 304.319v-.361M464.056 306.629v-.12M464.056 306.029l-.029-.12M464.027 303.839v-.12M464.027 303.958v-.119M464.027 303.719v-.09M464.147 309.299v-.12M464.117 308.458v-.119M464.147 308.819l-.03-.12M464.147 309.179v-.24M464.117 308.699v-.12M464.086 307.859v-.12M464.117 308.219v-.12M464.086 307.739v-.39M464.176 309.539v-.121M464.117 308.579v-.121M464.086 307.979v-.12M464.147 308.939v-.12M464.176 309.418l-.029-.119M464.117 308.339v-.12M464.176 309.659v-.12M464.117 308.099l-.031-.12M467.266 319.259c-.031-.08-.08-.149-.129-.22M476.176 319.079c.113.177.167.312.182.386M476.356 319.469c.018.069-.026.137-.13.195M476.207 319.679c-.083.044-.245.077-.466.085M475.726 319.769a7.327 7.327 0 01-.678-.022M475.037 319.769a6.747 6.747 0 01-.745-.17"/><path stroke="#000" stroke-width=".57" stroke-linecap="round" stroke-linejoin="round" stroke-miterlimit="10" d="M457.367 276.809c-2.642-.004-5.131-.163-7.441-.481M449.897 276.329c-2.283-.319-4.105-.754-5.439-1.306M444.436 275.039c-1.313-.566-1.979-1.16-1.979-1.797"/><path stroke="#000" stroke-width=".27" stroke-linecap="round" stroke-linejoin="round" stroke-miterlimit="10" d="M474.287 319.619c-.773.022-1.341.046-1.697.05M472.577 319.679a9.997 9.997 0 01-.93-.051M471.647 319.649a7.775 7.775 0 01-.725-.162M470.897 319.499c-.186-.075-.402-.235-.625-.492M471.226 319.589c-.379.016-.669.022-.858-.004M470.356 319.589a1.137 1.137 0 00-.506.024M469.846 319.619c-.15.04-.302.062-.45.059M469.367 319.679a2.522 2.522 0 01-.362-.041M468.976 319.649a.324.324 0 00-.247.003M468.707 319.679c-.05.004-.174.03-.351.052M468.346 319.739a3 3 0 01-.492.003M467.836 319.769c-.141-.04-.258-.101-.333-.207M467.476 319.589a1.431 1.431 0 00-.192-.34"/><path stroke="#000" stroke-width=".57" stroke-linecap="round" stroke-linejoin="round" stroke-miterlimit="10" d="M475.096 265.859a62.187 62.187 0 014.022.051M479.117 265.918c1.241.045 2.219.118 2.935.211M482.027 266.159c.74.063 1.099.164 1.099.271M450.466 265.859a61.77 61.77 0 00-4.003.051M446.447 265.918c-1.223.045-2.201.118-2.917.211M443.506 266.159c-.691.063-1.05.164-1.05.271M442.457 345.179v.21l.089.15v.06l.06.09.061.03.03.03.029.06.061.03M483.707 281.879c.02-1.455-.007-2.79-.062-4.03M483.617 277.859a27.769 27.769 0 00-.191-2.942M483.407 274.918c-.074-.718-.175-1.076-.281-1.076M483.707 337.979a68.017 68.017 0 01-.062 3.978M483.617 341.969a27.75 27.75 0 01-.191 2.921M483.407 344.909c-.074.697-.175 1.055-.281 1.055M475.397 345.809l.119-.12M442.457 345.179v-70.53M442.787 274.019l-.181.149-.119.211-.03.27"/><path stroke="#000" stroke-width=".27" stroke-linecap="round" stroke-linejoin="round" stroke-miterlimit="10" d="M465.167 319.079l-.031-.36M465.226 319.439l-.059-.36M464.987 317.789l-.03-.24M465.077 318.509v-.12M465.136 318.719l-.059-.21M465.077 318.389l-.09-.48v-.12M464.926 317.429v-.12M464.957 317.549l-.031-.12M464.926 317.309l-.029-.12M464.836 316.739v-.12M464.897 317.189v-.09M464.836 316.619l-.03-.12M464.867 316.979l-.031-.24M464.897 317.099l-.03-.12M464.806 316.499l-.059-.48M464.626 315.059v-.12M464.716 315.779v-.12M464.626 314.939l-.03-.21M464.686 315.539v-.121M464.747 315.899l-.031-.12M464.716 315.659l-.03-.12M464.686 315.418l-.029-.239M464.747 316.019v-.12M464.657 315.179l-.031-.12M464.596 314.729v-.12M464.537 314.249v-.12M464.537 314.009l-.031-.12M464.567 314.369l-.03-.12M464.537 314.129v-.12M464.506 313.769l-.03-.24M464.596 314.609l-.029-.24M464.506 313.889v-.12M464.476 313.529v-.12M464.447 313.289l-.03-.24M464.476 313.409l-.029-.12M464.417 313.049v-.12M464.386 312.689v-.12M464.417 312.809l-.031-.12M464.386 312.569v-.12M464.327 311.729l-.031-.24M464.417 312.929v-.12M464.327 311.969v-.12M464.356 312.329v-.121M464.266 310.859l-.029-.12M464.386 312.449l-.03-.12M464.237 310.739v-.12M464.356 312.208l-.029-.239M464.266 311.009v-.15M464.237 310.619v-.12M464.296 311.489v-.12M464.296 311.249l-.03-.12M464.296 311.369v-.12M464.327 311.849v-.12M464.266 311.129v-.12M464.207 310.139v-.12M464.237 310.499v-.12M464.207 310.259v-.12M464.207 309.899l-.031-.12M464.207 310.019v-.12M464.176 309.779v-.12M464.237 310.379l-.03-.12M467.476 272.429l-.269.33M464.867 274.469l-.54.239M457.966 276.569l-.12.06M465.976 273.839l-.569.329M463.636 275.039l-.54.24M468.167 271.319l-.18.33M467.716 272.069l-.24.36M466.606 273.359l-.209.15M468.346 270.869l-.059.15M467.207 272.759l-.361.36M462.167 275.609l-.571.18M463.096 275.279l-.42.15M466.846 273.119l-.24.24M460.636 276.059l-.569.12M465.407 274.168l-.54.301M460.067 276.179l-.481.09M461.086 275.939l-.45.12M468.287 271.019l-.12.3M466.397 273.509l-.421.33M464.327 274.708l-.691.331M459.586 276.269l-.419.09M462.676 275.429l-.509.18M459.167 276.359l-.42.059M468.436 270.629l-.09.24M467.867 271.859l-.151.21M467.987 271.649l-.12.21M461.596 275.789l-.51.15M458.747 276.418l-.63.121M468.556 270.449l-.12.18M458.117 276.539l-.151.03M456.947 277.649l.029.15M456.917 277.439v.06M457.577 279.089l.12.21M456.976 277.799l.03.15M457.966 279.809l.75 1.5M457.067 277.079l-.061.089M457.306 276.869l-.09.06M459.827 283.829l1.229 3.15M457.006 277.949l.061.12M457.846 276.629l-.149.03M458.716 281.309l1.111 2.52M456.917 277.319v.12M457.277 278.489l.09.15M457.426 276.779l-.12.09M457.067 278.069l.09.21M456.947 277.229l-.03.09M457.157 278.279l.12.21M457.457 278.819l.12.27M457.367 278.639l.09.18M457.697 279.299l.269.51M457.157 276.989l-.09.09M457.006 277.168l-.059.061M456.917 277.499l.03.15M457.216 276.929l-.059.06M457.697 276.659l-.271.12M477.676 273.958v-.089M478.636 276.719l-.059-.18M477.016 270.089l-.059-.66M477.136 270.569l-.12-.48M477.827 274.529l-.061-.27M478.186 275.549l-.06-.21M477.947 274.859l-.12-.33M477.647 273.659l-.03-.12M478.697 276.869l-.061-.15M478.487 276.359l-.09-.21M478.577 276.539l-.09-.18M477.586 273.329l-.03-.39M478.247 275.759l-.061-.21M477.676 273.869l-.029-.09M477.556 272.939l-.029-.21M477.466 272.458l-.059-.389M477.346 271.679l-.21-1.11M477.647 273.779v-.12M477.407 272.069l-.061-.39M477.676 274.049v-.091M478.126 275.339l-.179-.48M476.957 269.429v-.57M478.397 276.149l-.061-.21-.089-.18M477.766 274.259l-.09-.21M477.527 272.729l-.061-.271M477.617 273.539l-.031-.21M476.957 268.859l-.031-.21M476.777 268.109l-.091-.18M476.836 268.319l-.059-.21M475.157 266.639h-.181M474.586 266.759l-.66.27M476.686 267.929l-.18-.27M475.606 266.759l-.18-.091M474.827 266.668l-.241.091M476.867 268.439l-.031-.12M475.306 266.639h-.149M468.947 269.969l-.151.15M469.457 269.549l-.21.15M473.417 267.299l-.84.42M468.796 270.119l-.24.33M475.787 266.879l-.181-.12M475.426 266.668l-.12-.029M476.926 268.649l-.059-.21M474.976 266.639l-.149.029M469.247 269.699l-.121.12M470.476 268.889l-.689.45M476.237 267.269l-.21-.18M476.506 267.659l-.12-.18M476.027 267.089l-.24-.21M469.787 269.339l-.33.21M472.577 267.719l-1.201.66M476.386 267.479l-.149-.21M469.126 269.819l-.179.15M473.926 267.029l-.509.27M471.376 268.379l-.9.51M460.037 300.539v-.06M459.947 300.059v-.09M459.856 299.549v-.06M459.827 299.279l-.031-.06M459.796 299.039l-.03-.06M460.067 300.689l-.03-.06M460.006 300.359l-.03-.06M459.917 299.909v-.06M459.976 300.179l-.029-.06M459.886 299.729v-.061M459.886 299.789v-.06M459.917 299.849l-.031-.06M459.766 298.979v-.09M460.037 300.629v-.09M459.766 298.889v-.06M460.006 300.418v-.059M459.766 298.829l-.029-.06M459.856 299.489l-.029-.09M459.796 299.219v-.06M460.037 300.479l-.031-.061M459.947 299.969l-.03-.06M459.737 298.769v-.061M459.827 299.399v-.06M459.856 299.609v-.06M459.796 299.159v-.06M459.947 300.119v-.06M459.796 299.099v-.06M459.976 300.239v-.06M459.976 300.299v-.06M459.886 299.668l-.03-.059M459.827 299.339v-.06M459.737 298.708v-.059M459.707 298.529v-.06M459.737 298.589l-.03-.06M459.707 298.379v-.06M459.676 298.139v-.06M459.707 298.469v-.09M459.676 298.079l-.029-.06M459.647 297.809v-.06M459.707 298.319l-.031-.18M459.647 298.019v-.09M459.737 298.649v-.06M459.647 297.929v-.12M459.556 296.609v-.09M459.556 296.849v-.06M459.527 295.889v-.12M459.617 297.509v-.091M459.617 297.359l-.031-.06M459.556 296.909v-.06M459.527 296.009v-.06M459.556 296.519v-.061M459.586 297.179v-.06M459.586 297.059v-.09M459.617 297.629v-.06M459.586 296.969l-.03-.06M459.556 296.789v-.06M459.527 296.339v-.12M459.617 297.418v-.059M459.556 296.729v-.061M459.647 297.749l-.03-.06M459.527 296.219v-.06M459.586 297.119v-.06M459.556 296.399l-.029-.06M459.556 296.668v-.059M459.617 297.689v-.06M459.617 297.569v-.06M459.586 297.239v-.06M459.527 296.159v-.15M459.586 297.299v-.06M459.556 296.458v-.059M459.527 295.949v-.06M459.527 295.109v-.12M459.527 295.499v-.06M459.527 295.379v-.06M459.527 295.619v-.12M459.527 295.439v-.06M459.527 295.319v-.06M459.527 295.708v-.089M459.527 295.769v-.061M459.527 295.168v-.059M459.527 295.259v-.091M459.527 294.989v-.06M459.527 294.809v-.09M459.556 293.429l.03-.06M459.586 293.069v-.06M459.556 293.819v-.06M459.556 293.579v-.06M459.527 294.418v-.089M459.527 294.269v-.061M459.556 293.969v-.09M459.586 293.189v-.06M459.527 294.089v-.06M459.527 294.149v-.06M459.527 294.929v-.06M459.527 294.029l.029-.06M459.527 294.539v-.06M459.556 293.759v-.06M459.556 293.639v-.06M459.556 293.519v-.09M459.527 294.479v-.061M459.556 293.879v-.06M459.586 293.009l.031-.091M459.527 294.208v-.059M459.586 293.249v-.06M459.527 294.329v-.06M459.527 294.869v-.06M459.527 294.599v-.06M459.527 294.659v-.06M459.586 293.369v-.06M459.586 293.129v-.06M459.586 293.309v-.06M459.556 293.699v-.06M459.527 294.719v-.06M459.827 291.089v-.09M459.617 292.799v-.06M459.827 290.999v-.06M459.766 291.389v-.06M459.827 290.939l.029-.06M459.737 291.779v-.06M459.766 291.449v-.06M459.617 292.859v-.06M459.617 292.679l.03-.06M459.676 292.168v-.059M459.617 292.739v-.06M459.676 292.289v-.06M459.737 291.719v-.06M459.617 292.918v-.059M459.766 291.509v-.06M459.647 292.559v-.15M459.737 291.659l.029-.15M459.647 292.619v-.06M459.707 292.019v-.12M459.766 291.329l.03-.06M459.647 292.349l.029-.06M459.647 292.409v-.06M459.796 291.269v-.12M459.676 292.229v-.061M459.796 291.149l.031-.06M459.707 291.839l.03-.06M459.707 291.899v-.06M459.676 292.109l.031-.09M460.216 288.929l.031-.06M459.886 290.639v-.06M460.037 289.739l.03-.06M460.186 289.109v-.06M460.006 289.949v-.09M460.067 289.679v-.06M459.917 290.429v-.06M459.856 290.879v-.06M459.947 290.309l.029-.12M459.976 290.069l.03-.06M460.126 289.379v-.06M460.157 289.229v-.061M460.186 289.049l.03-.06M459.856 290.759l.03-.06M459.917 290.519v-.09M460.006 289.859l.031-.06M459.886 290.699v-.06M459.886 290.579l.031-.06M459.976 290.189v-.06M459.856 290.819v-.06M460.096 289.499v-.06M460.006 290.009v-.06M460.096 289.439l.03-.06M460.096 289.559v-.06M460.216 288.989v-.06M459.976 290.129v-.06M460.067 289.619l.029-.06M459.917 290.369l.03-.06M460.126 289.319l.031-.09M460.157 289.168l.029-.059M460.037 289.799v-.06M460.546 287.609l.031-.06M460.457 287.999v-.06M460.697 287.129v-.06M460.336 288.479v-.061M460.247 288.809l.03-.06M460.426 288.059l.031-.06M460.277 288.689l.029-.06M460.457 287.939l.03-.06M460.606 287.369l.03-.06M460.667 287.249v-.06M460.367 288.299l.03-.06M460.546 287.668v-.059M460.426 288.119v-.06M460.667 287.189l.03-.06M460.577 287.489l.029-.06M460.277 288.749v-.06M460.247 288.869v-.06M460.606 287.429v-.06M460.306 288.539l.03-.06M468.466 286.529c-.493-.019-.872-.009-1.119.03M467.327 286.559a1.96 1.96 0 01-.657.003M466.667 286.589a1.622 1.622 0 00-.594-.063M466.067 286.529c-.188.01-.357.03-.503.06M465.556 286.589a.755.755 0 01-.354.003M465.197 286.619c-.09-.054-.253-.072-.485-.082M464.686 286.559a2.431 2.431 0 00-.632-.004M464.027 286.559c-.179.02-.328.086-.422.197M463.577 286.769c-.065.098-.156.206-.245.313M460.577 287.549v-.06M460.636 287.309l.031-.06M460.367 288.359v-.06M460.397 288.239l.029-.12M460.306 288.629v-.09M460.487 287.879v-.06M460.336 288.418l.031-.059M460.487 287.819l.059-.151M474.976 286.739c.126-.212.19-.351.207-.426M475.157 286.319c.042-.081-.018-.145-.155-.197M474.976 286.139c-.111-.069-.324-.093-.614-.087M474.346 286.079a4.926 4.926 0 00-.888.033M473.447 286.139c-.301.006-.629.07-.972.166M463.306 303.149a.807.807 0 00-.171-.24M477.917 276.839l.03.45M463.306 287.099c-.035.056-.097.129-.157.202M472.457 286.319c-1-.008-1.743.004-2.209.021M470.237 286.349c-.455.008-.865.04-1.219.088M469.006 286.439a6.886 6.886 0 00-.93.185M468.077 286.649c-.273.051-.55.224-.829.494M472.487 303.479c-1.009.031-1.751.055-2.217.059M470.266 303.539a13.04 13.04 0 01-1.229-.041M469.037 303.509a9.576 9.576 0 01-.948-.153M468.077 303.359c-.265-.066-.548-.227-.839-.483M477.827 275.519l.059.63.031.69M474.976 302.939c.135.186.205.32.225.395M475.186 303.359c.034.05-.023.116-.157.175M475.006 303.539c-.112.054-.324.087-.614.095M474.376 303.659c-.273-.018-.575-.023-.889-.042M473.476 303.629a8.12 8.12 0 01-.979-.161M477.707 274.229l.12 1.29M477.947 277.289l.029.54M468.497 303.449c-.507.025-.886.032-1.134.006M467.356 303.479a1.554 1.554 0 00-.67.004M466.667 303.509c-.184.019-.381.04-.575.037M466.067 303.569c-.169-.025-.34-.039-.487-.062M465.556 303.509a.665.665 0 00-.338.012M465.197 303.539c-.072.014-.234.04-.466.062M464.716 303.629c-.217-.009-.437-.005-.643-.019M464.056 303.629c-.189-.031-.343-.092-.44-.197M463.606 303.449c-.089-.123-.185-.228-.278-.33M477.676 274.049l.031.18"/><path stroke="#000" stroke-width=".57" stroke-linecap="round" stroke-linejoin="round" stroke-miterlimit="10" d="M472.936 319.679c.01 1.816.16 6.201.461 13.133M473.386 332.819c.312 6.925.723 10.851 1.243 11.768M474.617 344.609c.534.896 1.096 1.354 1.697 1.354"/><path stroke="#000" stroke-width=".27" stroke-linecap="round" stroke-linejoin="round" stroke-miterlimit="10" d="M477.197 289.619l.929-.63.901-.51M479.296 278.159l-.12-.241M483.287 284.009l-.361-.57M479.027 288.479l.42-.21M481.426 281.699l-.509-.6M482.027 286.859l.63-.63M479.447 288.269l1.83-.93M482.657 286.229l.51-.72M480.287 280.049l-.181-.3M483.167 285.509l.179-.42M481.277 287.339l.75-.48M479.386 278.369l-.09-.21M482.926 283.439l-.719-.81M479.957 279.479l-.21-.42M482.207 282.629l-.781-.93M479.567 278.759l-.181-.39M483.346 285.089v-.54M479.176 277.918l-.269-.539M480.917 281.099l-.63-1.05M478.907 277.379l-.12-.3M479.747 279.059l-.18-.3M478.787 277.079l-.09-.21M483.346 284.549l-.059-.54M480.106 279.749l-.149-.27"/><path stroke="#000" stroke-width=".57" stroke-linecap="round" stroke-linejoin="round" stroke-miterlimit="10" d="M450.466 353.999a141.215 141.215 0 01-4.003-.102M446.447 353.909c-1.223-.065-2.201-.139-2.917-.232M443.506 353.699c-.691-.115-1.05-.215-1.05-.322"/><path stroke="#000" stroke-width=".27" stroke-linecap="round" stroke-linejoin="round" stroke-miterlimit="10" d="M460.697 303.239l-.03-.12"/><path stroke="#000" stroke-width=".57" stroke-linecap="round" stroke-linejoin="round" stroke-miterlimit="10" d="M475.096 353.999c1.447-.021 2.782-.048 4.022-.102M479.117 353.909c1.241-.065 2.219-.139 2.935-.232M482.027 353.699c.74-.115 1.099-.215 1.099-.322M476.296 345.989a47.623 47.623 0 013.423.056M479.716 346.049c1.057.049 1.888.122 2.496.215M482.207 346.289c.614.068.919.169.919.276M458.476 342.958c-2.855 0-5.526.161-8.006.483M450.466 343.469c-2.476.295-4.431.734-5.862 1.292M444.586 344.789c-1.414.531-2.13 1.132-2.13 1.776"/><path stroke="#000" stroke-width=".27" stroke-linecap="round" stroke-linejoin="round" stroke-miterlimit="10" d="M460.726 303.299l-.029-.06M460.667 303.119l-.031-.06M460.577 302.849v-.06M460.186 301.319v-.09M460.367 302.069v-.06M460.636 303.059v-.06M460.336 301.859l-.03-.06M460.336 301.918v-.059M460.457 302.429v-.06M460.546 302.668l-.03-.059M460.306 301.739l-.029-.06M460.577 302.789l-.031-.06M460.306 301.799v-.06M460.277 301.679v-.06M460.397 302.129l-.03-.06M460.516 302.609v-.06M460.367 302.009l-.031-.091M460.277 301.619l-.03-.06M460.546 302.729v-.061M460.636 302.999l-.03-.06M460.457 302.369l-.06-.18M460.247 301.559v-.06M460.606 302.939l-.029-.09M460.397 302.189v-.06M460.247 301.499l-.031-.06M460.487 302.489l-.03-.06M460.516 302.549l-.029-.06M460.216 301.439l-.03-.12M460.096 300.809l-.029-.06M460.186 301.229l-.029-.12M460.126 301.049v-.06M460.096 300.869v-.06M460.126 300.929l-.03-.06M460.157 301.109l-.031-.06M460.067 300.749v-.06M460.126 300.989v-.06"/><path stroke="#000" stroke-width=".57" stroke-linecap="round" stroke-linejoin="round" stroke-miterlimit="10" d="M423.917 224.729l17.309-5.07-2.76-9.39"/><path stroke="#000" stroke-width=".57" stroke-linecap="round" stroke-linejoin="round" stroke-miterlimit="10" d="M419.686 210.269l4.231 14.46.54 1.92 17.309-5.07-.54-1.92"/><path stroke="#000" stroke-width=".57" stroke-linecap="round" stroke-linejoin="round" stroke-miterlimit="10" d="M417.586 210.269l4.411 15 21.15-6.18-2.58-8.82M405.317 182.219h48.09v28.05h-48.09z"/><path stroke="#000" stroke-width=".27" stroke-linecap="round" stroke-linejoin="round" stroke-miterlimit="10" d="M333.917 256.199v42.33M333.317 256.559v41.43M332.026 257.189v40.08M330.347 264.659v23.88M329.657 272.759v8.94M333.917 256.199l-.541-.09-1.35 1.08M333.917 298.529l-.571-.09-1.32-1.17M332.026 291.479l-1.679-2.94M330.347 264.659l1.679-3.27M330.347 272.759h-.69M329.657 281.699h.69M331.019 264.769a.23.23 0 10.46.001.23.23 0 00-.46-.001M331.019 265.497a.23.23 0 10.462-.002.23.23 0 00-.462.002M331.019 266.223a.23.23 0 10.46.001.23.23 0 00-.46-.001M331.019 266.951a.232.232 0 00.462 0 .231.231 0 00-.462 0M331.019 267.677a.23.23 0 10.46.001.23.23 0 00-.46-.001M331.019 268.404a.23.23 0 10.46.001.23.23 0 00-.46-.001M331.019 269.131a.232.232 0 00.462 0 .231.231 0 00-.462 0M331.019 269.858a.23.23 0 10.231-.231.23.23 0 00-.231.231M331.019 270.585a.232.232 0 00.462 0 .231.231 0 00-.462 0M331.019 271.312a.23.23 0 10.46.001.23.23 0 00-.46-.001M331.019 272.039a.23.23 0 10.46.001.23.23 0 00-.46-.001M331.019 272.766a.232.232 0 00.462 0 .231.231 0 00-.462 0M331.019 273.493a.23.23 0 10.231-.231.23.23 0 00-.231.231M331.019 274.219a.23.23 0 10.46.001.23.23 0 00-.46-.001M331.019 274.947a.23.23 0 10.231-.231.23.23 0 00-.231.231M331.019 275.673a.23.23 0 10.46.001.23.23 0 00-.46-.001M331.019 276.401a.232.232 0 00.462 0 .231.231 0 00-.462 0M331.019 277.127a.23.23 0 10.46.001.23.23 0 00-.46-.001M331.019 277.854a.23.23 0 10.46.001.23.23 0 00-.46-.001M331.019 278.582a.23.23 0 10.231-.231.23.23 0 00-.231.231M331.019 279.308a.23.23 0 10.46.001.23.23 0 00-.46-.001M331.019 280.036a.232.232 0 00.462 0 .231.231 0 00-.462 0M331.019 280.762a.23.23 0 10.46.001.23.23 0 00-.46-.001M331.019 281.489a.23.23 0 10.46.001.23.23 0 00-.46-.001M331.019 282.216a.23.23 0 10.462-.002.23.23 0 00-.462.002M331.019 282.943a.23.23 0 10.231-.231.23.23 0 00-.231.231M331.019 283.67a.232.232 0 00.462 0 .231.231 0 00-.462 0M331.019 284.397a.23.23 0 10.46.001.23.23 0 00-.46-.001M331.019 285.124a.23.23 0 10.46.001.23.23 0 00-.46-.001M331.019 285.851a.232.232 0 00.462 0 .231.231 0 00-.462 0M331.019 286.578a.23.23 0 10.231-.231.23.23 0 00-.231.231M331.019 287.304a.23.23 0 10.46.001.23.23 0 00-.46-.001M331.019 288.032a.23.23 0 10.231-.231.23.23 0 00-.231.231M331.019 288.758a.23.23 0 10.46.001.23.23 0 00-.46-.001"/><path stroke="#000" stroke-width=".57" stroke-linecap="round" stroke-linejoin="round" stroke-miterlimit="10" d="M325.636 188.459h20.04v177.51h-20.04zM345.676 306.809h-20.04M345.676 247.649h-20.04M325.636 188.459l20.04 59.19M325.636 247.649l20.04-59.19M325.636 247.649l20.04 59.16M325.636 306.809l20.04-59.16M325.636 306.809l20.04 59.16M325.636 365.969l20.04-59.16"/></g></svg>