<svg xmlns="http://www.w3.org/2000/svg" width="522" height="472"><g stroke="#000" stroke-width=".5" stroke-miterlimit="10"><path fill-rule="evenodd" clip-rule="evenodd" d="M104.11 112.17v5.01l63.51-.81v2.79l103.59-.78v24.84h35.46v-4.41h-31.26V79.92h-4.2v20.82h-10.83v9.63h-41.07V83.91h-3.99v25.05h-99.99v-50.7h17.64v-6.21h82.35v4.02h60.09v-3.6H442.9l1.65 64.71h14.82v.78h6.57v-76.8H442.9v6.9H115.33v-6.9h-8.01v59.49l-18.42.24v11.49z"/><path fill="none" stroke-linecap="round" stroke-linejoin="round" d="M104.11 112.17v5.01l63.51-.81v2.79l103.59-.78v24.84h35.46v-4.41h-31.26V79.92h-4.2v20.82h-10.83v9.63h-41.07V83.91h-3.99v25.05h-99.99v-50.7h17.64v-6.21h82.35v4.02h60.09v-3.6H442.9l1.65 64.71h14.82v.78h6.57v-76.8H442.9v6.9H115.33v-6.9h-8.01v59.49l-18.42.24v11.49z"/><path fill-rule="evenodd" clip-rule="evenodd" d="M69.67 198.3v-8.821H51.82V101.4l-15.81.21v10.77h7.8v77.099h-7.8v16.441h77.13v192.12H90.7v22.83h61.29v-8.011h-.78V398.04h-28.05V205.92h33.24v-4.41h-24.84v-12.031h-13.62v8.821z"/><path fill="none" stroke-linecap="round" stroke-linejoin="round" d="M69.67 198.3v-8.821H51.82V101.4l-15.81.21v10.77h7.8v77.099h-7.8v16.441h77.13v192.12H90.7v22.83h61.29v-8.011h-.78V398.04h-28.05V205.92h33.24v-4.41h-24.84v-12.031h-13.62v8.821z"/><path fill-rule="evenodd" clip-rule="evenodd" d="M246.76 412.859h-.81v8.011h70.321v-8.011h-.811V398.04H277V220.53h31.65v-11.82H275.8V189.3h-14.01v12.21h-36.06v4.41h19.83v6.6h27.84v185.52h-26.64z"/><path fill="none" stroke-linecap="round" stroke-linejoin="round" d="M246.76 412.859h-.81v8.011h70.321v-8.011h-.811V398.04H277V220.53h31.65v-11.82H275.8V189.3h-14.01v12.21h-36.06v4.41h19.83v6.6h27.84v185.52h-26.64z"/><path fill-rule="evenodd" clip-rule="evenodd" d="M409.84 420.87h56.1V207.33h-6.57v.78H344.11v-69.3h-2.58v81.72h4.8v-6.6l63.9.39v6.21h32.85v177.51h-32.46v14.819h-.78z"/><path fill="none" stroke-linecap="round" stroke-linejoin="round" d="M409.84 420.87h56.1V207.33h-6.57v.78H344.11v-69.3h-2.58v81.72h4.8v-6.6l63.9.39v6.21h32.85v177.51h-32.46v14.819h-.78zM187.66 205.92h6.81M194.47 201.51h-6.81"/><path fill-rule="evenodd" clip-rule="evenodd" d="M187.66 205.92h6.81v-4.41h-6.81"/><path fill="none" stroke-linecap="round" stroke-linejoin="round" d="M275.41 52.47H442.9l1.65 64.71M459.37 208.11H344.11v-69.3M275.41 52.47v3.6M275.41 138.81h31.26M275.41 56.07h-60.09M275.41 79.92h-4.2v20.82M275.41 79.92v58.89M306.67 138.81v4.41M271.21 143.22h35.46M341.53 138.81h2.58M260.38 110.37h-41.07M219.31 83.91v26.46M215.32 83.91v25.05M219.31 83.91h-3.99M260.38 100.74v9.63M271.21 100.74h-10.83M115.33 58.26v50.7M215.32 52.05h-82.35M215.32 56.07v-4.02M215.32 108.96h-99.99M132.97 58.26h-17.64M132.97 52.05v6.21M115.33 100.74h2.4M119.74 100.74h4.02M125.74 100.74h4.02M131.771 100.74h3.989M137.771 100.74h4.019M143.771 100.74h4.019M149.8 100.74h3.99M155.8 100.74h4.02M161.83 100.74h3.99M167.83 100.74h3.99M173.83 100.74h4.02M179.86 100.74h3.99M185.86 100.74h3.99M191.86 100.74h4.02M197.89 100.74h3.99M203.89 100.74h3.99M209.89 100.74h4.02M215.92 100.74h3.99M221.92 100.74h3.99M227.92 100.74h4.02M233.95 100.74h3.99M239.95 100.74h3.99M245.95 100.74h4.02M251.98 100.74h3.99M257.98 100.74h2.4M123.16 205.92v192.12h28.05M273.4 398.04V212.52M123.16 205.92h33.24M156.4 201.51v4.41M187.66 201.51v4.41M194.47 201.51v4.41M225.73 201.51v4.41M156.01 200.7h2.011v6.029h-2.611v-.809h1.8v-4.41h-1.2z"/><path fill="none" stroke-linecap="round" stroke-linejoin="round" d="M157.21 205.92h-.81v-4.41h.81l-.81 4.41h.81l-.81-4.41M186.85 205.92h.81v-4.41h-.81l.81 4.41h-.81l.81-4.41"/><path fill="none" stroke-linecap="round" stroke-linejoin="round" d="M188.05 200.7h-1.98v6.029h2.58v-.809h-1.8v-4.41h1.2zM184.45 206.729h1.62v28.05h-1.62zM158.021 206.729l.059.691.45 2.85.09.33M159.61 214.08l.09.33.63 1.59.15.3M162.1 219.54l1.08 1.74.21.27M165.58 224.4l.48.51.211.27.719.72.24.27M169.96 228.54l1.65 1.2.3.18M175.03 231.75l1.23.6.96.39M180.61 233.94l1.38.36.36.06.33.09 1.77.33M226.12 200.7h-2.01v6.029h2.61v-.809h-1.8v-4.41h1.2z"/><path fill="none" stroke-linecap="round" stroke-linejoin="round" d="M224.92 205.92h.81v-4.41h-.81l.81 4.41h-.81l.81-4.41M195.28 205.92h-.81v-4.41h.81l-.81 4.41h.81l-.81-4.41"/><path fill="none" stroke-linecap="round" stroke-linejoin="round" d="M194.08 200.7h1.98v6.029h-2.58v-.809h1.8v-4.41h-1.2zM196.06 205.11h28.05v1.62h-28.05zM225.73 201.51h36.06M225.73 205.92h19.83v6.6h27.84M187.66 201.51h6.81M187.66 205.92h6.81M187.66 201.51h-2.61M183.04 201.51h-3.99M177.04 201.51h-4.019M171.04 201.51h-4.019M165.01 201.51h-3.989M159.01 201.51h-2.61M156.4 205.92h2.61M161.021 205.92h3.989M167.021 205.92h4.019M173.021 205.92h4.019M179.05 205.92h3.99M185.05 205.92h2.61M194.47 201.51h2.61M199.09 201.51h3.99M205.09 201.51h3.99M211.09 201.51h4.02M217.12 201.51h3.99M223.12 201.51h2.61M225.73 205.92h-2.61M221.11 205.92h-3.99M215.11 205.92h-4.02M209.08 205.92h-3.99M203.08 205.92h-3.99M197.08 205.92h-2.61M151.21 398.04v14.819M90.7 420.87h61.29M151.21 412.859h.78v8.011M246.76 398.04v14.819h-.81v8.011M246.76 398.04h26.64M245.95 420.87h70.321M150.4 398.04v-2.79h97.17v2.79M151.21 398.04h4.71M157.9 398.04h4.02M163.93 398.04h3.99M169.93 398.04h4.02M175.93 398.04h4.02M181.96 398.04h3.99M187.96 398.04h4.02M193.96 398.04h4.02M199.99 398.04h3.99M205.99 398.04h4.02M211.99 398.04h4.02M218.021 398.04h3.989M224.021 398.04h4.019M230.021 398.04h4.019M236.05 398.04h3.99M242.05 398.04h4.71M151.99 420.87h3.93M157.9 420.87h4.02M163.93 420.87h3.99M169.93 420.87h4.02M175.93 420.87h4.02M181.96 420.87h3.99M187.96 420.87h4.02M193.96 420.87h4.02M199.99 420.87h3.99M205.99 420.87h4.02M211.99 420.87h4.02M218.021 420.87h3.989M224.021 420.87h4.019M230.021 420.87h4.019M236.05 420.87h3.99M242.05 420.87h3.9M277 398.04h38.46M277 398.04V220.53h31.65M443.08 220.53v177.51M51.82 189.479h17.85M51.82 101.4v88.079M69.67 189.479v8.821h48.27M117.94 189.479v8.821M117.94 189.479h13.62v12.031h24.84M261.79 201.51V189.3h14.01M275.8 208.71V189.3M275.8 208.71h32.85M104.11 117.18l63.51-.81M51.82 117.78l4.11-.06M57.94 117.69l4.02-.09M63.94 117.57l4.02-.06M69.97 117.479l3.99-.059M75.97 117.39l4.02-.06M81.97 117.3l4.02-.06M88 117.21l3.99-.06M94 117.12l4.021-.06M100 117.03l4.11-.06M308.65 208.71v11.82M341.53 138.81v81.72h4.8M341.53 216.15v4.38"/><path fill="none" stroke-linecap="round" stroke-linejoin="round" d="M341.53 215.34h-1.2v6h3.99v-.81h-3.21v-4.38h.42z"/><path fill="none" stroke-linecap="round" stroke-linejoin="round" d="M341.11 220.53h.42v-4.38h-.42l.42 4.38h-.42l.42-4.38M311.471 220.53h-2.221v-4.38h2.221l-2.221 4.38h2.221l-2.221-4.38"/><path fill="none" stroke-linecap="round" stroke-linejoin="round" d="M308.86 215.34h3.42v6h-4.019v-.81h3.21v-4.38h-2.611zM312.28 221.34h1.59v28.05h-1.59zM313.87 249.39l2.55-.6 1.08-.33M320.86 247.2l1.861-.9.3-.18M326.11 244.26l.84-.57 1.08-.84M330.73 240.45l.51-.48.93-.991.21-.269M334.63 235.89l1.29-2.04M337.601 230.67l.149-.3.12-.33.151-.3.509-1.29M339.61 225l.18-.72.54-2.94M341.53 220.53h-3.12M336.4 220.53h-3.99M330.4 220.53h-4.02M324.4 220.53h-4.02M318.37 220.53h-3.99M312.37 220.53h-3.12M410.23 214.32v6.21M346.33 213.93l63.9.39M346.33 213.93v6.6M410.23 220.53h32.85M410.23 220.53h-3.9M404.32 220.53h-3.99M398.32 220.53h-4.02M392.29 220.53h-3.99M386.29 220.53h-3.99M380.29 220.53h-4.019M374.261 220.53h-3.99M368.261 220.53h-3.99M362.261 220.53h-4.021M356.23 220.53h-3.99M350.23 220.53h-3.9M261.79 201.51v4.11M261.79 207.63v3.99M261.79 213.63v4.02M261.79 219.63v4.02M261.79 225.66v3.99M261.79 231.66v4.02M261.79 237.66v4.02M261.79 243.69v3.99M261.79 249.69v4.02M261.79 255.689v4.021M261.79 261.72v3.99M261.79 267.72v4.019M261.79 273.72v4.019M261.79 279.75v3.989M261.79 285.75v4.02M261.79 291.75v4.02M261.79 297.779v3.991M261.79 303.779v4.021M261.79 309.779v4.021M261.79 315.81v3.99M261.79 321.81v4.02M261.79 327.81v4.02M261.79 333.84v3.99M261.79 339.84v4.019M261.79 345.84v4.019M261.79 351.87v3.989M261.79 357.87v4.02M261.79 363.87v4.02M261.79 369.899v3.991M261.79 375.899v4.021M261.79 381.899v4.021M261.79 387.93v3.99M261.79 393.93v4.11M308.65 208.71h3.42M314.08 208.71h3.99M320.08 208.71h4.021M326.08 208.71h4.021M332.11 208.71h3.991M338.11 208.71h3.42M271.21 118.38v24.84M275.8 189.3v-4.02M275.8 183.27v-3.99M275.8 177.27v-4.02M275.8 171.27v-4.02M275.8 165.24v-3.99M275.8 159.24v-4.02M275.8 153.24v-4.02M275.8 147.21v-3.99M271.21 143.22v3.99M271.21 149.22v4.02M271.21 155.22v4.02M271.21 161.25v3.99M271.21 167.25v4.02M271.21 173.25v4.02M271.21 179.28v3.99M271.21 185.28v4.02M261.79 189.3h-4.019M255.76 189.3h-3.989M249.76 189.3h-3.989M243.76 189.33h-4.02M237.73 189.33h-3.99M231.73 189.33h-3.99M225.73 189.36h-4.02M219.7 189.36h-3.99M213.7 189.36h-3.99M207.7 189.36l-4.02.03M201.67 189.39h-3.99M195.67 189.39h-3.99M189.67 189.39l-4.02.03M183.64 189.42h-3.99M177.64 189.42h-3.99M171.64 189.42h-4.02M165.61 189.45h-3.99M159.61 189.45h-4.02M153.61 189.45h-4.02M147.58 189.479h-3.99M141.58 189.479h-4.02M135.58 189.479h-4.02M117.94 189.479h-2.1M113.83 189.479h-3.99M107.83 189.479h-4.02M101.8 189.479h-3.99M95.8 189.479h-3.99M89.8 189.479h-4.02M83.771 189.479H79.78M77.771 189.479H73.78M71.771 189.479H69.67M167.62 119.16l103.59-.78M104.11 112.17v5.01M167.62 119.16v-2.79M88.9 112.38l15.21-.21M88.9 100.89v11.49M261.79 189.3l-.06-2.43M261.7 184.89l-.06-4.02M261.61 178.86l-.089-3.99M261.49 172.86l-.06-4.02M261.37 166.86l-.06-4.02M261.28 160.83l-.06-3.99M261.16 154.83l-.06-3.99M261.07 148.83l-.09-4.02M260.95 142.8l-.06-3.99M260.86 136.8l-.089-3.99M260.74 130.8l-.06-4.02M260.65 124.8l-.09-4.02M260.53 118.77l-.06-3.99M260.41 112.77l-.03-2.4M36.01 101.61l15.81-.21M88.9 100.89l18.42-.24M315.46 398.04v14.819h.811v8.011M410.62 398.04v14.819h-.78v8.011M314.681 398.04v-2.79h96.75v2.79M315.46 398.04h4.53M321.971 398.04h4.019M328 398.04h3.99M334 398.04h4.021M340 398.04h4.021M346.03 398.04h3.991M352.03 398.04h4.02M358.061 398.04h3.989M364.061 398.04h3.989M370.061 398.04h4.019M376.09 398.04h3.99M382.09 398.04h3.99M388.09 398.04h4.02M394.12 398.04h3.99M400.12 398.04h3.99M406.12 398.04h4.5M316.271 420.87h3.719M321.971 420.87h4.019M328 420.87h3.99M334 420.87h4.021M340 420.87h4.021M346.03 420.87h3.991M352.03 420.87h4.02M358.061 420.87h3.989M364.061 420.87h3.989M370.061 420.87h4.019M376.09 420.87h3.99M382.09 420.87h3.99M388.09 420.87h4.02M394.12 420.87h3.99M400.12 420.87h3.99M406.12 420.87h3.72M410.62 398.04h32.46M409.84 420.87h56.1M410.62 404.04h-1.979M406.63 404.04h-4.02M400.63 404.04h-4.02M394.601 404.04h-3.991M388.601 404.04h-4.021M382.601 404.04h-4.021M376.57 404.04h-3.99M370.57 404.04h-4.02M364.57 404.04h-4.02M358.54 404.04h-3.99M352.54 404.04h-2.01v4.41M350.53 410.46v4.019M350.53 416.46v4.41M465.94 41.16v76.8M115.33 48.06H442.9v-6.9M473.261 41.16h-4.441M464.8 41.16h-8.01M452.8 41.16h-8.039M440.771 41.16h-8.01M428.74 41.16h-8.01M416.74 41.16h-8.04M404.71 41.16h-8.01M392.681 41.16h-8.011M380.681 41.16h-8.04M368.65 41.16h-8.009M356.62 41.16h-8.01M344.59 41.16h-8.01M332.59 41.16h-8.01M320.561 41.16h-8.011M308.53 41.16h-8.009M296.53 41.16h-8.009M284.5 41.16h-8.01M272.47 41.16h-8.01M260.47 41.16h-8.01M248.44 41.16h-8.01M236.41 41.16h-8.01M224.41 41.16h-8.01M212.38 41.16h-8.01M200.35 41.16h-8.01M188.35 41.16h-8.01M176.32 41.16h-8.01M164.29 41.16h-8.01M152.29 41.16h-8.01M140.26 41.16h-8.01M128.23 41.16h-8.01M116.23 41.16h-8.01M104.2 41.16h-4.44M107.32 41.16v59.49M115.33 48.06v-6.9M113.14 205.92v192.12M113.14 205.92H36.01M43.81 112.38v77.099h-7.8M36.01 211.92V204M36.01 200.01V192M36.01 187.979v-8.009M36.01 175.95v-8.01M36.01 163.95v-8.01M36.01 151.92v-8.01M36.01 139.89v-8.01M36.01 127.89v-8.01M36.01 115.86v-8.01M36.01 103.83v-8.01M36.01 91.83v-7.92M43.81 112.38h-7.8M113.14 398.04H90.7M90.7 436.38v-4.05M90.7 428.34v-8.01M90.7 416.31v-8.01M90.7 404.279v-8.009M90.7 392.279v-8.009M90.7 380.25v-4.05M271.21 118.38v20.43M459.37 117.18h-14.82M459.37 208.11v-.78h6.57M459.37 117.18v.78h6.57M465.94 207.33v213.54M465.94 207.33v-4.62M465.94 200.7v-3.99M465.94 194.7v-4.02M465.94 188.7v-4.02M465.94 182.67v-3.99M465.94 176.67v-4.02M465.94 170.67v-4.02M465.94 164.64v-3.99M465.94 158.64v-4.02M465.94 152.64v-4.02M465.94 146.61v-3.99M465.94 140.61v-4.02M465.94 134.61v-4.02M465.94 128.58v-3.99M465.94 122.58v-4.62M444.55 117.18l.03 2.4M444.58 121.59l.03 3.99M444.641 127.59l.029 3.99M444.7 133.59l.03 4.02M444.73 139.62l.031 3.99M444.79 145.62l.03 3.99M444.82 151.62l.06 4.02M444.88 157.65l.03 3.99M444.94 163.65l.03 3.99M444.97 169.65l.03 4.02M445.03 175.68l.031 3.99M445.09 181.68l.03 3.99M445.12 187.68l.03 4.02M445.181 193.71l.029 3.99M445.21 199.71l.061 3.99M445.271 205.71l.029 2.4M151.21 404.04h4.71M157.9 404.04h4.02M163.93 404.04h3.99M169.93 404.04h4.02M175.93 404.04h4.02M181.96 404.04h3.99M187.96 404.04h4.02M193.96 404.04h4.02M199.99 404.04h3.99M205.99 404.04h4.02M211.99 404.04h4.02M218.021 404.04h3.989M224.021 404.04h4.019M230.021 404.04h4.019M236.05 404.04h3.99M242.05 404.04h4.71M450.16 117.18l.03 2.4M450.19 121.59l.03 3.99M450.25 127.59l.03 3.99M450.311 133.59l.029 4.02M450.34 139.62l.03 3.99M450.4 145.62l.031 3.99M450.431 151.62l.059 4.02M450.49 157.65l.031 3.99M450.55 163.65l.03 3.99M450.58 169.65l.03 4.02M450.641 175.68l.029 3.99M450.7 181.68l.03 3.99M450.73 187.68l.031 4.02M450.79 193.71l.03 3.99M450.82 199.71l.06 3.99M450.88 205.71l.03 2.4M444.521 116.37h-2.791l.75 91.83M215.08 412.14v.719h-1.59M214.271 409.319h2.82v2.82h-2.82zM243.94 412.14v.719h2.82v-2.79h-2.01"/><path fill="none" stroke-linecap="round" stroke-linejoin="round" d="M241.96 409.319h2.79v2.82h-2.79zM217.09 412.14h24.87M241.96 409.319h-24.87M217.09 410.729h24.87M186.07 412.14v.719h-1.59M185.29 409.319h2.79v2.82h-2.79zM211.87 412.14v.719h1.62M209.86 409.319h2.82v2.82h-2.82zM188.08 412.14h21.78M209.86 409.319h-21.78M188.08 410.729h21.78M154 412.14v.719h-2.79v-2.79h1.98"/><path fill="none" stroke-linecap="round" stroke-linejoin="round" d="M153.19 409.319h2.82v2.82h-2.82zM182.89 412.14v.719h1.59M180.88 409.319h2.79v2.82h-2.79zM156.01 412.14h24.87M180.88 409.319h-24.87M156.01 410.729h24.87M382.181 412.14v.719h-1.591M381.37 409.319h2.82v2.82h-2.82zM409.03 412.14v.719h1.59v-2.79h-.78"/><path fill="none" stroke-linecap="round" stroke-linejoin="round" d="M407.021 409.319h2.819v2.82h-2.819zM384.19 412.14h22.831M407.021 409.319H384.19M384.19 410.729h22.831M352.15 412.14v.719h-1.62v-2.79h.81"/><path fill="none" stroke-linecap="round" stroke-linejoin="round" d="M351.34 409.319h2.79v2.82h-2.79zM378.97 412.14v.719h1.62M376.99 409.319h2.79v2.82h-2.79zM354.13 412.14h22.86M376.99 409.319h-22.86M354.13 410.729h22.86M318.28 412.14v.719h-2.82v-2.79h2.011"/><path fill="none" stroke-linecap="round" stroke-linejoin="round" d="M317.471 409.319h2.819v2.82h-2.819zM347.74 412.14v.719h2.79v-2.79h-2.009"/><path fill="none" stroke-linecap="round" stroke-linejoin="round" d="M345.73 409.319h2.79v2.82h-2.79zM320.29 412.14h25.44M345.73 409.319h-25.44M320.29 410.729h25.44M317.471 412.14v-2.52M317.471 407.64v-4.02M317.471 401.609v-3.989M317.471 395.609v-4.019M317.471 389.609v-4.019M317.471 383.58v-2.49"/><path fill="none" stroke-linecap="round" stroke-linejoin="round" d="M348.521 412.14v-1.02l-.09-1.35M348.221 407.79l-.33-1.98-.241-.96-.24-.991M346.811 401.97l-.571-1.56-.99-2.131M344.32 396.51l-1.44-2.25-.81-1.08M340.811 391.649l-1.861-1.949-.99-.9M336.431 387.54l-.54-.42-1.08-.75-1.71-1.08M331.33 384.359l-.899-.449-1.83-.78-.96-.33M325.75 382.2l-.66-.18-2.94-.6-.33-.03M319.84 381.18l-.69-.06-1.679-.03M458.65 146.85h.72v1.59"/><path fill="none" stroke-linecap="round" stroke-linejoin="round" d="M455.86 144.84h2.79v2.82h-2.79zM458.65 119.97h.72v-2.79h-2.79v1.98"/><path fill="none" stroke-linecap="round" stroke-linejoin="round" d="M455.86 119.16h2.79v2.82h-2.79zM458.65 144.84v-22.861M455.86 121.979v22.861M457.24 144.84v-22.861M458.65 175.229h.72v1.621"/><path fill="none" stroke-linecap="round" stroke-linejoin="round" d="M455.86 173.25h2.79v2.79h-2.79zM458.65 150.06h.72v-1.62"/><path fill="none" stroke-linecap="round" stroke-linejoin="round" d="M455.86 149.25h2.79v2.79h-2.79zM458.65 173.25v-21.21M455.86 152.04v21.21M457.24 173.25v-21.21M458.65 205.32h.72v2.79h-2.79v-1.98"/><path fill="none" stroke-linecap="round" stroke-linejoin="round" d="M455.86 203.31h2.79v2.82h-2.79zM458.65 178.44h.72v-1.59"/><path fill="none" stroke-linecap="round" stroke-linejoin="round" d="M455.86 177.63h2.79v2.82h-2.79zM458.65 203.31v-22.86M455.86 180.45v22.86M457.24 203.31v-22.86M456.58 148.44v.81M456.58 148.44v-.78M456.58 176.85v-.81M456.58 176.85v.78M380.59 410.069h.78M380.59 410.069h-.81M213.49 410.069h-.81M213.49 410.069h.781M184.48 410.069h-.81M184.48 410.069h.81M306.67 138.81h4.41M313.061 138.81h4.019M319.09 138.81h3.99M325.09 138.81h4.02M331.09 138.81h4.02M337.12 138.81h4.41M306.67 143.22h4.41M313.061 143.22h4.019M319.09 143.22h3.99M325.09 143.22h4.02M331.09 143.22h4.02M337.12 143.22h4.41M53.53 112.38h-1.71v-4.8h1.71l-1.71 4.8h1.71l-1.71-4.8"/><path fill="none" stroke-linecap="round" stroke-linejoin="round" d="M51.82 106.77h2.52v6.42h-2.52v-.81h1.71v-4.8h-1.71zM54.34 113.19h1.59v32.07h-1.59z"/><path fill="none" stroke-linecap="round" stroke-linejoin="round" d="M55.93 145.26l1.38-.09h.33M61.21 144.66l1.02-.21 1.32-.36M66.94 142.92l.96-.39 1.23-.6M72.25 140.13l.3-.18.27-.21.3-.18 1.11-.84M76.93 136.38l.51-.48 1.17-1.26M80.83 131.79l1.29-2.04M83.74 126.54l.15-.3.12-.33.15-.3.48-1.29M85.63 120.84l.45-2.34M86.38 114.9l.03-1.02-.03-.33v-.36M87.19 112.38h1.71v-4.8h-1.71l1.71 4.8h-1.71l1.71-4.8"/><path fill="none" stroke-linecap="round" stroke-linejoin="round" d="M88.9 106.77h-2.52v6.42h2.52v-.81h-1.71v-4.8h1.71zM215.32 83.91v-3.9M215.32 78v-3.99M215.32 72v-4.02M215.32 65.97v-3.99M215.32 59.97v-3.9M219.31 83.91v-3.9M219.31 78v-3.99M219.31 72v-4.02M219.31 65.97v-3.99M219.31 59.97v-3.9M442.9 41.16h23.04M107.32 41.16h8.01M36.01 101.61v10.77M36.01 189.479v16.441M90.7 398.04v22.83M71.65 182.28h44.28v16.02H71.65zM71.65 182.28l44.28 16.02M71.65 198.3l44.28-16.02M168.43 129.99h102.78M168.43 128.79h102.78M224.59 138l1.32-8.01M227.71 138l.96-8.01M232.72 120.78v8.01M236.23 120.78l.6 8.01M245.95 120.78l-1.74 8.01M251.44 120.78v8.01M248.26 120.78l.69 8.01M255.49 120.78l1.59 8.01M260.8 138v-8.01M239.65 138v-8.01M263.14 138l1.59-8.01M268.271 120.78v8.01M223.03 120.78v8.01M226.09 128.79l1.32-8.01M260.8 128.79v-8.01M243.94 129.99L242.2 138M232.72 129.99V138M228.79 128.79l.96-8.01M236.92 129.99l.601 8.01M239.65 128.79v-8.01M251.44 129.99V138M257.32 129.99l1.56 8.01M223.03 129.99V138M264.97 128.79l1.59-8.01M249.04 129.99l.69 8.01M268.271 129.99V138M167.62 119.16v24.06h103.59M199.66 138l-1.32-8.01M196.51 138l-.93-8.01M191.53 120.78v8.01M188.021 120.78l-.601 8.01M178.3 120.78l1.74 8.01M172.78 120.78v8.01M175.99 120.78l-.69 8.01M184.6 138v-8.01M198.16 128.79l-1.32-8.01M180.31 129.99l1.74 8.01M191.53 129.99V138M195.43 128.79l-.93-8.01M187.33 129.99l-.6 8.01M184.6 128.79v-8.01M172.78 129.99V138M175.18 129.99l-.69 8.01M204.94 138l1.29-8.01M208.06 138l.961-8.01M213.07 120.78v8.01M216.58 120.78l.6 8.01M206.44 128.79l1.32-8.01M213.07 129.99V138M209.14 128.79l.96-8.01M217.271 129.99l.569 8.01M200.47 138l1.32-8.01M203.62 138l.93-8.01M201.97 128.79l1.32-8.01M204.7 128.79l.93-8.01"/><path fill="none" stroke-linecap="round" stroke-linejoin="round" d="M168.43 119.16v23.25h102.78M111.49 117.09h56.1v18.03h-56.1zM189.46 224.16h83.13M189.46 222.96h83.13M236.08 232.17l-1.32-8.01M232.93 232.17l-.93-8.01M227.95 214.92v8.04M224.44 214.92l-.6 8.04M214.69 214.92l1.77 8.04M209.2 214.92v8.04M212.41 214.92l-.69 8.04M205.18 214.92l-1.59 8.04M221.021 232.17v-8.01M197.5 232.17l-1.59-8.01M192.4 214.92v8.04M237.61 214.92v8.04M234.55 222.96l-1.29-8.04M216.73 224.16l1.74 8.01M227.95 224.16v8.01M231.85 222.96l-.93-8.04M223.75 224.16l-.6 8.01M221.021 222.96v-8.04M209.2 224.16v8.01M203.35 224.16l-1.59 8.01M237.61 224.16v8.01M195.7 222.96l-1.59-8.04M211.6 224.16l-.69 8.01M192.4 224.16v8.01M261.01 232.17l1.32-8.01M264.13 232.17l.96-8.01M269.14 214.92v8.04M262.51 222.96l1.32-8.04M269.14 224.16v8.01M265.21 222.96l.96-8.04M255.73 232.17l-1.32-8.01M252.58 232.17l-.93-8.01M247.6 214.92v8.04M244.09 214.92l-.6 8.04M254.23 222.96l-1.32-8.04M247.6 224.16v8.01M251.5 222.96l-.93-8.04M243.4 224.16l-.6 8.01M260.17 232.17l-1.29-8.01M257.05 232.17l-.93-8.01M258.67 222.96l-1.29-8.04M255.97 222.96l-.93-8.04M188.65 212.52h84.75v24.06h-84.75z"/><path fill="none" stroke-linecap="round" stroke-linejoin="round" d="M189.46 213.33h83.13v22.44h-83.13zM271.39 296.25v61.109h2.01v-80.13h-2.01v4.201M185.92 357.12l.33.119M185.65 356.939l.27.181M185.44 356.67l.21.269M191.92 277.319h-5.31l-.36.061-.33.12-.27.18-.21.24-.15.3-.03.3M186.25 357.239l.36.031h5.34M185.26 356.069l.03.33.15.271M254.62 351.6l-.81.089M258.55 328.5l.15 1.529M258.85 353.13h-.03M258.521 328.41h0M249.16 349.89l.15.03M254.95 351.27l-2.58-1.65M248.56 353.52v.03M258.49 328.26l-.09-.12M250.99 350.939l-1.469-.87M248.56 353.55h.12M259.21 353.25h-.09M254.62 351.6l.18-.06M253.78 351.689l-1.62.481M259.33 353.22l-.12.03M259.24 352.83v-.66M249.31 349.92l.211.149M258.521 328.38v.03M248.65 349.5l.51.39M248.68 353.55l1.71-.54M251.5 351.21l-.51-.271M259.39 353.01l-.06.21M255.43 351.6l-.03.03M250.54 352.92l-.15.09M259.72 352.2l-.09.329M260.08 349.8l-.36 2.4M255.46 351.63h.03M258.82 353.13l-1.47-.72M252.88 351.39l-1.38-.18M252.37 349.62l-1.38-1.62M257.35 352.41l-1.5-.57M245.92 300.989l1.26 1.801M258.94 292.29l.06 1.319M245.92 300.989l-.09-6.659M258.1 287.34l.3 3.059M258.94 292.29l-.54-1.891M256.09 287.67l1.47-.96M258.1 287.22h0M258.07 287.04l-.09-.12M257.83 286.739l-.12-.029h-.15M247.42 286.83h0M248.92 287.67l-1.5-.84M257.98 286.92l-.15-.181M252.64 289.14h-.75M247.42 286.83h-.03M246.46 307.95l.72-5.16M258.1 287.189v.031M246.46 307.979v-.029M247.3 286.8l-.51.479M248.92 287.67l2.851 1.53M246.7 287.46l.09-.181M246.64 288.06l.06-.6M246.07 289.649l.57-1.589M255.82 287.85l.27-.18M245.74 291.51l.09 2.82M246.07 289.649l-.33 1.861M256.271 307.439l-.061-.299M256.271 307.439l-.061 1.111M256.6 335.489l-.15-.09M254.08 307.77l1.62-.96M246.13 331.71l.12.029M256.21 307.14l-.09-.12M255.94 306.84l-.12-.03M256.87 335.55h-.09M255.82 306.81h-.12M256.99 335.52l.031-.121M246.04 307.77l-.24-.15M256.99 335.52l-.12.03M256.12 307.02l-.18-.18M250.21 309.239h-.87M246.25 331.739l.21.151M257.021 335.399l.269-.66M257.26 334.38l.03.359M245.8 310.17l2.01-.66M257.35 332.91l-.09 1.47M256.45 335.399l-1.62-.809M253.78 307.95l.3-.18M247.87 310.26l-2.07 2.25M247.87 310.26l1.29-.75M249.85 331.41l-1.32-1.83M254.83 334.59l-1.44-.63M253.78 307.95l-1.59.57M250.36 309.21l-.15.029M244.87 340.859l-.12.031M244.99 340.83l-.12.029M245.11 340.77l-.12.06M245.23 340.71l-.12.06M245.35 340.62l-.12.09M245.47 340.529l-.12.091M245.56 340.439l-.09.09M245.65 340.319l-.09.12M245.71 340.2l-.06.119M245.771 340.05l-.061.15M245.83 339.93l-.059.12M244.75 340.89h0M238.54 340.859l.12.031M238.42 340.83l.12.029M238.18 340.71l.12.06M238.06 340.62l.12.09M237.97 340.529l.09.091M237.85 340.439l.12.09M237.79 340.319l.06.12M237.7 340.2l.09.119M237.64 340.05l.06.15M237.58 339.93l.06.12M238.66 340.89h.03M241.72 340.89h0M244.72 298.8h-.03M245.2 298.979l-.12-.059M245.41 299.16l-.09-.091M245.08 298.92l-.36-.12M245.53 299.25l-.12-.09M245.68 299.489l-.06-.119M245.8 299.76l-.12-.271M245.62 299.37l-.09-.12M238.63 298.8h0M245.32 299.069l-.12-.09M241.69 298.8h0M241.66 298.8h.03M241.66 298.8h0M209.5 358.38l.45-.151.09-.059M210.37 357.899l-.33.271M210.49 357.569l-.12.33M210.49 357.569l.031-.149M192.64 357.93h.03M192.64 357.93h-.06M192.34 357.96l.24-.03M192.19 357.93l.15.03M192.04 357.81l-.06-.21M192.19 357.93l-.15-.12M192.49 276.3l.15.03M192.07 276.39l-.03.089M192.22 276.3l-.15.09M193.66 276.45l-.78-.091M191.89 277.8l.03-.39M192.49 276.3l-.12-.03M192.22 276.3l.15-.03M192.64 276.33h.09M210.37 354.66l.03.39M193.66 357.149l.06.33M193.39 354.54l.03.449M193.36 354.12l.03.42M210.34 353.88l.03.39M193.45 355.38l.03.39M191.92 354.42l.03.359M192.04 276.479l-.06.121M191.86 279.72l.03-.361M193.39 278.729l.03-.359M210.28 280.2l.03-.39M193.3 279.989l.06-.84M193.57 276.96l.06-.33M191.74 281.7l.09-1.261M210.31 279.42l.03-.36M210.43 277.02l.03-.331M193.09 285.63l.03-1.441M193.15 282.75l.06-1.41M191.65 289.35l-.03-.93M191.65 292.2v-2.85M191.62 297.899l.03-5.699M191.62 288.42v-1.38M191.65 284.31l.03-1.321M191.62 287.04v-1.38M193.09 288.54v-2.91M193.12 284.189l.03-1.439M210.19 287.04v-1.41M210.19 288.45v-1.41M193.12 292.2l-.03-3.66M210.22 289.35l-.03-.9M210.22 292.17v-2.82M210.22 294.989v-2.819M210.37 277.979l.03-.33M210.37 278.34v-.361M210.34 278.7l.03-.36M193.45 277.979l.06-.33M210.43 277.319v-.299M193.54 277.29l.03-.33M193.51 277.649l.03-.359M191.62 299.43v-1.531M191.59 304.08l.03-4.65M191.56 313.38l.03-9.3M193 313.38v-4.68l.24-4.68M210.16 308.7l.03-4.68M191.8 352.439l.09 1.231M191.95 276.689l.03-.089M210.19 325.41v4.65M193.24 325.439l.031.511M193.21 320.76l.03 4.679M191.56 325.41l.03 4.65M191.56 320.76v4.65M193.15 334.26l-.06.51M191.59 330.06l.06 4.62M193.09 334.77l.03 1.56M191.65 334.68v1.53M191.74 351.12l.06 1.319M191.68 348.479l.03 1.321M210.25 348.479v1.38M193.271 352.77l.089 1.35M210.25 349.859l.03 1.38M191.89 353.67v.39M210.31 352.59l.03 1.29M210.28 351.239l.03 1.351M191.89 354.06l.03.36M191.95 354.779v.781M191.95 355.979v.811M193.42 354.989l.03.391M193.48 355.77l.03.36M193.15 348.51v1.44M193.21 351.39l.061 1.38M193.15 339.12v2.819M193.12 336.33l.03 2.79M191.68 344.79v.899M191.71 341.939l-.03 2.851M191.65 336.21l.06 5.729M191.68 345.689v1.411M191.71 349.8l.03 1.32M191.68 347.1v1.379M193.12 345.6l.03 2.91M193.15 349.95l.06 1.44M210.25 347.04v1.439M210.25 345.63v1.41M193.15 341.939v2.79l-.03.871M210.25 344.729v.901M210.25 341.91v2.819M210.25 339.09v2.82M210.46 356.43l.03.33M210.46 356.1v.33M210.43 355.77l.03.33M210.4 355.41l.03.36M210.4 355.05v.36M210.37 354.27v.39M193.51 356.13l.06.359M191.95 356.79v.42M191.95 355.56v.419M193.63 356.819l.03.33M193.57 356.489l.06.33M193.78 357.75l-.87.12M210.43 276.51l.03.179M210.43 276.51l-.15-.3M193.69 276.27l.06-.21M193.81 275.91l-.06.15M194.021 275.76l-.211.15M194.14 275.7l-.119.06M208.93 275.64l.51.06M210.28 276.21l-.33-.271M209.86 275.88l.09.059M209.44 275.7l.42.18M194.41 275.67h-.03M191.56 320.76v-7.38M193.21 320.76l-.21-7.38M191.92 277.08l.03-.391M191.86 280.08v-.36M191.86 278.189l.03-.389M191.86 278.609v-.42M191.68 282.989l.06-1.289M191.62 285.66l.03-1.35M210.19 285.63l.03-1.41M193.21 281.34l.09-1.351M210.22 284.22v-1.38M191.83 280.439l.03-.359M210.25 281.52l.03-1.32M210.22 282.84l.03-1.32M193.36 279.149l.03-.42M193.42 278.37l.03-.391M194.38 275.67l-.24.03M194.14 358.8l-.15-.09M194.59 358.89h-.03M208.99 358.439h-.81M193.99 358.71l-.09-.15M208.99 358.439l.51-.059M194.32 358.89l-.18-.09M199.72 358.649l-1.41.061M194.56 358.89h-.24M198.31 358.71l-1.289.09M202.42 358.56l-.899.03M197.021 358.8l-2.431.09M201.521 358.59l-1.801.059M208.18 358.439l-1.59.031M203.41 358.529l-.99.031M205 358.47l-1.59.059M206.59 358.47H205M193.81 358.38l.09.18M193.78 357.84l.03.54M193.51 297.779l.03 1.561M193.36 302.609l-.12 1.411M193.48 295.71l.03 2.069M193.12 292.2l.24 2.76M233.98 287.489l-.06.75M238.99 287.46v.75M233.92 289.59v1.29M239.14 290.88l-.15-2.67M234.25 293.97l-.33-3.09M239.47 293.97l-.33-3.09M234.97 296.64l.09.719M239.47 293.97l.48 3.389M235.06 297.359l.24 3.571 1.02 4.679M237.4 310.229l-1.08-4.62M237.4 310.229l.15.871M238.99 286.77v.54M234.04 286.77l-.06.719M238.96 286.08v.449M234.1 286.08l-.06.69M238.93 285.359l.03.721M234.1 285.359v.721M238.87 284.88l.06.479M239.38 278.22v.059M234.07 284.88l.03.479M238.84 284.37l.03.51M234.07 284.399v.481M238.81 283.89l.03.48M238.81 283.35v.45M234.25 283.92l-.06-.54M238.87 282.899l-.06.451M234.4 282.899l-.21.481M238.33 341.13v-.33M237.91 344.25l.42-3.12M239.29 344.25l.75-3.12M237.49 346.95l.42-2.7M238.21 346.92l1.08-2.67M238.96 282.42l-.09.479M234.58 282.75l-.18.149M239.08 281.939l-.12.481M239.17 281.46l-.09.479M235.09 281.43l-.18.48M239.29 280.56l-.12.9M239.35 279.689l-.06.871M239.35 279.689l.03-.899M239.38 278.279v.511M237.49 348.149l.21-.389.51-.84M237.49 347.069v-.119M242.71 281.55l-.03-.75M242.65 281.97l.06-.42M242.53 282.359l.12-.389M242.68 280.8l-.03-.18M234.79 282.3l.15-.271M242.35 283.229l.09-.45M242.29 284.16v-.48M242.29 284.67v-.51M242.29 285.18v-.51M242.29 285.93v-.75M242.29 286.62v-.69M242.44 282.779l.09-.42M242.29 283.68l.06-.451M242.26 287.31l.03-.69M242.29 288.029l-.03-.719M242.44 290.609l-.15-2.58M242.771 293.67l-.331-3.061M243.19 296.489l-.419-2.819M247.12 343.62l-.12-2.07M247.42 346.26l-.06-.45M247.15 343.979l-.03-.359M236.62 348.479l-.33.84M236.23 350.189l.18.75.63 1.5M247.87 352.529v-.569M237.04 352.439l.24.721M247.57 347.13l-.15-.87M237.1 347.67l-.48.809M236.29 349.319l-.06.87M247.96 353.34l-.06-.39M237.28 353.16l.03.42M237.31 353.97l-.09.57M237.13 355.529v.33l.03.391M257.89 277.319h-47.46M210.521 357.27h38.639M246.61 341.069l.39.481M258.55 328.5l-.029-.09M247.06 344.55l.09-.571M259.39 353.01l.24-.481M254.8 351.54l.6.09M259.09 353.31l-1.44-1.081M255.43 351.6l.03.03M253.81 351.689l-.93-.299M259.09 353.31l.15-.48M259.99 347.819l.09 1.981M248.56 332.819l-1.14 1.021M258.1 287.34v-.12M247.42 286.83h0M251.89 289.14l-.119.06M255.82 287.85l-3.18 1.29M253.39 333.96l-3.54-2.55M247.15 332.37l-.69-.48M249.34 309.239l-.27.151-.299.12M245.83 331.439l.3.271M246.04 307.77l3.03 1.62M256.75 335.64l-.15-.151M256.75 335.64l.03-.09M247.81 309.51h1.35M244.75 340.89h-.15M238.69 340.89h.12M238.3 340.77l.12.06M245.83 339.93v-8.491M244.69 298.8h-.12M238.63 298.8h.15M245.8 308.819v-9.059M192.58 357.93h.09l.24-.06M192.61 276.3l.27.059M210.521 357.09v.18M210.521 357.27v.15M193.72 357.479l.06.271M193.78 357.75v.09M193.63 276.63l.03-.18M193.66 276.45l.03-.18M210.4 277.649l.03-.33M210.43 277.319h0M210.34 279.06v-.36M210.31 279.81v-.39M191.98 276.6h0M193.36 302.609l.18-3.269M193.271 325.95l-.181 4.17.06 4.14M191.95 357.21l.03.39M210.49 356.76v.3l.031.03M191.86 279v-.391M191.89 279.359l-.03-.359M191.92 277.08v.33M193.36 294.96l.12.75M233.92 288.239v1.351l.03 1.29M234.25 293.97l.93 3.42M239.95 297.359l.21 1.441M238.96 286.739l.03.721M238.96 286.08v.449l.03.241M235.33 281.1l-.24.33M234.28 284.16h-.03l-.18.239M238.81 283.38v.51M240.04 341.13l.03-.24M234.91 281.91l.03.119M235.78 280.08l-.06.39-.12.179M234.58 282.75l.21-.45M243.28 297.06l-.09-.571M243.58 298.8l-.3-1.74M237.49 347.069l-.39.601M237.13 355.41v.119M247.9 352.95l-.03-.421M237.31 353.58v.39M258.521 328.41l-.031-.15M255.85 351.84l-.36-.21-.54-.36M248.771 332.609l-.211.21M258.1 287.22l-.03-.18M247.3 286.8l.12.03M234.25 283.92l.03.24M235.6 280.649l-.36.571M247.6 347.25l-.03-.12M185.26 356.069V278.52M240.07 340.89h-1.26M241.72 340.89h-1.65M244.6 340.89h-2.88M240.16 298.8h-1.38M241.66 298.8h-1.5M241.69 298.8h2.88M237.58 339.93l-.03-28.83M210.19 325.41l-.03-16.71M210.25 339.09l-.06-9.03M194.41 275.67l14.52-.03M210.22 294.989l-.03 9.031M238.63 298.8h0M238.15 298.979l.121-.059M237.94 299.16l.09-.091M238.271 298.92l.359-.12M237.82 299.25l.12-.09M237.67 299.489l.06-.119M237.55 299.76l.12-.271M237.73 299.37l.09-.12M238.03 299.069l.12-.09M238.63 298.8h.15M237.55 299.76l-.09 10.92M245.8 308.819l.03 22.62M237.22 354.54l-.09.93M248.56 353.52l-.6-.18M247.87 351.96l-.27-4.71M252.16 352.17l-1.62.75M247.36 345.81l-.3-1.26M247.42 333.84l-.27-1.47M248.771 332.609l2.219-.239 2.4 1.59M258.7 330.029l-1.35 2.881M258.4 328.14l-2.19-19.59M259.99 347.819l-2.7-13.08M246.61 341.069l-.78-1.139M252.19 308.52l-1.83.69M259 293.609l-1.71 13.681-.96 2.279M264.7 284.01l-1.2-.12M270.58 318.66l.24-2.28M271.06 281.7l-.06.029M270.55 318.779v.031M256.51 286.59l.21-.061M265.18 284.52l-3.87 2.459M255.61 281.1h.03M270.49 319.05l-.09.15M259.24 285l-2.19 1.319M255.64 281.1l.12-.031M271.57 281.52l-.12.03M264.7 284.01l.27.09M263.47 283.89l-2.43-.75M271.75 281.58l-.18-.06M256.72 286.529l.33-.21M270.55 318.81h0M255.76 287.16l.75-.57M255.76 281.069l2.58.811M259.99 284.58l-.75.42M271.87 281.88l-.12-.3M265.9 283.979h-.03M258.58 282.029l-.24-.149M272.35 283.08l-.12-.48M272.89 286.739l-.54-3.659M265.93 283.979h.091M271 281.729l-2.19 1.05M262.06 284.31l-2.07.27M261.31 286.979l-2.07 2.431M268.81 282.779l-2.28.841M267.16 350.25l-.09.45M267.16 350.25l-.06-1.65M267.67 308.16l-.24.15M263.86 349.77l2.43 1.41M267.07 350.7l-.12.18M266.68 351.12l-.18.09M268.09 308.069h-.15M266.5 351.21l-.21-.03M268.24 308.13l.06.21M268.24 308.13l-.15-.061M266.95 350.88l-.27.24M268.3 308.34l.39.93M268.66 309.84l.03-.57M268.78 312.029l-.12-2.189M267.43 308.31l-2.4 1.2M263.41 349.5l.45.27M265.03 309.51l-2.19.96M263.41 349.5l-2.34-.87M254.59 282.6l-.03.87M254.68 281.399l-.03.571M270.58 318.66l-.03.119M271.87 281.88l.36.72M264.97 284.1l.9-.121M271.39 281.43l-.33.27M265.9 283.979h.03M263.5 283.89l-1.44.42M271.39 281.43l.06.12M272.771 289.649l.119-2.91M262.84 310.47l-5.31 3.809M267.91 307.95l-.24.21M267.91 307.95l.03.119M254.65 281.97l-.03.03-.03.6M270.55 318.779l-.06.271M266.53 283.62l-.509.359-.841.541M255.61 281.1l-.93.299M261.04 283.14l-2.46-1.111M270.82 316.38l-2.04-4.351M270.4 319.2l-3.3 29.4M272.771 289.649l-4.081 19.621M254.56 283.47l-.33 5.04M249.16 357.27h22.23M257.89 277.319h13.5M242.65 280.62l-.66-3.301M235.78 280.08v-2.761M247.96 353.34l-1.95 3.93M237.16 356.189v1.081M115.33 59.28h1.2M117.55 59.28h1.98M120.55 59.28h1.2v1.98M121.75 62.28v2.01M121.75 65.28v2.01M121.75 68.28v2.01M121.75 71.28v2.01M121.75 74.31v1.98M121.75 77.31v2.01h-1.2M119.53 79.32h-1.98M116.53 79.32h-1.2v-2.01M115.33 76.29v-1.98M115.33 73.29v-2.01M115.33 70.29v-2.01M115.33 67.29v-2.01M115.33 64.29v-2.01M115.33 61.26v-1.98M127.663 73.681a.311.311 0 10.623 0 .311.311 0 00-.623 0M127.663 64.866a.311.311 0 10.623 0 .311.311 0 00-.623 0"/><path fill="none" stroke-linecap="round" stroke-linejoin="round" d="M138.37 76.29h-14.91l-.09-.09-.03-.09V62.46l.03-.03v-.06l.03-.03h.03v-.03l.03-.03h15.27l.15.03h.18l.18.03h.15l.18.03.18.03.15.06.18.03.18.03.15.06.18.06.15.06.15.06.18.06.15.06.15.06.151.09.149.06.15.09.15.09.15.09.151.09.149.12.12.09.15.09.12.12.15.12.12.09.12.12.12.12.12.12.12.15.12.12.12.12.09.15.12.12.09.15.12.15.09.15.09.12.09.15.06.15.09.18.06.15.09.15.06.15.06.15.06.18.06.15.06.18.03.15.06.18.03.15.03.18.031.18.029.15.03.18.03.18v.15l.03.18v.69l-.03.18v.18l-.03.15-.03.18-.029.18-.031.15-.03.18-.03.15-.06.18-.03.15-.06.18-.06.15-.06.18-.06.15-.06.15-.09.18-.06.15-.09.15-.06.15-.09.15-.09.15-.09.12-.12.15-.09.15-.12.12-.09.15-.12.12-.12.15-.12.12-.12.12-.12.12-.12.12-.12.12-.15.09-.12.12-.15.09-.12.12-.149.09-.151.09-.15.09-.15.09-.15.09-.149.06-.151.09-.15.06-.15.09-.18.06-.15.06-.15.06-.18.03-.15.06-.18.03-.18.06-.15.03-.18.03-.18.03-.15.03h-.18l-.18.03H138.55z"/><path fill="none" stroke-linecap="round" stroke-linejoin="round" d="M143.29 69.3v-.36l-.15-.87-.3-.84-.33-.63-.12-.12-.09-.15-.12-.15-.12-.12-.12-.15-.12-.12-.12-.12-.12-.12-.15-.12-.15-.09-.15-.12-.12-.09-.15-.09-.18-.09-.15-.06-.15-.09-.18-.06-.15-.06-.18-.06-.15-.06-.18-.03-.15-.06-.18-.03-.18-.03h-.18l-.15-.03H134.86M134.86 74.19h3.9l.99-.18.9-.36.6-.36.12-.12.151-.12.119-.09.15-.12.12-.15.12-.12.12-.12.09-.15.12-.15.09-.12.12-.15.09-.15.06-.18.09-.15.06-.15.09-.15.061-.18.029-.15.06-.15.03-.18.06-.15.03-.18v-.15l.03-.18.03-.15V69.3"/><path fill="none" stroke-linecap="round" stroke-linejoin="round" d="M134.86 74.19h-.42l-.84-.15-.54-.18-.51-.24-.12-.09-.15-.06-.12-.09-.09-.06-.12-.09-.12-.09-.12-.09-.09-.09-.12-.09-.09-.12-.12-.09-.09-.12-.09-.09-.089-.12-.091-.12-.09-.09-.06-.12-.09-.12-.06-.15-.09-.12-.06-.12-.06-.12-.06-.15-.06-.12-.029-.12-.061-.15-.03-.12-.06-.15-.03-.15-.03-.12-.03-.15-.03-.15v-.12l-.03-.15v-.87l.03-.12v-.15l.03-.15.03-.12.03-.15.03-.15.06-.12.03-.15.061-.12.029-.15.06-.12.06-.15.06-.12.06-.12.09-.12.06-.12.09-.12.06-.12.09-.12.091-.12.089-.12.09-.09.09-.12.12-.09.09-.09.12-.12.09-.09.12-.09.12-.09.12-.09.09-.06.12-.09.15-.06.12-.09.12-.06.12-.06.15-.06.12-.06.12-.03.15-.06.12-.03.15-.06.15-.03.12-.03.151-.03h.149l.12-.03.15-.03h.42"/><path fill="none" stroke-linecap="round" stroke-linejoin="round" d="M130.87 69.3l.06-.48.15-.51.42-.57.24-.18.09-.03.09-.06.09-.03.09-.03.12-.03.09-.03.12-.03h.21l.12-.03h.24M135.915 69.273v-.004c0-1.1-1.295-1.991-2.892-1.991M133.023 71.269c1.597 0 2.892-.891 2.892-1.991v-.005M130.87 69.3l.21.96.12.21.3.36.33.24.09.03.09.03.09.03.12.03.09.03.12.03h.091l.119.03h.36M129.01 78.72h0M123.22 95.34v4.23h9.42V89.7h-9.42v4.44"/><path fill="none" stroke-linecap="round" stroke-linejoin="round" d="M115.33 94.14h12.15v1.2h-12.15zM115.33 80.91h36.06v28.05"/><path fill="none" stroke-linecap="round" stroke-linejoin="round" d="M115.33 80.52h36.48v28.44M190.382 101.327a1.603 1.603 0 103.206 0 1.603 1.603 0 00-3.206 0"/><path fill="none" stroke-linecap="round" stroke-linejoin="round" d="M189.981 101.327a2.003 2.003 0 104.007 0 2.003 2.003 0 00-4.007 0"/><path fill="none" stroke-linecap="round" stroke-linejoin="round" d="M196.57 93.72l.72.03 1.05.18.36.09.84.3.15.09.18.06.151.09.149.06.15.09.18.09.15.09.15.12.15.09.12.09.15.12.15.12.12.12.15.09.12.12.15.15.12.12.12.12.121.12.119.15.12.15.09.12.12.15.09.15.12.15.091.15.089.15.09.15.09.15.09.15.06.18.09.15.06.18.06.15.06.18.061.15.059.18.06.18.06.15.03.18.03.18.06.18.03.18.03.15v.18l.03.18v.18l.03.18v.72l-.03.18v.18l-.03.18v.18l-.03.18-.03.15-.06.18-.03.18-.03.18-.06.18-.06.15-.059.18-.061.15-.06.18-.06.18-.06.15-.09.15-.06.18-.09.15-.09.15-.09.15-.089.15-.091.15-.12.15-.09.15-.12.15-.09.15-.12.12-.119.15-.121.12-.12.12-.12.15-.15.12-.12.12-.15.12-.12.09-.15.12-.15.12-.12.09-.15.09-.15.12-.15.09-.18.09-.15.09-.149.06-.151.09-.18.09-.15.06-.18.06-.15.06-.18.06-.18.06-.15.06-.179.03-.181.06-.18.03-.15.03-.18.03-.18.03-.18.03-.18.03h-.18l-.18.03H187l-.18-.03h-.18l-.18-.03-.18-.03-.15-.03-.18-.03-.179-.03-.181-.03-.18-.06-.15-.03-.18-.06-.18-.06-.15-.06-.18-.06-.15-.06-.18-.06-.15-.09-.18-.09-.15-.06-.15-.09-.15-.09-.15-.09-.15-.12-.15-.09-.15-.09-.15-.12-.12-.12-.15-.09-.15-.12-.12-.12-.12-.12-.12-.15-.15-.12-.12-.12-.09-.15-.12-.12-.12-.15-.12-.15-.09-.15-.09-.15-.12-.15-.09-.15-.09-.15-.09-.15-.06-.15-.09-.18-.06-.15-.09-.15-.06-.18-.06-.18-.06-.15-.06-.18-.06-.15-.03-.18-.06-.18-.03-.18-.03-.18-.03-.15-.03-.18-.03-.18-.029-.18v-.36l-.031-.18v-.36l.031-.18v-.36l.029-.18.03-.18.03-.15.03-.18.03-.18.03-.18.06-.18.03-.15.06-.18.06-.18.06-.15.06-.18.06-.15.09-.18.06-.15.09-.18.06-.15.09-.15.09-.15.09-.15.12-.15.09-.15.09-.15.12-.15.12-.12.12-.15.09-.15.12-.12.15-.12.12-.12.12-.15.12-.12.15-.09.15-.12.12-.12.15-.12.15-.09.15-.09.15-.12.15-.09.15-.09.15-.09.15-.06.18-.09.15-.06.18-.09.15-.06.18-.06.15-.06.18-.06.18-.06.15-.03.18-.06.181-.03.179-.03.18-.03.15-.03.18-.03.18-.03h.36l.18-.03h.18z"/><path fill="none" stroke-linecap="round" stroke-linejoin="round" d="M196.57 107.94h-9.72l-.15-.03h-.179l-.811-.15-.15-.06-.15-.06-.18-.03-.15-.06-.15-.06-.15-.06-.15-.06-.15-.09-.15-.06-.15-.09-.15-.09-.15-.06-.12-.09-.15-.09-.12-.12-.15-.09-.12-.09-.15-.12-.12-.12-.12-.09-.12-.12-.12-.12-.09-.12-.12-.12-.12-.12-.09-.15-.12-.12-.09-.15-.09-.12-.09-.15-.09-.15-.09-.12-.06-.15-.09-.15-.06-.15-.09-.15-.06-.15-.06-.15-.06-.18-.06-.15-.03-.15-.06-.15-.03-.18-.03-.15-.03-.18-.03-.15-.03-.18-.03-.15v-.18l-.03-.15V100.92l.03-.15v-.18l.03-.15.03-.18.03-.15.03-.18.03-.15.03-.15.06-.18.03-.15.06-.15.06-.15.06-.18.06-.15.09-.15.06-.15.09-.15.06-.15.09-.12.09-.15.09-.15.09-.12.09-.15.12-.12.09-.12.12-.15.12-.12.09-.12.12-.12.12-.12.12-.09.12-.12.15-.09.12-.12.15-.09.12-.09.15-.09.12-.09.15-.09.15-.09.15-.09.15-.06.15-.06.15-.09.15-.06.15-.06.15-.06.18-.03.15-.06.15-.03.18-.06.15-.03.15-.03.18-.03.151-.03h.179l.15-.03h10.23l.15.03h.18l.15.03.18.03.15.03.18.03.15.06.15.03.18.06.15.03.15.06.15.06.15.06.18.09.15.06.15.06.12.09.15.09.15.09.15.09.12.09.15.09.12.09.15.12.12.09.12.12.12.09.12.12.12.12.12.12.09.12.12.15.12.12.09.12.09.15.09.12.09.15.09.15.09.12.09.15.06.15.09.15.06.15.06.15.06.18.06.15.06.15.03.15.06.18.03.15.06.15.03.18.03.15.03.18v.15l.03.18V101.1l.03.15v.18l-.03.15V101.91l-.03.18v.15l-.03.18-.03.15-.03.18-.06.15-.03.18-.06.15-.03.15-.06.15-.06.18-.06.15-.06.15-.06.15-.09.15-.06.15-.09.15-.09.12-.09.15-.09.15-.09.12-.09.15-.09.12-.12.15-.12.12-.09.12-.12.12-.12.12-.12.12-.12.09-.12.12-.12.12-.15.09-.12.09-.15.12-.12.09-.15.09-.15.06-.15.09-.12.09-.15.06-.15.09-.18.06-.15.06-.15.06-.15.06-.15.03-.18.06-.15.06-.15.03-.18.03-.15.03-.18.03-.15.03h-.18l-.15.03H196.75zM180.94 52.05h22.05v2.4h-22.05zM230.83 93.33h18.03v16.02h-18.03z"/><path fill="none" stroke-linecap="round" stroke-linejoin="round" d="M238.86 101.327a1.002 1.002 0 102.003-.001 1.002 1.002 0 00-2.003.001"/><path fill="none" stroke-linecap="round" stroke-linejoin="round" d="M238.459 101.327a1.402 1.402 0 102.805 0 1.402 1.402 0 00-2.805 0"/><path fill="none" stroke-linecap="round" stroke-linejoin="round" d="M229.84 92.34h20.01v18.03h-20.01zM219.31 86.31h51.9M275.41 86.31h24.03M299.44 138.81v-52.5M278.029 118.753a3.205 3.205 0 106.41.001 3.205 3.205 0 00-6.41-.001M287.519 117.431a4.808 4.808 0 109.616 0 4.808 4.808 0 00-9.616 0M299.44 100.53v24.06M275.41 124.59v-24.06M299.44 124.59h-24.03M278.32 121.65l1.8-1.8M278.32 115.86l1.8 1.83M284.11 121.65l-1.8-1.8M284.11 115.86l-1.8 1.83M290.74 109.26l1.8-1.8M290.74 103.47l1.8 1.8M296.53 109.26l-1.8-1.8M278.53 103.65l2.1 2.1M278.53 111.69l2.1-2.1M286.57 103.65l-2.099 2.1M286.57 111.69l-2.099-2.1M288.28 113.43l2.1 2.1M288.28 121.47l2.1-2.1M296.32 113.43l-2.099 2.1M296.53 103.47l-1.8 1.8M277.748 107.661a4.808 4.808 0 109.617-.001 4.808 4.808 0 00-9.617.001M290.443 106.339a3.206 3.206 0 106.411-.001 3.206 3.206 0 00-6.411.001M296.32 121.47l-2.099-2.1M275.41 100.53h24.03"/><text transform="translate(405.654 76.5)" font-family="'ArialMT'" font-size="6.714">L</text><path fill="none" stroke-linecap="round" stroke-linejoin="round" d="M440.891 55.26h-36.87M404.021 52.47h36.87v2.79h-36.87z"/><path fill="none" stroke-linecap="round" stroke-linejoin="round" d="M405.22 53.25h34.471v1.2H405.22z"/><path fill="none" stroke-linecap="round" stroke-linejoin="round" d="M404.021 52.47h36.87v28.05h-36.87zM404.021 78.51h36.87M428.86 78.51v2.01M402.011 52.47h-72.12V76.5h72.12V52.47h-.99M400.03 52.47h-2.009M397 52.47h-1.979M394 52.47h-2.01M391 52.47h-2.01M388 52.47h-2.01M385 52.47h-2.01M382 52.47h-2.01M378.97 52.47h-1.98M375.97 52.47h-2.01M372.971 52.47h-2.011M369.971 52.47h-2.011M366.971 52.47h-2.011M363.971 52.47h-2.011M360.94 52.47h-1.98M357.94 52.47h-2.009M354.94 52.47h-2.009M351.94 52.47h-2.009M348.94 52.47h-2.009M345.91 52.47h-1.979M342.91 52.47h-1.979M339.91 52.47h-2.01M336.91 52.47h-2.01M333.91 52.47h-2.01"/><path fill="none" stroke-linecap="round" stroke-linejoin="round" d="M330.91 52.47h-1.019v1.5M329.891 54.96v2.01M329.891 57.96v2.01M329.891 60.96v2.01M329.891 63.99v1.98M329.891 66.99v1.5h1.019M331.9 68.49h2.01M334.9 68.49h2.01M337.9 68.49h2.01M340.931 68.49h1.979M343.931 68.49h1.979M346.931 68.49h2.009M349.931 68.49h2.009M352.931 68.49h2.009M355.931 68.49h2.009M358.96 68.49h1.98M361.96 68.49h2.011M364.96 68.49h2.011M367.96 68.49h2.011M370.96 68.49h2.011M373.96 68.49h2.01M376.99 68.49h1.98M379.99 68.49H382M382.99 68.49H385M385.99 68.49H388M388.99 68.49H391M391.99 68.49H394M395.021 68.49H397M398.021 68.49h2.009M401.021 68.49h.99v-1.5M402.011 65.97v-1.98M402.011 62.97v-2.01M402.011 59.97v-2.01M402.011 56.97v-2.01M402.011 53.97v-1.5M329.891 52.47l1.83.39M332.71 53.1l1.95.42M335.65 53.73l1.951.45M338.59 54.39l1.95.42M341.5 55.05l1.98.42M344.44 55.68l1.951.45M347.38 56.34l1.95.45M350.32 57l1.951.42M353.261 57.66l1.949.42M356.17 58.29l1.98.45M359.11 58.95l1.951.45M362.05 59.61l1.95.42M364.99 60.27l1.95.42M367.9 60.9l1.98.45M370.84 61.56l1.95.42M373.78 62.22l1.95.42M376.72 62.85l1.95.45M379.66 63.51l1.95.45M382.57 64.17l1.98.42M385.511 64.83l1.949.42M388.45 65.46l1.95.45M391.391 66.12l1.949.45M394.33 66.78l1.95.42M397.24 67.44l1.95.42M400.181 68.07l1.83.42M329.891 68.49l1.83-.42M332.71 67.86l1.95-.42M335.65 67.2l1.951-.42M338.59 66.57l1.95-.45M341.5 65.91l1.98-.45M344.44 65.25l1.951-.42M347.38 64.59l1.95-.42M350.32 63.96l1.951-.45M353.261 63.3l1.949-.45M356.17 62.64l1.98-.42M359.11 61.98l1.951-.42M362.05 61.35l1.95-.45M364.99 60.69l1.95-.42M367.9 60.03l1.98-.42M370.84 59.4l1.95-.45M373.78 58.74l1.95-.45M376.72 58.08l1.95-.42M379.66 57.42l1.95-.42M382.57 56.79l1.98-.45M385.511 56.13l1.949-.45M388.45 55.47l1.95-.42M391.391 54.81l1.949-.42M394.33 54.18l1.95-.45M397.24 53.52l1.95-.42M400.181 52.86l1.83-.39M369.279 168.562c0 13.277 10.764 24.041 24.041 24.041 13.276 0 24.04-10.763 24.04-24.041 0-13.277-10.764-24.041-24.04-24.041-13.277 0-24.041 10.764-24.041 24.041"/><path fill="none" stroke-linecap="round" stroke-linejoin="round" d="M365.561 188.16l-.09.78.029.78.181.75.299.72.451.63 1.71 1.92 1.92 1.71.629.45.72.3.75.18.78.03.781-.09 1.199-.27 1.32-.33 1.441-.45 1.71-.72.719-.42 1.98-1.38 1.801-1.59h.029l.27-.33M421.03 188.16h.031l.089.78-.06.78-.15.75-.33.72-.42.63-1.71 1.92-1.919 1.71-.661.45-.69.3-.779.18-.75.03-.781-.09-1.2-.27-1.32-.33-1.44-.45-1.71-.72-.719-.42h-.031l-1.98-1.38-1.77-1.59h-.03l-.3-.33M373.721 140.85l-.781-.121-.78.061-.75.18-.72.3-.629.42-1.92 1.71-1.71 1.92-.451.659-.299.691-.181.78-.029.75.09.779.269 1.201.33 1.32.481 1.44.719 1.71.39.72v.03l1.38 1.98 1.591 1.8.329.299M412.9 140.85l.781-.121.75.061.779.18.69.3.661.42 1.919 1.71 1.71 1.92.42.659.33.691.15.78.06.75-.12.779-.24 1.201-.33 1.32-.48 1.44-.719 1.71-.421.72v.03l-1.35 1.98-1.59 1.8h-.03l-.33.299M371.05 177.69l-.329.3-1.591 1.8-1.35 1.98h-.03l-.39.75-.719 1.68-.481 1.44-.33 1.32-.269 1.2M384.19 146.34l-.299-.361-1.801-1.589-1.98-1.35-.719-.42-1.71-.72-1.441-.48-1.32-.33-1.199-.24M402.4 146.34l.33-.361 1.77-1.589 1.98-1.35.75-.42 1.71-.72 1.44-.48 1.32-.33 1.2-.24M415.54 177.69l.36.3 1.59 1.8 1.35 1.98.421.75.719 1.68.48 1.44.33 1.32.24 1.2M427.66 378.06h6.81M435.07 313.95v56.1M426.46 297.93h-24.63M434.47 298.529v7.41M393.82 298.529v6.811M427.271 320.52c.119-.058.19-.086.221-.095M427.48 320.43c.049-.017.082-.015.11.002M427.57 320.46c.049-.011.086.013.133.043M427.69 320.52c.059.014.11.045.167.079M427.84 320.609c.074.023.134.059.198.094M428.021 320.729c.081.008.145.054.208.11M428.2 320.85a.79.79 0 01.183.128M428.38 321c.043.014.082.104.119.25M428.47 321.27c.067.127.091.307.101.521M428.561 321.81c.02.195.009.615-.023 1.242M428.53 323.069a69.304 69.304 0 00-.053 2.154M428.47 325.229c.001.814-.015 1.485-.038 2.007M428.41 327.239c-.003.518-.015.843-.017.973M428.38 328.229c.013.111.009.244.001.381M428.38 328.62a8.599 8.599 0 00-.011.461M428.351 329.1c.019.158.034.406.066.726M428.41 329.85c.039.294.056.551.058.745M428.44 330.6c.028.189.028.406.026.645M428.44 331.26c.024.224.021.487.02.775M428.44 332.04c.017.284.015.476.014.57M428.44 332.64c.014.065.006.424-.008 1.045M428.41 333.689c.009.617.02 1.36.057 2.223M428.44 335.939c.063.836.087 1.345.1 1.498M428.53 337.439c.022.151.033.335.041.549M428.561 338.01c.019.192.028.378.039.535M428.59 338.55c.021.152.032.546.045 1.176M428.62 339.75c.026.605.029 1.246.023 1.896M428.62 341.67c.018.627.028 1.136.054 1.504M428.65 343.2c.05.341.061.743.057 1.178M428.681 344.399c.022.414.04.94.081 1.558M428.74 345.96c.062.613.089 1.082.103 1.402M428.83 347.37c.026.312.031.642.028.979M428.83 348.359c.025.329.022.694.019 1.088M428.83 349.47c.016.37.013.633.012.765M428.83 350.25c.011.116-.019.206-.075.254M428.74 350.52c-.042.032-.156.206-.327.508M428.41 351.029c-.167.299-.317.503-.447.612M427.96 351.66c-.127.09-.212.153-.252.172M427.69 351.84c-.022.011-.107.013-.238-.003M427.45 351.84a.662.662 0 01-.257-.072M427.75 351.09c-.026-.499-.064-.891-.084-1.204M427.66 349.89a19.37 19.37 0 01-.021-.936M427.63 348.96a7.128 7.128 0 00-.044-1.072M427.57 347.91a21.552 21.552 0 01-.021-1.185M427.54 346.739c.013-.615.01-1.093-.002-1.447M427.511 345.3c.017-.332.013-.665.015-1.005M427.511 344.31c.017-.378.015-.759.009-1.157M427.511 343.17c.002-.398 0-.737.002-1.032M427.511 342.149c.004-.282.006-.554.007-.824M427.511 341.34a6.428 6.428 0 00-.015-.731M427.48 340.62c.004-.155-.002-.3-.001-.443M427.45 340.2c.03-.185.038-.406.052-.688M427.48 339.54c.037-.343.046-.638.048-.913M427.511 338.64a7.86 7.86 0 00-.004-.907M427.48 337.739c.013-.279.008-.647.011-1.109M427.48 336.66c.015-.543.001-1.007-.029-1.421M427.45 335.25c-.002-.057-.006-.102-.009-.146M427.45 328.29c.013-.185.014-.352.015-.52M427.45 327.779c.017-.34.023-.604.035-.803M427.48 327c.02-.261.027-.527.029-.822M427.48 326.189c.033-.658.037-1.304.042-1.95M427.511 324.239c.013-.212.017-.357.023-.435M427.511 323.819c.034-.125.049-.309.069-.563M427.57 323.279c.03-.278.046-.492.058-.662M427.601 322.62c.037-.154.089-.649.181-1.489M419.08 351.81a.418.418 0 00-.27-.03M418.811 351.779a.337.337 0 01-.189.003M418.601 351.81c-.043-.044-.16-.064-.329-.09M418.271 351.72a2.328 2.328 0 00-.43-.03M417.82 351.689a2.054 2.054 0 01-.398-.028M417.4 351.689c-.14-.054-.409-.112-.789-.206M427.57 321.21c.099-.215.152-.35.167-.424M427.72 320.79c.033-.078-.011-.145-.114-.203M427.601 320.609c-.068-.064-.172-.094-.305-.109M427.57 351.149a25.445 25.445 0 01-.12-1.243M427.45 349.92a14.457 14.457 0 01-.028-1.016M427.42 348.93a7.065 7.065 0 00-.046-.946M427.36 348a17.394 17.394 0 01-.031-1.306M427.3 346.71c.033-.598.029-1.058.019-1.395M427.3 345.33c.007-.351.003-.695.005-1.047M427.3 344.31c.007-.378.005-.747-.001-1.134M427.271 343.2c.021-.411.02-.756.021-1.057M427.271 342.149c.023-.308.025-.576.026-.813M427.271 341.34c.028-.238.021-.443.008-.618M427.271 340.739c-.007-.191-.014-.366-.013-.541M427.24 340.2c.019-.178.027-.413.042-.709M427.271 339.51c.026-.314.035-.592.037-.85M427.3 338.67a9.396 9.396 0 00-.013-.833M427.271 337.859c.002-.314-.004-.7-.001-1.18M427.24 336.689a8.848 8.848 0 00-.009-1.302M427.21 335.399c.02-.038.018-.064.016-.09M427.271 326.31c.02-.274.022-.602.024-.982M427.271 325.35c.027-.407.029-.72.031-.96M427.3 324.39a7.32 7.32 0 01.019-.521M427.3 323.88c.028-.118.044-.297.064-.546M427.36 323.34c.024-.256.04-.463.052-.627M427.391 322.739c.032-.191.086-.697.182-1.545M426.13 318.18c.121-.05.192-.065.223-.07M426.34 318.12a.165.165 0 01.112-.007M426.431 318.12c.05.003.087.016.133.033M426.55 318.18c.061-.01.111.009.168.027M426.7 318.21c.074.017.135.036.198.056M426.88 318.27a.81.81 0 01.21.072M427.061 318.359c.093.015.144.04.184.061M427.24 318.42c.044.02.082.07.12.152M427.33 318.6c.067.055.092.155.102.275M427.42 318.899c.021.096.01.331-.022.683M427.391 319.59c-.025.343-.045.749-.052 1.209M427.33 320.819c.001.439-.015.816-.038 1.108M427.271 321.93c-.002.29-.015.472-.016.544M427.24 322.5a.61.61 0 01.002.198M427.24 322.71c-.006.064-.01.152-.01.251M427.21 322.979c.02.081.036.22.068.398M427.271 323.399c.039.158.057.302.058.41M427.3 323.819c.03.1.03.221.027.354M427.3 324.18c.025.128.023.276.021.438M427.3 324.63c.019.149.017.257.016.31M427.3 324.96c.015.032.008.233-.006.582M427.271 325.56c.009.331.021.747.057 1.23M427.3 326.819c.064.455.089.74.102.825M427.391 327.66c.023.07.033.174.042.294M427.42 327.96c.021.114.03.218.041.306M427.45 328.29c.021.064.033.284.045.638M427.48 328.95c.027.33.03.689.024 1.054M427.48 330.029c.019.34.028.625.055.831M427.511 330.87c.05.196.061.422.057.666M427.54 331.56c.023.22.042.515.082.86M427.601 332.43c.063.336.089.599.103.778M427.69 333.21c.026.178.032.362.029.552M427.69 333.779c.026.172.022.377.02.598M427.69 334.38c.016.217.014.364.013.438M427.69 334.83c.012.062-.018.112-.074.139M427.601 334.979c-.042.017-.155.114-.326.283M427.271 335.279a1.964 1.964 0 01-.446.327M426.82 335.609a1.849 1.849 0 01-.251.104M426.55 335.729c-.021-.006-.105-.005-.236-.013M426.311 335.729c-.125-.021-.212-.034-.257-.052M415.271 335.67a.853.853 0 00-.365-.021M414.88 335.67c-.056-.003-.139-.002-.223-.019M414.641 335.67c-.067-.035-.22-.056-.441-.081M414.19 335.609a2.265 2.265 0 00-.555-.051M413.62 335.58c-.139-.016-.321-.025-.532-.05M413.08 335.55c-.203-.045-.533-.104-.984-.199M415.24 318.689c-.146.002-.271.009-.353-.005M414.88 318.689a.474.474 0 00-.239.004M414.641 318.72c-.083-.006-.235.021-.454.058M414.16 318.779a3.584 3.584 0 01-.536.054M413.62 318.84a2.918 2.918 0 00-.542.048M413.05 318.899c-.181.022-.511.101-.96.222M426.34 335.01c-.062-.272-.113-.493-.142-.672M426.19 334.35a4.555 4.555 0 01-.028-.555M426.16 333.81a1.647 1.647 0 00-.06-.513M426.101 333.3c-.043-.153-.063-.386-.058-.7M426.04 332.609a7.76 7.76 0 00-.011-.756M426.011 331.859c.004-.188-.002-.375.001-.565M426.011 331.319a9.968 9.968 0 00-.007-.625M425.98 330.72c.015-.234.013-.421.015-.584M425.98 330.149c.018-.177.02-.322.021-.449M425.98 329.7a.877.877 0 00-.003-.333M425.95 329.37c.009-.098 0-.192.002-.287M425.95 329.1a4.45 4.45 0 01.033-.399M425.98 328.71c.021-.17.032-.319.034-.459M426.011 328.26a2.715 2.715 0 00-.021-.455M425.98 327.81a8.104 8.104 0 01-.014-.631M425.95 327.18c.021-.26.005-.493-.031-.7M425.891 326.489a2.452 2.452 0 00-.088-.545M425.8 325.95c-.038-.155-.071-.289-.096-.408M425.681 325.56c-.002-.137-.013-.276-.01-.437M425.65 325.14a4.79 4.79 0 00.028-.519M425.65 324.63c.031-.184.05-.334.085-.46M425.71 324.18c.061-.137.091-.273.114-.419M425.8 323.79c.049-.176.071-.345.093-.535M425.891 323.279c.022-.215.034-.354.035-.442M425.92 322.859c.008-.11.01-.248.013-.437M425.92 322.439c.016-.205.025-.357.043-.475M425.95 321.989c.029-.142.039-.274.041-.422M425.98 321.569c.013-.149.016-.327.02-.535M425.98 321.06c.022-.233.025-.402.027-.533M425.98 320.55c.029-.153.036-.248.049-.306M426.011 320.25c.031-.063.051-.159.077-.295M426.07 319.979c.044-.159.064-.271.079-.36M426.13 319.62c.034-.09.103-.364.225-.822M426.46 386.069h-24.63M423.4 375.96l-1.08-.3-1.11-.24-.3-.03-.269-.06-.301-.03-.27-.061-.299-.029-.271-.03-.27-.031-.299-.029h-.271M425.53 377.16l-.24-.21-.689-.45-.151-.061-.269-.179-.151-.06-.15-.06-.15-.06-.15-.06-.18-.06M425.53 377.16l.361.3.509.3.9.269h.24l.12.031M434.47 385.47v-6.81M393.82 385.47v-6.81M418.66 375.12l-8.82-.091M415.391 336.51v-.12M415.42 338.819v-.119M415.391 336.87v-.12M415.391 337.859v-.12M415.45 339.3l-.03-.12M415.391 337.62v-.15M415.391 337.229v-.12M415.42 338.58v-.12M415.391 336.63v-.12M415.42 339.06v-.121M415.391 337.35v-.121M415.42 339.18v-.12M415.45 339.42v-.12M415.391 337.47v-.12M415.391 337.739v-.119M415.391 337.109v-.239M415.391 337.979v-.12M415.391 336.75v-.12M415.42 338.939v-.12M415.42 338.46v-.36M415.391 336.39v-.361M415.42 338.7v-.12M415.42 338.1l-.029-.121M415.391 335.91v-.12M415.391 336.029v-.119M415.391 335.79v-.09M415.511 341.37v-.12M415.48 340.529v-.119M415.511 340.89l-.031-.12M415.511 341.25v-.24M415.48 340.77v-.121M415.45 339.93v-.12M415.48 340.29v-.12M415.45 339.81v-.39M415.54 341.609v-.12M415.48 340.649v-.12M415.45 340.05v-.12M415.511 341.01v-.12M415.54 341.489l-.029-.119M415.48 340.41v-.12M415.54 341.729v-.12M415.48 340.17l-.03-.12M418.63 351.33c-.031-.08-.08-.149-.129-.22M427.54 351.149c.113.177.167.312.182.386M427.72 351.54c.018.069-.026.137-.13.195M427.57 351.75c-.083.044-.245.077-.466.085M427.09 351.84a7.327 7.327 0 01-.678-.022M426.4 351.84a6.747 6.747 0 01-.745-.17M408.73 308.88c-2.642-.004-5.131-.163-7.441-.481M401.261 308.399c-2.283-.319-4.105-.754-5.439-1.306M395.8 307.109c-1.313-.566-1.979-1.16-1.979-1.797M425.65 351.689c-.773.022-1.341.046-1.697.05M423.94 351.75a9.997 9.997 0 01-.93-.051M423.011 351.72a7.775 7.775 0 01-.725-.162M422.261 351.569c-.186-.075-.402-.235-.625-.492M422.59 351.66c-.379.016-.669.022-.858-.004M421.72 351.66a1.137 1.137 0 00-.506.024M421.21 351.689c-.15.04-.302.062-.45.059M420.73 351.75a2.522 2.522 0 01-.362-.041M420.34 351.72a.324.324 0 00-.247.003M420.07 351.75c-.05.004-.174.03-.351.052M419.71 351.81a3 3 0 01-.492.003M419.2 351.84c-.141-.04-.258-.101-.333-.207M418.84 351.66a1.431 1.431 0 00-.192-.34M426.46 297.93a62.187 62.187 0 014.022.051M430.48 297.989c1.241.045 2.219.118 2.935.211M433.391 298.229c.74.063 1.099.164 1.099.271M401.83 297.93a61.77 61.77 0 00-4.003.051M397.811 297.989c-1.223.045-2.201.118-2.917.211M394.87 298.229c-.691.063-1.05.164-1.05.271M393.82 377.25v.21l.09.149v.061l.06.09.06.03.031.029.029.061.06.03M435.07 313.95c.02-1.455-.007-2.79-.062-4.03M434.98 309.93a27.769 27.769 0 00-.191-2.942M434.771 306.989c-.074-.718-.175-1.076-.281-1.076M435.07 370.05a68.017 68.017 0 01-.062 3.978M434.98 374.04a27.75 27.75 0 01-.191 2.921M434.771 376.979c-.074.697-.175 1.055-.281 1.055M426.761 377.88l.119-.12M393.82 377.25v-70.53"/><path fill="none" stroke-linecap="round" stroke-linejoin="round" d="M394.15 306.09l-.18.149-.119.211-.031.27M416.53 351.149l-.03-.359M416.59 351.51l-.06-.361M416.351 349.859l-.031-.239M416.44 350.58v-.12M416.5 350.79l-.06-.21M416.44 350.46l-.089-.481v-.12M416.29 349.5v-.12M416.32 349.62l-.03-.12M416.29 349.38l-.029-.12M416.2 348.81v-.121M416.261 349.26v-.09M416.2 348.689l-.03-.12M416.23 349.05l-.03-.24M416.261 349.17l-.031-.12M416.17 348.569l-.06-.479M415.99 347.13v-.12M416.08 347.85v-.121M415.99 347.01l-.03-.21M416.05 347.609v-.12M416.11 347.97l-.03-.12M416.08 347.729l-.03-.12M416.05 347.489l-.029-.239M416.11 348.09v-.12M416.021 347.25l-.031-.12M415.96 346.8v-.12M415.9 346.319v-.119M415.9 346.08l-.03-.12M415.931 346.439l-.031-.12M415.9 346.2v-.12M415.87 345.84l-.03-.24M415.96 346.68l-.029-.241M415.87 345.96v-.12M415.84 345.6v-.121M415.811 345.359l-.031-.239M415.84 345.479l-.029-.12M415.78 345.12V345M415.75 344.76v-.12M415.78 344.88l-.03-.12M415.75 344.64v-.12M415.69 343.8l-.03-.24M415.78 345v-.12M415.69 344.04v-.12M415.72 344.399v-.12M415.63 342.93l-.029-.12M415.75 344.52l-.03-.121M415.601 342.81v-.121M415.72 344.279l-.03-.239M415.63 343.08v-.15M415.601 342.689v-.12M415.66 343.56v-.121M415.66 343.319l-.03-.119M415.66 343.439v-.12M415.69 343.92v-.12M415.63 343.2v-.12M415.57 342.21v-.12M415.601 342.569v-.119M415.57 342.33v-.12M415.57 341.97l-.03-.12M415.57 342.09v-.12M415.54 341.85v-.121M415.601 342.45l-.031-.12M418.84 304.5l-.27.33M416.23 306.54l-.54.239M409.33 308.64l-.12.06M417.34 305.91l-.569.329M415 307.109l-.54.241M419.53 303.39l-.179.33M419.08 304.14l-.24.36M417.97 305.43l-.209.15M419.71 302.939l-.06.151M418.57 304.83l-.36.359M413.53 307.68l-.57.179M414.46 307.35l-.42.15M418.21 305.189l-.24.241M412 308.13l-.569.12M416.771 306.239l-.541.301M411.431 308.25l-.481.09M412.45 308.01l-.45.12M419.65 303.09l-.12.3M417.761 305.58l-.421.33M415.69 306.779l-.69.33M410.95 308.34l-.42.09M414.04 307.5l-.51.18M410.53 308.43l-.42.059M419.8 302.7l-.09.239M419.23 303.93l-.15.21M419.351 303.72l-.121.21M412.96 307.859l-.51.151M410.11 308.489l-.63.12M419.92 302.52l-.12.18M409.48 308.609l-.15.031M408.311 309.72l.029.15M408.28 309.51v.059M408.94 311.16l.121.21M408.34 309.87l.03.15M409.33 311.88l.75 1.5M408.431 309.149l-.061.09M408.67 308.939l-.09.061M411.19 315.899l1.23 3.151M408.37 310.02l.061.12M409.21 308.7l-.149.029M410.08 313.38l1.11 2.519M408.28 309.39v.12M408.641 310.56l.089.15M408.79 308.85l-.12.089M408.431 310.14l.09.21M408.311 309.3l-.031.09M408.521 310.35l.12.21M408.82 310.89l.12.27M408.73 310.71l.09.18M409.061 311.37l.269.51M408.521 309.06l-.09.089M408.37 309.239l-.059.061M408.28 309.569l.031.151M408.58 309l-.059.06M409.061 308.729l-.271.121M429.04 306.029v-.09M430 308.79l-.06-.181M428.38 302.16l-.06-.66M428.5 302.64l-.12-.48M429.19 306.6l-.06-.27M429.55 307.62l-.06-.21M429.311 306.93l-.121-.33M429.011 305.729l-.031-.12M430.061 308.939l-.061-.149M429.851 308.43l-.09-.21M429.94 308.609l-.089-.179M428.95 305.399l-.03-.389M429.61 307.83l-.06-.21M429.04 305.939l-.029-.089M428.92 305.01l-.029-.21M428.83 304.529l-.059-.389M428.71 303.75l-.21-1.11M429.011 305.85v-.121M428.771 304.14l-.061-.39M429.04 306.12v-.091M429.49 307.41l-.179-.48M428.32 301.5v-.57M429.761 308.22l-.061-.21-.09-.18M429.13 306.33l-.09-.21M428.891 304.8l-.061-.271M428.98 305.609l-.03-.21M428.32 300.93l-.03-.21M428.141 300.18l-.091-.18M428.2 300.39l-.059-.21M426.521 298.71h-.181M425.95 298.83l-.66.27M428.05 300l-.18-.271M426.97 298.83l-.18-.091M426.19 298.739l-.24.091M428.23 300.51l-.03-.12M426.67 298.71h-.149M420.311 302.04l-.151.149M420.82 301.62l-.21.15M424.78 299.37l-.84.42M420.16 302.189l-.24.331M427.15 298.95l-.18-.12M426.79 298.739l-.12-.029M428.29 300.72l-.06-.21M426.34 298.71l-.15.029M420.61 301.77l-.12.12M421.84 300.96l-.69.45M427.601 299.34l-.21-.18M427.87 299.729l-.12-.179M427.391 299.16l-.241-.21M421.15 301.41l-.33.21M423.94 299.79l-1.2.66M427.75 299.55l-.149-.21M420.49 301.89l-.179.15M425.29 299.1l-.51.27M422.74 300.45l-.9.51M411.4 332.609v-.059M411.311 332.13v-.09M411.22 331.62v-.06M411.19 331.35l-.03-.06M411.16 331.109l-.03-.059M411.431 332.76l-.031-.06M411.37 332.43l-.03-.06M411.28 331.979v-.059M411.34 332.25l-.029-.061M411.25 331.8v-.061M411.25 331.859v-.059M411.28 331.92l-.03-.061M411.13 331.05v-.09M411.4 332.7v-.091M411.13 330.96v-.061M411.37 332.489v-.059M411.13 330.899l-.029-.059M411.22 331.56l-.03-.09M411.16 331.29v-.061M411.4 332.55l-.03-.061M411.311 332.04l-.031-.061M411.101 330.84v-.061M411.19 331.47v-.06M411.22 331.68v-.06M411.16 331.229v-.059M411.311 332.189v-.059M411.16 331.17v-.061M411.34 332.31v-.06M411.34 332.37v-.06M411.25 331.739l-.03-.059M411.19 331.41v-.06M411.101 330.779v-.059M411.07 330.6v-.06M411.101 330.66l-.031-.06M411.07 330.45v-.06M411.04 330.21v-.061M411.07 330.54v-.09M411.04 330.149l-.029-.059M411.011 329.88v-.061M411.07 330.39l-.03-.18M411.011 330.09V330M411.101 330.72v-.06M411.011 330v-.12M410.92 328.68v-.09M410.92 328.92v-.061M410.891 327.96v-.12M410.98 329.58v-.091M410.98 329.43l-.03-.06M410.92 328.979v-.059M410.891 328.08v-.06M410.92 328.59v-.061M410.95 329.25v-.061M410.95 329.13v-.09M410.98 329.7v-.06M410.95 329.04l-.03-.061M410.92 328.859v-.059M410.891 328.41v-.12M410.98 329.489v-.059M410.92 328.8v-.061M411.011 329.819l-.031-.059M410.891 328.29v-.061M410.95 329.189v-.059M410.92 328.47l-.029-.06M410.92 328.739v-.059M410.98 329.76v-.06M410.98 329.64v-.06M410.95 329.31v-.06M410.891 328.229v-.149M410.95 329.37v-.06M410.92 328.529v-.059M410.891 328.02v-.06M410.891 327.18v-.12M410.891 327.569v-.059M410.891 327.45v-.06M410.891 327.689v-.12M410.891 327.51v-.06M410.891 327.39v-.06M410.891 327.779v-.09M410.891 327.84v-.061M410.891 327.239v-.059M410.891 327.33v-.091M410.891 327.06V327M410.891 326.88v-.09M410.92 325.5l.03-.061M410.95 325.14v-.06M410.92 325.89v-.06M410.92 325.649v-.059M410.891 326.489v-.09M410.891 326.34v-.061M410.92 326.04v-.09M410.95 325.26v-.06M410.891 326.16v-.06M410.891 326.22v-.06M410.891 327v-.061M410.891 326.1l.029-.06M410.891 326.609v-.059M410.92 325.83v-.06M410.92 325.71v-.061M410.92 325.59v-.09M410.891 326.55v-.061M410.92 325.95v-.06M410.95 325.08l.03-.091M410.891 326.279v-.059M410.95 325.319v-.059M410.891 326.399v-.059M410.891 326.939v-.059M410.891 326.67v-.061M410.891 326.729v-.059M410.95 325.439v-.059M410.95 325.2v-.06M410.95 325.38v-.061M410.92 325.77v-.06M410.891 326.79v-.061M411.19 323.16v-.091M410.98 324.87v-.06M411.19 323.069v-.059M411.13 323.46v-.061M411.19 323.01l.03-.06M411.101 323.85v-.06M411.13 323.52v-.06M410.98 324.93v-.06M410.98 324.75l.031-.061M411.04 324.239v-.059M410.98 324.81v-.06M411.04 324.359v-.059M411.101 323.79v-.061M410.98 324.989v-.059M411.13 323.58v-.06M411.011 324.63v-.151M411.101 323.729l.029-.149M411.011 324.689v-.059M411.07 324.09v-.12M411.13 323.399l.03-.059M411.011 324.42l.029-.061M411.011 324.479v-.059M411.16 323.34v-.12M411.04 324.3v-.061M411.16 323.22l.03-.06M411.07 323.91l.031-.06M411.07 323.97v-.06M411.04 324.18l.03-.09M411.58 321l.03-.061M411.25 322.71v-.061M411.4 321.81l.031-.06M411.55 321.18v-.06M411.37 322.02v-.09M411.431 321.75v-.061M411.28 322.5v-.061M411.22 322.95v-.06M411.311 322.38l.029-.12M411.34 322.14l.03-.06M411.49 321.45v-.06M411.521 321.3v-.061M411.55 321.12l.03-.06M411.22 322.83l.03-.06M411.28 322.59v-.09M411.37 321.93l.03-.06M411.25 322.77v-.06M411.25 322.649l.03-.059M411.34 322.26v-.06M411.22 322.89v-.06M411.46 321.569v-.059M411.37 322.08v-.06M411.46 321.51l.03-.06M411.46 321.63v-.061M411.58 321.06V321M411.34 322.2v-.06M411.431 321.689l.029-.059M411.28 322.439l.031-.059M411.49 321.39l.031-.09M411.521 321.239l.029-.059M411.4 321.87v-.06M411.91 319.68l.03-.06M411.82 320.069v-.059M412.061 319.2v-.06M411.7 320.55v-.061M411.61 320.88l.031-.061M411.79 320.13l.03-.061M411.641 320.76l.029-.06M411.82 320.01l.031-.06M411.97 319.439l.03-.059M412.03 319.319v-.059M411.73 320.37l.031-.06M411.91 319.739v-.059M411.79 320.189v-.059M412.03 319.26l.031-.06M411.94 319.56l.03-.06M411.641 320.819v-.059M411.61 320.939v-.059M411.97 319.5v-.061M411.67 320.609l.03-.059M419.83 318.6c-.493-.019-.872-.009-1.119.03M418.69 318.63a1.96 1.96 0 01-.657.003M418.03 318.66a1.622 1.622 0 00-.594-.063M417.431 318.6c-.188.01-.357.03-.503.06M416.92 318.66a.755.755 0 01-.354.003M416.561 318.689c-.09-.054-.253-.072-.485-.082M416.05 318.63a2.431 2.431 0 00-.632-.004M415.391 318.63c-.179.02-.328.086-.422.197M414.94 318.84c-.065.098-.156.206-.245.313M411.94 319.62v-.06M412 319.38l.03-.061M411.73 320.43v-.06M411.761 320.31l.029-.121M411.67 320.7v-.091M411.851 319.95v-.06M411.7 320.489l.03-.059M411.851 319.89l.059-.151M426.34 318.81c.126-.212.19-.351.207-.426M426.521 318.39c.042-.081-.018-.145-.155-.197M426.34 318.21c-.111-.069-.324-.093-.614-.087M425.71 318.149a4.926 4.926 0 00-.888.033M424.811 318.21c-.301.006-.629.07-.972.166M414.67 335.22a.807.807 0 00-.171-.24M429.28 308.91l.031.449M414.67 319.17c-.035.056-.097.129-.157.202M423.82 318.39c-1-.008-1.743.004-2.209.021M421.601 318.42c-.455.008-.865.04-1.219.088M420.37 318.51a6.886 6.886 0 00-.93.185M419.44 318.72c-.273.051-.55.224-.829.494M423.851 335.55c-1.009.031-1.751.055-2.217.059M421.63 335.609a13.04 13.04 0 01-1.229-.041M420.4 335.58a9.576 9.576 0 01-.948-.153M419.44 335.43c-.265-.066-.548-.227-.839-.483M429.19 307.59l.06.63.03.69M426.34 335.01c.135.186.205.32.225.395M426.55 335.43c.034.05-.023.116-.157.175M426.37 335.609c-.112.054-.324.087-.614.095M425.74 335.729c-.273-.018-.575-.023-.889-.042M424.84 335.7a8.12 8.12 0 01-.979-.161M429.07 306.3l.12 1.29M429.311 309.359l.029.54M419.86 335.52c-.507.025-.886.032-1.134.006M418.72 335.55a1.554 1.554 0 00-.67.004M418.03 335.58c-.184.019-.381.04-.575.037M417.431 335.64c-.169-.025-.34-.039-.487-.062M416.92 335.58a.665.665 0 00-.338.012M416.561 335.609c-.072.014-.234.04-.466.062M416.08 335.7c-.217-.009-.437-.005-.643-.019M415.42 335.7c-.189-.031-.343-.092-.44-.197M414.97 335.52c-.089-.123-.185-.228-.278-.33M429.04 306.12l.03.18M424.3 351.75c.01 1.816.16 6.201.461 13.133M424.75 364.89c.312 6.925.723 10.851 1.243 11.768M425.98 376.68c.534.896 1.096 1.354 1.697 1.354M428.561 321.689l.929-.629.901-.51M430.66 310.229l-.12-.24M434.65 316.08l-.36-.57M430.391 320.55l.42-.21M432.79 313.77l-.51-.6M433.391 318.93l.63-.63M430.811 320.34l1.83-.93M434.021 318.3l.509-.72M431.65 312.12l-.18-.301M434.53 317.58l.18-.42M432.641 319.41l.75-.48M430.75 310.439l-.09-.21M434.29 315.51l-.72-.81M431.32 311.55l-.21-.42M433.57 314.7l-.78-.93M430.931 310.83l-.181-.391M434.71 317.16v-.54M430.54 309.989l-.269-.539M432.28 313.17l-.63-1.05M430.271 309.45l-.121-.301M431.11 311.13l-.179-.3M430.15 309.149l-.089-.21M434.71 316.62l-.06-.54M431.47 311.819l-.15-.269M401.83 386.069a141.215 141.215 0 01-4.003-.102M397.811 385.979c-1.223-.065-2.201-.139-2.917-.232M394.87 385.77c-.691-.115-1.05-.215-1.05-.322M412.061 335.31l-.031-.121M426.46 386.069c1.447-.021 2.782-.048 4.022-.102M430.48 385.979c1.241-.065 2.219-.139 2.935-.232M433.391 385.77c.74-.115 1.099-.215 1.099-.322M427.66 378.06a47.623 47.623 0 013.423.056M431.08 378.12c1.057.049 1.888.122 2.496.215M433.57 378.359c.614.068.919.169.919.276M409.84 375.029c-2.855 0-5.526.161-8.006.483M401.83 375.54c-2.476.295-4.431.734-5.862 1.292M395.95 376.859c-1.414.531-2.13 1.132-2.13 1.776M412.09 335.37l-.029-.06M412.03 335.189l-.03-.059M411.94 334.92v-.061M411.55 333.39v-.09M411.73 334.14v-.06M412 335.13v-.061M411.7 333.93l-.03-.06M411.7 333.989v-.059M411.82 334.5v-.061M411.91 334.739l-.03-.059M411.67 333.81l-.029-.06M411.94 334.859l-.03-.059M411.67 333.87v-.06M411.641 333.75v-.061M411.761 334.2l-.031-.06M411.88 334.68v-.06M411.73 334.08l-.03-.091M411.641 333.689l-.031-.059M411.91 334.8v-.061M412 335.069l-.03-.059M411.82 334.439l-.059-.179M411.61 333.63v-.061M411.97 335.01l-.03-.09M411.761 334.26v-.06M411.61 333.569l-.03-.059M411.851 334.56l-.031-.06M411.88 334.62l-.029-.06M411.58 333.51l-.03-.12M411.46 332.88l-.029-.061M411.55 333.3l-.029-.12M411.49 333.12v-.06M411.46 332.939v-.059M411.49 333l-.03-.061M411.521 333.18l-.031-.06M411.431 332.819v-.059M411.49 333.06V333M375.28 256.8l17.31-5.071-2.76-9.389"/><path fill="none" stroke-linecap="round" stroke-linejoin="round" d="M371.05 242.34l4.23 14.46.54 1.92 17.31-5.071-.54-1.92"/><path fill="none" stroke-linecap="round" stroke-linejoin="round" d="M368.95 242.34l4.41 15 21.151-6.18-2.58-8.82M356.681 214.29h48.09v28.05h-48.09zM285.28 288.27v42.33M284.681 288.63v41.43M283.39 289.26v40.08M281.71 296.729v23.88M281.021 304.83v8.94M285.28 288.27l-.54-.09-1.35 1.08M285.28 330.6l-.57-.09-1.32-1.17M283.39 323.55l-1.68-2.941M281.71 296.729l1.68-3.269M281.71 304.83h-.689M281.021 313.77h.689M282.383 296.84a.23.23 0 10.46.001.23.23 0 00-.46-.001M282.383 297.567a.23.23 0 10.462-.002.23.23 0 00-.462.002M282.383 298.294a.23.23 0 10.46.001.23.23 0 00-.46-.001M282.383 299.021a.232.232 0 00.462 0 .231.231 0 00-.462 0M282.383 299.748a.23.23 0 10.46.001.23.23 0 00-.46-.001M282.383 300.475a.23.23 0 10.46.001.23.23 0 00-.46-.001M282.383 301.202a.232.232 0 00.462 0 .231.231 0 00-.462 0M282.383 301.929a.23.23 0 10.231-.231.23.23 0 00-.231.231M282.383 302.656a.232.232 0 00.462 0 .231.231 0 00-.462 0M282.383 303.383a.23.23 0 10.231-.231.23.23 0 00-.231.231M282.383 304.109a.23.23 0 10.46.001.23.23 0 00-.46-.001M282.383 304.837a.232.232 0 00.462 0 .231.231 0 00-.462 0M282.383 305.563a.23.23 0 10.46.001.23.23 0 00-.46-.001M282.383 306.29a.23.23 0 10.46.001.23.23 0 00-.46-.001M282.383 307.018a.23.23 0 10.231-.231.23.23 0 00-.231.231M282.383 307.744a.23.23 0 10.46.001.23.23 0 00-.46-.001M282.383 308.472a.232.232 0 00.462 0 .231.231 0 00-.462 0M282.383 309.198a.23.23 0 10.46.001.23.23 0 00-.46-.001M282.383 309.925a.23.23 0 10.46.001.23.23 0 00-.46-.001M282.383 310.652a.23.23 0 10.46.001.23.23 0 00-.46-.001M282.383 311.379a.23.23 0 10.231-.231.23.23 0 00-.231.231M282.383 312.106a.232.232 0 00.462 0 .231.231 0 00-.462 0M282.383 312.833a.23.23 0 10.46.001.23.23 0 00-.46-.001M282.383 313.56a.23.23 0 10.46.001.23.23 0 00-.46-.001M282.383 314.287a.23.23 0 10.462-.002.23.23 0 00-.462.002M282.383 315.014a.23.23 0 10.231-.231.23.23 0 00-.231.231M282.383 315.741a.232.232 0 00.462 0 .231.231 0 00-.462 0M282.383 316.468a.23.23 0 10.231-.231.23.23 0 00-.231.231M282.383 317.194a.23.23 0 10.46.001.23.23 0 00-.46-.001M282.383 317.922a.232.232 0 00.462 0 .231.231 0 00-.462 0M282.383 318.648a.23.23 0 10.46.001.23.23 0 00-.46-.001M282.383 319.375a.23.23 0 10.46.001.23.23 0 00-.46-.001M282.383 320.103a.23.23 0 10.231-.231.23.23 0 00-.231.231M282.383 320.829a.23.23 0 10.46.001.23.23 0 00-.46-.001"/><path fill="none" stroke-linecap="round" stroke-linejoin="round" d="M277 220.53h20.04v177.51H277zM297.04 338.88H277M297.04 279.72H277M277 220.53l20.04 59.19M277 279.72l20.04-59.19M277 279.72l20.04 59.16M277 338.88l20.04-59.16M277 338.88l20.04 59.16M277 398.04l20.04-59.16"/></g></svg>